<?xml version="1.0" encoding="UTF-8" standalone="no"?>
<!-- Created with Inkscape (http://www.inkscape.org/) -->

<svg
   xmlns:dc="http://purl.org/dc/elements/1.1/"
   xmlns:cc="http://creativecommons.org/ns#"
   xmlns:rdf="http://www.w3.org/1999/02/22-rdf-syntax-ns#"
   xmlns:svg="http://www.w3.org/2000/svg"
   xmlns="http://www.w3.org/2000/svg"
   xmlns:xlink="http://www.w3.org/1999/xlink"
   xmlns:sodipodi="http://sodipodi.sourceforge.net/DTD/sodipodi-0.dtd"
   xmlns:inkscape="http://www.inkscape.org/namespaces/inkscape"
   width="300"
   height="240"
   viewBox="0 0 79.374998 63.500002"
   version="1.1"
   id="svg855"
   inkscape:version="0.92.2 (5c3e80d, 2017-08-06)"
   sodipodi:docname="brandwhite.svg">
  <defs
     id="defs849">
    <linearGradient
       inkscape:collect="always"
       id="linearGradient924">
      <stop
         style="stop-color:#0d0d11;stop-opacity:1;"
         offset="0"
         id="stop920" />
      <stop
         style="stop-color:#0d0d11;stop-opacity:0;"
         offset="1"
         id="stop922" />
    </linearGradient>
    <linearGradient
       inkscape:collect="always"
       id="linearGradient916">
      <stop
         style="stop-color:#0d0d11;stop-opacity:1;"
         offset="0"
         id="stop912" />
      <stop
         style="stop-color:#0d0d11;stop-opacity:0;"
         offset="1"
         id="stop914" />
    </linearGradient>
    <linearGradient
       inkscape:collect="always"
       xlink:href="#linearGradient916"
       id="linearGradient918"
       x1="13.623239"
       y1="278.29308"
       x2="31.713271"
       y2="278.29308"
       gradientUnits="userSpaceOnUse" />
    <linearGradient
       inkscape:collect="always"
       xlink:href="#linearGradient924"
       id="linearGradient926"
       x1="35.686688"
       y1="278.08092"
       x2="68.032171"
       y2="278.08092"
       gradientUnits="userSpaceOnUse" />
    <clipPath
       clipPathUnits="userSpaceOnUse"
       id="clipPath1071">
      <g
         transform="translate(144.79344,0.83149531)"
         id="g1087"
         style="opacity:1;fill:#00ffff;fill-opacity:1;stroke-width:0.99999994">
        <path
           d="m 17.847699,268.84132 q 0.328287,0 0.328287,0.55057 0,0.35143 -1.184174,0.91371 -1.184174,0.55057 -2.485593,0.55057 -2.133859,0 -3.658044,-1.28856 -1.5241844,-1.30029 -1.5241844,-3.26829 0,-1.74541 1.4421134,-3.06913 1.442113,-1.32371 3.447002,-1.32371 1.078654,0 2.450419,0.44514 1.371766,0.44514 1.371766,0.80828 0,0.65601 0.07035,1.066 0.07035,0.41 0.07035,0.46857 0,0.52714 -0.480705,0.52714 -0.363459,0 -0.5745,-0.70285 -0.199317,-0.70285 -0.855889,-1.11285 -0.656571,-0.42172 -1.61798,-0.42172 -1.207623,0 -2.251103,0.89028 -1.031756,0.89029 -1.031756,2.51857 0,1.49943 1.160725,2.46 1.160725,0.94885 2.415247,0.94885 0.457255,0 0.949684,-0.11715 0.492429,-0.11713 1.090378,-0.48028 0.609674,-0.36314 0.867612,-0.36314 z"
           style="font-style:normal;font-variant:normal;font-weight:normal;font-stretch:normal;font-size:medium;line-height:1.25;font-family:'Poor Richard';-inkscape-font-specification:'Poor Richard';font-variant-ligatures:normal;font-variant-caps:normal;font-variant-numeric:normal;font-feature-settings:normal;text-align:start;letter-spacing:0px;word-spacing:0px;writing-mode:lr-tb;text-anchor:start;fill:#00ffff;fill-opacity:1;stroke:none;stroke-width:0.37005413"
           id="path1073"
           inkscape:connector-curvature="0" />
        <path
           d="m 26.34796,265.84247 q 0.269664,0 0.363459,-0.0938 0.09379,-0.0937 0.09379,-0.33971 0,-0.90199 -0.70347,-1.68685 -0.691745,-0.78486 -2.098684,-0.78486 -0.973134,0 -2.016614,0.92543 -1.031756,0.92542 -1.031756,2.62399 0,1.24172 1.090378,2.23743 1.102103,0.98399 2.462145,0.98399 1.031756,0 2.227655,-0.64427 0.457254,-0.24601 0.597949,-0.24601 0.211041,0 0.328285,0.11714 0.12897,0.11715 0.12897,0.29286 0,0.42172 -1.301419,1.04257 -1.289695,0.60914 -2.661461,0.60914 -2.028337,0 -3.411828,-1.38228 -1.383492,-1.38228 -1.383492,-3.29171 0,-1.74542 1.512461,-2.98713 1.524184,-1.24172 3.411828,-1.24172 2.45042,0 3.669768,1.25343 1.219348,1.25343 1.219348,2.99885 0,0.37486 -0.187592,0.46857 -0.187593,0.082 -0.691746,0.082 h -5.381543 q -0.656572,0 -0.656572,-0.48029 0,-0.45685 0.680021,-0.45685 z"
           style="font-style:normal;font-variant:normal;font-weight:normal;font-stretch:normal;font-size:medium;line-height:1.25;font-family:'Poor Richard';-inkscape-font-specification:'Poor Richard';font-variant-ligatures:normal;font-variant-caps:normal;font-variant-numeric:normal;font-feature-settings:normal;text-align:start;letter-spacing:0px;word-spacing:0px;writing-mode:lr-tb;text-anchor:start;fill:#00ffff;fill-opacity:1;stroke:none;stroke-width:0.37005413"
           id="path1075"
           inkscape:connector-curvature="0" />
        <path
           d="m 31.283974,259.0482 q 0,-1.312 0.269664,-2.14371 0.269663,-0.84343 0.902786,-1.55799 0.644847,-0.72629 1.477287,-1.24172 0.832439,-0.52714 1.078653,-0.52714 0.164143,0 0.164143,0.45686 0,0.0586 -0.222765,0.23428 -1.04348,0.78485 -1.430389,1.92114 -0.386908,1.13628 -0.386908,2.50685 v 3.80714 q 0,0.14057 0.187592,0.14057 0.08208,0 0.398633,-0.0352 0.316561,-0.0352 0.609674,-0.0352 0.68002,0 0.68002,0.45686 0,0.22257 -0.222766,0.35143 -0.222765,0.12885 -0.527602,0.12885 -1.125551,0 -1.125551,0.91371 v 4.07657 q 0,0.58572 0.10552,0.72628 0.105521,0.12886 0.269663,0.29286 0.175868,0.15229 0.72692,0.22257 0.562776,0.0703 0.691745,0.18743 0.128969,0.11715 0.128969,0.30457 0,0.45685 -0.680021,0.45685 -0.398633,0 -1.008306,-0.12885 -0.59795,-0.11715 -1.195899,-0.11715 -0.375184,0 -1.066929,0.11715 -0.680021,0.12885 -0.855889,0.12885 -0.738643,0 -0.738643,-0.50371 0,-0.16399 0.105521,-0.26943 0.10552,-0.10542 0.609673,-0.164 0.504154,-0.0703 0.738644,-0.22257 0.23449,-0.164 0.269663,-0.39829 0.0469,-0.24599 0.0469,-1.01913 v -3.76028 q 0,-0.84343 -1.04348,-0.84343 -0.80899,0 -0.80899,-0.50371 0,-0.45686 0.820714,-0.45686 0.293113,0 0.562776,0.0352 0.269664,0.0352 0.328286,0.0352 0.140694,0 0.140694,-0.14057 z"
           style="font-style:normal;font-variant:normal;font-weight:normal;font-stretch:normal;font-size:medium;line-height:1.25;font-family:'Poor Richard';-inkscape-font-specification:'Poor Richard';font-variant-ligatures:normal;font-variant-caps:normal;font-variant-numeric:normal;font-feature-settings:normal;text-align:start;letter-spacing:0px;word-spacing:0px;writing-mode:lr-tb;text-anchor:start;fill:#00ffff;fill-opacity:1;stroke:none;stroke-width:0.37005413"
           id="path1077"
           inkscape:connector-curvature="0" />
        <path
           d="m 43.371929,265.84247 q 0.269663,0 0.363459,-0.0938 0.0938,-0.0937 0.0938,-0.33971 0,-0.90199 -0.70347,-1.68685 -0.691745,-0.78486 -2.098685,-0.78486 -0.973133,0 -2.016614,0.92543 -1.031755,0.92542 -1.031755,2.62399 0,1.24172 1.090378,2.23743 1.102103,0.98399 2.462145,0.98399 1.031755,0 2.227654,-0.64427 0.457255,-0.24601 0.59795,-0.24601 0.21104,0 0.328285,0.11714 0.128969,0.11715 0.128969,0.29286 0,0.42172 -1.301419,1.04257 -1.289694,0.60914 -2.66146,0.60914 -2.028339,0 -3.411829,-1.38228 -1.383491,-1.38228 -1.383491,-3.29171 0,-1.74542 1.512461,-2.98713 1.524184,-1.24172 3.411828,-1.24172 2.45042,0 3.669768,1.25343 1.219347,1.25343 1.219347,2.99885 0,0.37486 -0.187592,0.46857 -0.187592,0.082 -0.691745,0.082 H 39.60837 q -0.656572,0 -0.656572,-0.48029 0,-0.45685 0.680021,-0.45685 z"
           style="font-style:normal;font-variant:normal;font-weight:normal;font-stretch:normal;font-size:medium;line-height:1.25;font-family:'Poor Richard';-inkscape-font-specification:'Poor Richard';font-variant-ligatures:normal;font-variant-caps:normal;font-variant-numeric:normal;font-feature-settings:normal;text-align:start;letter-spacing:0px;word-spacing:0px;writing-mode:lr-tb;text-anchor:start;fill:#00ffff;fill-opacity:1;stroke:none;stroke-width:0.37005413"
           id="path1079"
           inkscape:connector-curvature="0" />
        <path
           d="m 50.090067,264.74133 0.0469,0.328 q 0.05863,0 0.551052,-1.11285 0.492429,-1.11286 0.973133,-1.58143 0.480705,-0.46857 0.996582,-0.46857 0.398633,0 0.597949,0.14057 0.211041,0.14057 0.211041,0.31628 0,0.30458 -0.140693,0.49201 -0.140695,0.17571 -0.492429,0.44513 -1.489011,1.13629 -2.157308,2.76458 -0.656572,1.62827 -0.656572,2.70598 0,0.50372 0.128969,0.69115 0.140695,0.17571 0.656572,0.30457 0.515878,0.11714 0.668297,0.25772 0.152418,0.14056 0.152418,0.32799 0,0.33971 -0.410357,0.33971 -0.328286,0 -0.914511,-0.11713 -0.5745,-0.10544 -1.242797,-0.10544 -0.44553,0 -0.902786,0.10544 -0.457255,0.11713 -0.586225,0.11713 -0.328285,0 -0.527602,-0.12885 -0.199316,-0.11715 -0.199316,-0.30458 0,-0.14057 0.10552,-0.24599 0.117245,-0.11715 0.633123,-0.29286 0.515878,-0.17571 0.633123,-0.35143 0.117245,-0.17571 0.117245,-1.10114 v -3.57285 q 0,-0.33971 -0.164143,-0.60914 -0.152418,-0.26942 -0.633123,-0.41 -0.46898,-0.15228 -0.562776,-0.25771 -0.08208,-0.10543 -0.08208,-0.23429 0,-0.38657 0.551052,-0.38657 0.152418,0 0.504153,0.0586 0.36346,0.0586 0.504154,0.0586 0.117244,0 0.375184,-0.0469 0.269663,-0.0469 0.633122,-0.0469 0.633123,0 0.633123,1.34714 z"
           style="font-style:normal;font-variant:normal;font-weight:normal;font-stretch:normal;font-size:medium;line-height:1.25;font-family:'Poor Richard';-inkscape-font-specification:'Poor Richard';font-variant-ligatures:normal;font-variant-caps:normal;font-variant-numeric:normal;font-feature-settings:normal;text-align:start;letter-spacing:0px;word-spacing:0px;writing-mode:lr-tb;text-anchor:start;fill:#00ffff;fill-opacity:1;stroke:none;stroke-width:0.37005413"
           id="path1081"
           inkscape:connector-curvature="0" />
        <path
           sodipodi:nodetypes="scccsssscscscccsscccscscsssscss"
           d="m 57.757889,268.59532 c 0,0.38267 0.07035,0.63257 0.21104,0.74971 0.140694,0.11715 0.328286,0.19524 0.562776,0.23429 0.23449,0.0313 0.398633,0.0781 0.492428,0.14057 0.101613,0.0625 0.152419,0.19139 0.152419,0.38657 0,0.25771 -0.226674,0.38657 -0.680021,0.38657 -0.195408,0 -0.48852,-0.0234 -0.879337,-0.0703 -0.390817,-0.0469 -0.680021,-0.0703 -0.867613,-0.0703 -0.187591,0 -0.461163,0.0312 -0.820714,0.0937 -0.359551,0.0625 -0.629215,0.0938 -0.80899,0.0938 -0.179776,0 -0.336103,-0.0508 -0.468981,-0.15228 -0.125061,-0.10153 -0.187592,-0.23429 -0.187592,-0.39829 0,-0.10152 0.03517,-0.18743 0.105521,-0.25772 0.07035,-0.0781 0.250122,-0.14057 0.539327,-0.18742 0.289204,-0.0469 0.48852,-0.14058 0.597949,-0.28114 0.117245,-0.14057 0.175868,-0.48029 0.175868,-1.01915 v -3.95942 c 0,-0.33581 -0.07035,-0.55838 -0.211042,-0.66771 -0.140693,-0.10933 -0.347826,-0.19133 -0.621398,-0.246 -0.273571,-0.0547 -0.44553,-0.12495 -0.515877,-0.21086 -0.06253,-0.0859 -0.0938,-0.19133 -0.0938,-0.31628 0,-0.14057 0.05471,-0.25381 0.164143,-0.33971 0.117245,-0.0937 0.25403,-0.14058 0.410357,-0.14058 0.132878,0 0.32047,0.0273 0.562775,0.082 0.250123,0.0547 0.433807,0.082 0.551052,0.082 0.132878,0 0.336103,-0.0195 0.609674,-0.0586 0.273571,-0.0391 0.476796,-0.0586 0.609673,-0.0586 0.289205,0 0.433807,0.24209 0.433807,0.72628 0,0.0781 -0.0039,0.18353 -0.01172,0.3163 -0.0078,0.12495 -0.01172,0.21085 -0.01172,0.2577 z"
           style="font-style:normal;font-variant:normal;font-weight:normal;font-stretch:normal;font-size:medium;line-height:1.25;font-family:'Poor Richard';-inkscape-font-specification:'Poor Richard';font-variant-ligatures:normal;font-variant-caps:normal;font-variant-numeric:normal;font-feature-settings:normal;text-align:start;letter-spacing:0px;word-spacing:0px;writing-mode:lr-tb;text-anchor:start;fill:#00ffff;fill-opacity:1;stroke:none;stroke-width:0.37005413"
           id="path1083"
           inkscape:connector-curvature="0" />
        <path
           d="m 69.212721,268.79446 q 0,0.50372 0.164143,0.66772 0.175867,0.15228 0.609674,0.25771 0.44553,0.0938 0.44553,0.36314 0,0.36314 -0.433806,0.36314 -0.08208,0 -0.70347,-0.0351 -0.621399,-0.0352 -1.04348,-0.0352 -0.70347,0 -1.184174,0.082 -0.480705,0.082 -0.621398,0.082 -0.211041,0 -0.398633,-0.14057 -0.175868,-0.14058 -0.175868,-0.33972 0,-0.15228 0.152419,-0.28114 0.152418,-0.14057 0.351734,-0.14057 0.375184,0 0.668297,-0.21085 0.293112,-0.22258 0.293112,-0.65601 0,-2.82313 0.03518,-3.49084 0.03518,-0.67944 0.03518,-0.76143 0,-0.91371 -0.844165,-0.91371 -0.363459,0 -1.04348,0.56228 -0.668296,0.55057 -0.949684,0.55057 -0.0938,0 -0.211041,-0.11715 -0.117245,-0.11713 -0.117245,-0.24599 0,-0.41 1.078653,-1.25343 1.078654,-0.85514 2.11041,-0.85514 0.609674,0 1.055205,0.31629 0.445531,0.30457 0.586224,0.77314 0.152419,0.46857 0.152419,1.32371 l -0.01172,0.74971 z m -7.187117,-4.50999 q 0,-0.43343 -0.175867,-0.64428 -0.164143,-0.22257 -0.70347,-0.31629 -0.539326,-0.0937 -0.539326,-0.48028 0,-0.164 0.187591,-0.31629 0.187592,-0.164 0.492428,-0.164 0.128971,0 0.445532,0.082 0.328285,0.082 0.539326,0.082 0.12897,0 0.586225,-0.0703 0.46898,-0.0703 0.586225,-0.0703 0.23449,0 0.328286,0.19914 0.0938,0.18743 0.105521,0.77315 0.02345,0.97228 0.02345,2.07342 l -0.07035,3.33856 q 0,0.36314 0.05863,0.44515 0.05862,0.082 0.269664,0.21086 0.222765,0.12885 0.562775,0.19914 0.340011,0.0703 0.433807,0.19914 0.0938,0.11714 0.0938,0.28114 0,0.38657 -0.609675,0.38657 -0.422081,0 -0.867612,-0.0703 -0.445531,-0.0703 -0.879337,-0.0703 -0.351735,0 -0.914511,0.0586 -0.551051,0.0586 -0.820715,0.0586 -0.597949,0 -0.597949,-0.43342 0,-0.18743 0.10552,-0.30458 0.105521,-0.11714 0.457256,-0.14056 0.398633,-0.0234 0.492429,-0.11714 0.269664,-0.28115 0.34001,-0.49201 0.07035,-0.21086 0.07035,-0.86685 z"
           style="font-style:normal;font-variant:normal;font-weight:normal;font-stretch:normal;font-size:medium;line-height:1.25;font-family:'Poor Richard';-inkscape-font-specification:'Poor Richard';font-variant-ligatures:normal;font-variant-caps:normal;font-variant-numeric:normal;font-feature-settings:normal;text-align:start;letter-spacing:0px;word-spacing:0px;writing-mode:lr-tb;text-anchor:start;fill:#00ffff;fill-opacity:1;stroke:none;stroke-width:0.37005413"
           id="path1085"
           inkscape:connector-curvature="0" />
      </g>
    </clipPath>
    <linearGradient
       inkscape:collect="always"
       xlink:href="#linearGradient5605"
       id="linearGradient1116"
       gradientUnits="userSpaceOnUse"
       x1="22.561319"
       y1="315.00958"
       x2="30.250919"
       y2="315.00958" />
    <linearGradient
       inkscape:collect="always"
       id="linearGradient5605">
      <stop
         style="stop-color:#ff8927;stop-opacity:1"
         offset="0"
         id="stop5601" />
      <stop
         style="stop-color:#ff4b27;stop-opacity:0;"
         offset="1"
         id="stop5603" />
    </linearGradient>
    <linearGradient
       inkscape:collect="always"
       xlink:href="#linearGradient1023"
       id="linearGradient1114"
       gradientUnits="userSpaceOnUse"
       x1="24.354231"
       y1="315.10532"
       x2="31.527533"
       y2="314.87708" />
    <linearGradient
       inkscape:collect="always"
       id="linearGradient1023">
      <stop
         style="stop-color:#000000;stop-opacity:1;"
         offset="0"
         id="stop1019" />
      <stop
         style="stop-color:#000000;stop-opacity:0;"
         offset="1"
         id="stop1021" />
    </linearGradient>
    <radialGradient
       inkscape:collect="always"
       xlink:href="#linearGradient1041"
       id="radialGradient1118"
       gradientUnits="userSpaceOnUse"
       gradientTransform="matrix(-0.4876718,-0.87302704,0.30545555,-0.17062708,-81.66488,401.46426)"
       cx="14.943889"
       cy="306.45496"
       fx="14.943889"
       fy="306.45496"
       r="3.950197" />
    <linearGradient
       inkscape:collect="always"
       id="linearGradient1041">
      <stop
         style="stop-color:#ffffff;stop-opacity:1;"
         offset="0"
         id="stop1037" />
      <stop
         style="stop-color:#ffffff;stop-opacity:0;"
         offset="1"
         id="stop1039" />
    </linearGradient>
    <radialGradient
       inkscape:collect="always"
       xlink:href="#linearGradient1041"
       id="radialGradient1088"
       gradientUnits="userSpaceOnUse"
       gradientTransform="matrix(-0.49324849,0.86988846,-0.30435742,-0.17257826,125.05039,375.97935)"
       cx="14.943889"
       cy="306.45496"
       fx="14.943889"
       fy="306.45496"
       r="3.950197" />
    <radialGradient
       inkscape:collect="always"
       xlink:href="#linearGradient1041"
       id="radialGradient1045"
       cx="14.943889"
       cy="306.45496"
       fx="14.943889"
       fy="306.45496"
       r="3.950197"
       gradientTransform="matrix(1,0,0,0.34988097,-0.46400005,211.84469)"
       gradientUnits="userSpaceOnUse" />
    <linearGradient
       inkscape:collect="always"
       xlink:href="#linearGradient1023"
       id="linearGradient1651"
       gradientUnits="userSpaceOnUse"
       x1="24.354231"
       y1="315.10532"
       x2="31.527533"
       y2="314.87708" />
    <linearGradient
       inkscape:collect="always"
       xlink:href="#linearGradient5605"
       id="linearGradient1653"
       gradientUnits="userSpaceOnUse"
       x1="22.561319"
       y1="315.00958"
       x2="30.250919"
       y2="315.00958" />
    <linearGradient
       inkscape:collect="always"
       xlink:href="#linearGradient1023"
       id="linearGradient1655"
       gradientUnits="userSpaceOnUse"
       x1="24.354231"
       y1="315.10532"
       x2="31.527533"
       y2="314.87708" />
    <linearGradient
       inkscape:collect="always"
       xlink:href="#linearGradient5605"
       id="linearGradient1657"
       gradientUnits="userSpaceOnUse"
       x1="22.561319"
       y1="315.00958"
       x2="30.250919"
       y2="315.00958" />
  </defs>
  <sodipodi:namedview
     id="base"
     pagecolor="#ffffff"
     bordercolor="#666666"
     borderopacity="1.0"
     inkscape:pageopacity="0.0"
     inkscape:pageshadow="2"
     inkscape:zoom="1.2728089"
     inkscape:cx="198.88609"
     inkscape:cy="56.858773"
     inkscape:document-units="mm"
     inkscape:current-layer="layer1"
     showgrid="false"
     units="px"
     inkscape:window-width="1366"
     inkscape:window-height="706"
     inkscape:window-x="-8"
     inkscape:window-y="-8"
     inkscape:window-maximized="1"
     inkscape:snap-object-midpoints="true"
     inkscape:snap-smooth-nodes="true" />
  <metadata
     id="metadata852">
    <rdf:RDF>
      <cc:Work
         rdf:about="">
        <dc:format>image/svg+xml</dc:format>
        <dc:type
           rdf:resource="http://purl.org/dc/dcmitype/StillImage" />
        <dc:title></dc:title>
      </cc:Work>
    </rdf:RDF>
  </metadata>
  <g
     inkscape:label="Layer 1"
     inkscape:groupmode="layer"
     id="layer1"
     transform="translate(0,-233.49998)"
     style="display:inline">
    <g
       id="g1924">
      <text
         xml:space="preserve"
         style="font-style:normal;font-variant:normal;font-weight:normal;font-stretch:normal;font-size:24.00128555px;line-height:1.25;font-family:'Poor Richard';-inkscape-font-specification:'Poor Richard';font-variant-ligatures:normal;font-variant-caps:normal;font-variant-numeric:normal;font-feature-settings:normal;text-align:start;letter-spacing:0px;word-spacing:0px;writing-mode:lr-tb;text-anchor:start;opacity:1;fill:#ff4b27;fill-opacity:1;stroke:none;stroke-width:0.37005413;"
         x="13.509523"
         y="279.01157"
         id="text1342"
         transform="scale(1.0004368,0.9995634)"><tspan
           sodipodi:role="line"
           id="tspan1340"
           x="13.509523"
           y="279.01157"
           style="font-size:9.60051441px;fill:#ff4b27;fill-opacity:1;stroke-width:0.37005413;">Web Solutions</tspan></text>
      <g
         transform="translate(0.62362073,-0.62362086)"
         aria-label="ceferin"
         style="font-style:normal;font-variant:normal;font-weight:normal;font-stretch:normal;font-size:10.58333302px;line-height:1.25;font-family:'Giddyup Std';-inkscape-font-specification:'Giddyup Std, Normal';font-variant-ligatures:normal;font-variant-caps:normal;font-variant-numeric:normal;font-feature-settings:normal;text-align:start;letter-spacing:0px;word-spacing:0px;writing-mode:lr-tb;text-anchor:start;fill:#ffffff;fill-opacity:1;stroke:none;stroke-width:0.26458332"
         id="text4660">
        <path
           d="m 15.660735,269.5045 q 0.347265,0 0.347265,0.58291 0,0.37207 -1.252636,0.96739 -1.252637,0.58291 -2.629297,0.58291 -2.2572266,0 -3.8695313,-1.36426 -1.6123047,-1.37666 -1.6123047,-3.46025 0,-1.84795 1.5254883,-3.24942 1.5254882,-1.40146 3.6462887,-1.40146 1.141016,0 2.59209,0.47129 1.451074,0.47129 1.451074,0.85576 0,0.69453 0.07441,1.12861 0.07441,0.43408 0.07441,0.49609 0,0.55811 -0.508496,0.55811 -0.384472,0 -0.607715,-0.74414 -0.210839,-0.74414 -0.905371,-1.17822 -0.694531,-0.44649 -1.711523,-0.44649 -1.277441,0 -2.38125,0.94258 -1.0914062,0.94258 -1.0914062,2.6665 0,1.5875 1.2278322,2.6045 1.227832,1.00459 2.554883,1.00459 0.483691,0 1.004589,-0.12403 0.520899,-0.12402 1.153418,-0.50849 0.644922,-0.38448 0.917774,-0.38448 z"
           style="font-style:normal;font-variant:normal;font-weight:normal;font-stretch:normal;font-size:25.39999962px;font-family:'Poor Richard';-inkscape-font-specification:'Poor Richard, Normal';font-variant-ligatures:normal;font-variant-caps:normal;font-variant-numeric:normal;font-feature-settings:normal;text-align:start;writing-mode:lr-tb;text-anchor:start;fill:#ffffff;stroke-width:0.26458332"
           id="path1883"
           inkscape:connector-curvature="0" />
        <path
           d="m 24.652434,266.3295 q 0.285254,0 0.384472,-0.0992 0.09922,-0.0992 0.09922,-0.35967 0,-0.95498 -0.744141,-1.78594 -0.731738,-0.83096 -2.220019,-0.83096 -1.029395,0 -2.133203,0.97979 -1.091406,0.97978 -1.091406,2.77812 0,1.31465 1.153418,2.36885 1.16582,1.0418 2.604492,1.0418 1.091406,0 2.356445,-0.68213 0.483691,-0.26045 0.63252,-0.26045 0.223242,0 0.347265,0.12402 0.136426,0.12403 0.136426,0.31006 0,0.44649 -1.37666,1.10381 -1.364258,0.64492 -2.815332,0.64492 -2.145606,0 -3.609082,-1.46347 -1.463477,-1.46348 -1.463477,-3.48506 0,-1.84795 1.599903,-3.1626 1.612304,-1.31465 3.609082,-1.31465 2.592089,0 3.881933,1.32705 1.289844,1.32705 1.289844,3.175 0,0.39688 -0.198438,0.4961 -0.198437,0.0868 -0.731738,0.0868 h -5.692676 q -0.694531,0 -0.694531,-0.50849 0,-0.4837 0.719336,-0.4837 z"
           style="font-style:normal;font-variant:normal;font-weight:normal;font-stretch:normal;font-size:25.39999962px;font-family:'Poor Richard';-inkscape-font-specification:'Poor Richard, Normal';font-variant-ligatures:normal;font-variant-caps:normal;font-variant-numeric:normal;font-feature-settings:normal;text-align:start;writing-mode:lr-tb;text-anchor:start;fill:#ffffff;stroke-width:0.26458332"
           id="path1885"
           inkscape:connector-curvature="0" />
        <path
           d="m 29.873822,259.13615 q 0,-1.38907 0.285254,-2.26963 0.285253,-0.89297 0.95498,-1.64952 0.682129,-0.76894 1.562695,-1.31464 0.880567,-0.55811 1.141016,-0.55811 0.173633,0 0.173633,0.48369 0,0.062 -0.235645,0.24805 -1.103808,0.83096 -1.513086,2.03398 -0.409277,1.20303 -0.409277,2.6541 v 4.03077 q 0,0.14882 0.198437,0.14882 0.08682,0 0.42168,-0.0372 0.334863,-0.0372 0.644922,-0.0372 0.719336,0 0.719336,0.48369 0,0.23565 -0.235645,0.37207 -0.235644,0.13643 -0.558105,0.13643 -1.190625,0 -1.190625,0.96738 v 4.31602 q 0,0.62011 0.111621,0.76894 0.111621,0.13643 0.285254,0.31006 0.186035,0.16123 0.768945,0.23564 0.595313,0.0744 0.731738,0.19844 0.136426,0.12403 0.136426,0.32246 0,0.48369 -0.719336,0.48369 -0.421679,0 -1.066601,-0.13642 -0.63252,-0.12402 -1.265039,-0.12402 -0.396875,0 -1.128614,0.12402 -0.719335,0.13642 -0.905371,0.13642 -0.781347,0 -0.781347,-0.5333 0,-0.17363 0.111621,-0.28525 0.111621,-0.11162 0.644922,-0.17363 0.5333,-0.0744 0.781347,-0.23565 0.248047,-0.17363 0.285254,-0.42168 0.04961,-0.26045 0.04961,-1.079 v -3.98115 q 0,-0.89297 -1.103809,-0.89297 -0.855762,0 -0.855762,-0.5333 0,-0.48369 0.868164,-0.48369 0.310059,0 0.595313,0.0372 0.285254,0.0372 0.347265,0.0372 0.148829,0 0.148829,-0.14883 z"
           style="font-style:normal;font-variant:normal;font-weight:normal;font-stretch:normal;font-size:25.39999962px;font-family:'Poor Richard';-inkscape-font-specification:'Poor Richard, Normal';font-variant-ligatures:normal;font-variant-caps:normal;font-variant-numeric:normal;font-feature-settings:normal;text-align:start;writing-mode:lr-tb;text-anchor:start;fill:#ffffff;stroke-width:0.26458332"
           id="path1887"
           inkscape:connector-curvature="0" />
        <path
           d="m 42.660637,266.3295 q 0.285254,0 0.384473,-0.0992 0.09922,-0.0992 0.09922,-0.35967 0,-0.95498 -0.744141,-1.78594 -0.731738,-0.83096 -2.22002,-0.83096 -1.029394,0 -2.133203,0.97979 -1.091406,0.97978 -1.091406,2.77812 0,1.31465 1.153418,2.36885 1.16582,1.0418 2.604492,1.0418 1.091406,0 2.356445,-0.68213 0.483692,-0.26045 0.63252,-0.26045 0.223242,0 0.347266,0.12402 0.136425,0.12403 0.136425,0.31006 0,0.44649 -1.37666,1.10381 -1.364258,0.64492 -2.815332,0.64492 -2.145605,0 -3.609082,-1.46347 -1.463476,-1.46348 -1.463476,-3.48506 0,-1.84795 1.599902,-3.1626 1.612305,-1.31465 3.609082,-1.31465 2.59209,0 3.881934,1.32705 1.289843,1.32705 1.289843,3.175 0,0.39688 -0.198437,0.4961 -0.198438,0.0868 -0.731738,0.0868 h -5.692676 q -0.694531,0 -0.694531,-0.50849 0,-0.4837 0.719336,-0.4837 z"
           style="font-style:normal;font-variant:normal;font-weight:normal;font-stretch:normal;font-size:25.39999962px;font-family:'Poor Richard';-inkscape-font-specification:'Poor Richard, Normal';font-variant-ligatures:normal;font-variant-caps:normal;font-variant-numeric:normal;font-feature-settings:normal;text-align:start;writing-mode:lr-tb;text-anchor:start;fill:#ffffff;stroke-width:0.26458332"
           id="path1889"
           inkscape:connector-curvature="0" />
        <path
           d="m 49.767179,265.16368 0.04961,0.34727 q 0.06201,0 0.58291,-1.17822 0.520898,-1.17823 1.029394,-1.67432 0.508497,-0.49609 1.0542,-0.49609 0.421679,0 0.632519,0.14883 0.223242,0.14882 0.223242,0.33486 0,0.32246 -0.148828,0.5209 -0.148828,0.18603 -0.520898,0.47129 -1.575098,1.20302 -2.282031,2.92695 -0.694532,1.72392 -0.694532,2.86494 0,0.5333 0.136426,0.73174 0.148828,0.18603 0.694531,0.32246 0.545704,0.12402 0.706934,0.27285 0.16123,0.14883 0.16123,0.34727 0,0.35966 -0.434082,0.35966 -0.347265,0 -0.967382,-0.12402 -0.607715,-0.11162 -1.314649,-0.11162 -0.471289,0 -0.95498,0.11162 -0.483692,0.12402 -0.620117,0.12402 -0.347266,0 -0.558106,-0.13642 -0.21084,-0.12402 -0.21084,-0.32246 0,-0.14883 0.111621,-0.26045 0.124024,-0.12402 0.669727,-0.31006 0.545703,-0.18603 0.669726,-0.37207 0.124024,-0.18604 0.124024,-1.16582 v -3.78272 q 0,-0.35966 -0.173633,-0.64492 -0.16123,-0.28525 -0.669726,-0.43408 -0.496094,-0.16123 -0.595313,-0.27285 -0.08682,-0.11162 -0.08682,-0.24805 0,-0.40927 0.58291,-0.40927 0.16123,0 0.533301,0.062 0.384472,0.062 0.5333,0.062 0.124024,0 0.396875,-0.0496 0.285254,-0.0496 0.669727,-0.0496 0.669726,0 0.669726,1.42627 z"
           style="font-style:normal;font-variant:normal;font-weight:normal;font-stretch:normal;font-size:25.39999962px;font-family:'Poor Richard';-inkscape-font-specification:'Poor Richard, Normal';font-variant-ligatures:normal;font-variant-caps:normal;font-variant-numeric:normal;font-feature-settings:normal;text-align:start;writing-mode:lr-tb;text-anchor:start;fill:#ffffff;stroke-width:0.26458332"
           id="path1891"
           inkscape:connector-curvature="0" />
        <path
           d="m 56.886126,258.45402 q 0.570507,0 0.979785,0.42168 0.421679,0.40927 0.421679,0.97978 0,0.5085 -0.409277,0.86817 -0.409277,0.34726 -0.967383,0.34726 -0.558105,0 -0.967383,-0.38447 -0.396875,-0.39688 -0.396875,-0.94258 0,-0.5209 0.396875,-0.90537 0.409278,-0.38447 0.942579,-0.38447 z m 0.992187,10.79004 q 0,0.60771 0.223242,0.79375 0.223242,0.18603 0.595313,0.24804 0.37207,0.0496 0.520898,0.14883 0.161231,0.0992 0.161231,0.40928 0,0.40927 -0.719336,0.40927 -0.310059,0 -0.930176,-0.0744 -0.620117,-0.0744 -0.917774,-0.0744 -0.297656,0 -0.868164,0.0992 -0.570507,0.0992 -0.855761,0.0992 -0.285254,0 -0.496094,-0.16123 -0.198438,-0.16123 -0.198438,-0.42168 0,-0.16123 0.111622,-0.27285 0.111621,-0.12402 0.570507,-0.19843 0.458887,-0.0744 0.63252,-0.29766 0.186035,-0.22324 0.186035,-1.07901 v -4.19199 q 0,-0.5333 -0.223242,-0.70693 -0.223242,-0.17363 -0.657324,-0.26045 -0.434082,-0.0868 -0.545703,-0.22324 -0.09922,-0.13643 -0.09922,-0.33487 0,-0.22324 0.173633,-0.35966 0.186035,-0.14883 0.434082,-0.14883 0.210839,0 0.595312,0.0868 0.396875,0.0868 0.58291,0.0868 0.21084,0 0.644922,-0.062 0.434082,-0.062 0.644922,-0.062 0.458887,0 0.458887,0.76894 0,0.12403 -0.0124,0.33487 -0.0124,0.19843 -0.0124,0.27285 z"
           style="font-style:normal;font-variant:normal;font-weight:normal;font-stretch:normal;font-size:25.39999962px;font-family:'Poor Richard';-inkscape-font-specification:'Poor Richard, Normal';font-variant-ligatures:normal;font-variant-caps:normal;font-variant-numeric:normal;font-feature-settings:normal;text-align:start;writing-mode:lr-tb;text-anchor:start;fill:#ffffff;stroke-width:0.26458332"
           id="path1893"
           inkscape:connector-curvature="0" />
        <path
           d="m 69.995404,269.4549 q 0,0.5333 0.173632,0.70693 0.186035,0.16123 0.644922,0.27285 0.471289,0.0992 0.471289,0.38447 0,0.38448 -0.458886,0.38448 -0.08682,0 -0.744141,-0.0372 -0.657324,-0.0372 -1.103809,-0.0372 -0.74414,0 -1.252636,0.0868 -0.508496,0.0868 -0.657325,0.0868 -0.223242,0 -0.421679,-0.14882 -0.186035,-0.14883 -0.186035,-0.35967 0,-0.16123 0.16123,-0.29766 0.161231,-0.14883 0.37207,-0.14883 0.396875,0 0.706934,-0.22324 0.310059,-0.23564 0.310059,-0.69453 0,-2.98896 0.03721,-3.6959 0.03721,-0.71933 0.03721,-0.80615 0,-0.96738 -0.892969,-0.96738 -0.384473,0 -1.103809,0.59531 -0.706933,0.58291 -1.00459,0.58291 -0.09922,0 -0.223242,-0.12402 -0.124023,-0.12403 -0.124023,-0.26045 0,-0.43409 1.141015,-1.32705 1.141016,-0.90538 2.232422,-0.90538 0.644922,0 1.116211,0.33487 0.471289,0.32246 0.620117,0.81855 0.161231,0.4961 0.161231,1.40147 l -0.0124,0.79375 z m -7.602637,-4.77491 q 0,-0.45888 -0.186035,-0.68213 -0.173633,-0.23564 -0.744141,-0.33486 -0.570508,-0.0992 -0.570508,-0.5085 0,-0.17363 0.198438,-0.33486 0.198437,-0.17363 0.520898,-0.17363 0.136426,0 0.471289,0.0868 0.347266,0.0868 0.570508,0.0868 0.136426,0 0.620117,-0.0744 0.496094,-0.0744 0.620117,-0.0744 0.248047,0 0.347266,0.21084 0.09922,0.19844 0.111621,0.81856 0.02481,1.02939 0.02481,2.19521 l -0.07441,3.53467 q 0,0.38447 0.06201,0.47129 0.06201,0.0868 0.285253,0.22324 0.235645,0.13643 0.595313,0.21084 0.359668,0.0744 0.458887,0.21084 0.09922,0.12402 0.09922,0.29766 0,0.40927 -0.644921,0.40927 -0.446485,0 -0.917774,-0.0744 -0.471289,-0.0744 -0.930176,-0.0744 -0.37207,0 -0.967382,0.062 -0.582911,0.062 -0.868165,0.062 -0.632519,0 -0.632519,-0.45889 0,-0.19843 0.111621,-0.32246 0.111621,-0.12402 0.483691,-0.14883 0.42168,-0.0248 0.520899,-0.12402 0.285254,-0.29766 0.359668,-0.5209 0.07441,-0.22324 0.07441,-0.91777 z"
           style="font-style:normal;font-variant:normal;font-weight:normal;font-stretch:normal;font-size:25.39999962px;font-family:'Poor Richard';-inkscape-font-specification:'Poor Richard, Normal';font-variant-ligatures:normal;font-variant-caps:normal;font-variant-numeric:normal;font-feature-settings:normal;text-align:start;writing-mode:lr-tb;text-anchor:start;fill:#ffffff;stroke-width:0.26458332"
           id="path1895"
           inkscape:connector-curvature="0" />
      </g>
      <path
         style="opacity:1;fill:#ff4b27;fill-opacity:1;fill-rule:evenodd;stroke:none;stroke-width:0.14696686;stroke-linecap:round;stroke-linejoin:round;stroke-miterlimit:4;stroke-dasharray:none;stroke-dashoffset:0;stroke-opacity:1;paint-order:stroke fill markers"
         d="m 58.71934,260.16061 a 1.5309048,1.5309089 0 0 1 -2.123063,0.33688 1.5309048,1.5309089 0 0 1 -0.36694,-2.11808 1.5309048,1.5309089 0 0 1 2.112658,-0.39694 1.5309048,1.5309089 0 0 1 0.426848,2.10683"
         id="path950"
         inkscape:connector-curvature="0" />
      <g
         transform="translate(0.62362073,-0.62362086)"
         style="fill:#ff4b27;fill-opacity:1"
         id="g1220">
        <path
           style="fill:#ff4b27;fill-opacity:1;stroke:#ff4b27;stroke-width:0.26458332px;stroke-linecap:butt;stroke-linejoin:miter;stroke-opacity:1"
           d="m 21.779512,260.39226 c 1.53079,1.49411 3.192395,0.7348 4.195771,-0.27827 1.18141,-1.2427 1.348716,-1.80107 1.379636,-2.91065 0.03092,-1.10957 -0.54548,-2.96395 -0.906587,-3.52393 -0.883112,-1.51186 -2.144757,-2.43197 -3.55489,-1.83318 -2.654256,1.297 -4.387172,4.55534 -4.8801,6.86954 1.177516,-0.58664 2.107051,0.003 3.76617,1.67649 z"
           id="path4715"
           inkscape:connector-curvature="0"
           sodipodi:nodetypes="cczcccc" />
        <path
           sodipodi:nodetypes="czccsc"
           inkscape:connector-curvature="0"
           id="path4717"
           d="m 10.648899,260.02024 c -1.2488367,-1.17493 -1.4357226,-2.28943 -1.5284374,-3.39556 -0.092711,-1.10613 0.3674895,-1.9794 0.6968246,-2.55864 0.7974778,-1.55872 1.9001438,-2.67136 4.0029088,-1.34367 1.113129,0.74954 5.000801,3.46357 3.648461,4.82991 -1.189358,1.20167 -4.447308,4.59913 -6.819757,2.46796 z"
           style="fill:#ff4b27;fill-opacity:1;stroke:#ff4b27;stroke-width:0.26458332px;stroke-linecap:butt;stroke-linejoin:miter;stroke-opacity:1" />
        <path
           sodipodi:nodetypes="cccccccccsc"
           inkscape:connector-curvature="0"
           id="path4719"
           d="m 14.581466,246.2865 c -0.557911,0.41191 -0.900866,0.99013 -0.911566,1.75605 0.01303,0.33397 -0.06483,-0.33052 0,0 0,0 -0.13586,2.21685 1.456469,4.16646 0.33624,0.48692 1.828399,1.89675 2.877515,2.65279 1.509652,-0.9739 2.457349,-2.14266 2.805059,-2.58848 2.374676,-2.45064 3.194628,-5.65527 -0.746318,-6.59445 -0.318701,-0.0806 -0.953168,-0.1094 -1.638839,-0.0726 -0.680553,-0.0988 -1.316641,-0.12713 -1.641737,-0.0756 -0.869843,0.0988 -1.642654,0.34395 -2.20055,0.75589 z"
           style="fill:#ff4b27;fill-opacity:1;stroke:#ff4b27;stroke-width:0.26458332px;stroke-linecap:butt;stroke-linejoin:miter;stroke-opacity:1" />
        <path
           sodipodi:open="true"
           d="m -122.11622,227.20654 a 20.138382,20.166334 0 0 1 -0.75773,5.46174"
           sodipodi:end="0.27519053"
           sodipodi:start="0.00089555039"
           sodipodi:ry="20.166334"
           sodipodi:rx="20.138382"
           sodipodi:cy="227.18848"
           sodipodi:cx="-142.25459"
           sodipodi:type="arc"
           transform="matrix(-0.91263421,-0.40877721,-0.40878608,0.91263023,0,0)"
           id="path4721"
           style="opacity:1;fill:#ff4b27;fill-opacity:1;fill-rule:evenodd;stroke:#ff4b27;stroke-width:0.5;stroke-linecap:round;stroke-linejoin:round;stroke-miterlimit:4;stroke-dasharray:none;stroke-dashoffset:0;stroke-opacity:1;paint-order:normal" />
      </g>
    </g>
  </g>
  <g
     inkscape:groupmode="layer"
     id="layer2"
     inkscape:label="Layer 2"
     style="display:none">
    <g
       id="g4664"
       transform="translate(-5.479737,-222.95405)">
      <path
         style="opacity:1;fill:none;fill-opacity:1;fill-rule:evenodd;stroke:#ff4b27;stroke-width:0.5;stroke-linecap:round;stroke-linejoin:round;stroke-miterlimit:4;stroke-dasharray:none;stroke-dashoffset:0;stroke-opacity:1;paint-order:normal"
         id="path4644"
         transform="matrix(-0.9999948,0.00322427,0.00321455,0.99999483,0,0)"
         sodipodi:type="arc"
         sodipodi:cx="-26.327461"
         sodipodi:cy="270.04752"
         sodipodi:rx="20.138382"
         sodipodi:ry="20.166334"
         sodipodi:start="5.5793478"
         sodipodi:end="0.50646169"
         d="m -10.974676,256.99691 a 20.138382,20.166334 0 0 1 2.2575524,22.83302"
         sodipodi:open="true" />
      <path
         sodipodi:nodetypes="ccccscssscscscccszsccccsscz"
         inkscape:connector-curvature="0"
         id="path4642"
         d="m 10.351316,258.553 c 0,0 3.27312,-1.28132 4.206921,-0.51612 1.330392,0.91359 1.799085,1.30559 1.799085,1.30559 2.947886,2.41034 7.330393,0.35682 5.632261,-2.65758 -1.69515,-1.14081 -0.842675,-1.54738 0.02946,-2.2934 0.812485,-0.69499 1.0444,-1.49075 1.088502,-1.91175 0.293637,-2.80318 -4.776157,-1.23914 -7.13954,0.47665 -0.467423,0.33934 -1.28485,0.93409 -2.024512,1.56411 -1.155056,0.98383 -2.090647,2.00887 -2.593221,2.58501 0,0 -1.5283092,1.97626 -0.998956,1.44749 z m -4.756741,1.77804 c 0.757655,-0.15241 1.4428029,-0.38218 2.4993353,-0.83494 0.9362365,-0.5275 1.9981497,-1.12532 2.3657327,-1.68812 0.770595,-1.17984 0.181477,-2.90189 -0.106294,-3.93201 -1.2465856,-4.23517 -2.1748601,-3.29752 -3.4749941,-2.05903 -1.360963,1.1766 -2.7311282,4.8372 -2.7788492,6.27286 -0.03401,1.02311 0.2701668,2.48763 1.4950693,2.24124 z m 7.131807,-5.37371 c 0.484239,-0.42964 1.919636,-1.63501 2.798713,-2.26162 1.221258,-0.98739 4.01552,-1.56848 3.437594,-4.20257 -0.350279,-0.9086 -2.353123,-1.55437 -3.276792,-0.34341 -1.168493,0.973 -1.44287,0.99525 -2.584032,-0.25582 -0.348514,-0.42244 -1.411393,-0.60205 -2.425724,0.41196 -0.868743,0.76167 -0.8349993,1.90324 -0.569101,2.85595 0.230339,0.8253 0.649798,2.25544 0.769511,2.61109 0.347762,1.03314 0.513756,2.59479 0.513756,2.59479 0,0 0.851836,-0.98073 1.336075,-1.41037 z"
         style="fill:#ff4b27;fill-opacity:1;stroke-width:0.26458335" />
    </g>
    <g
       id="g1269"
       transform="translate(77.852663,-218.9207)">
      <path
         sodipodi:open="true"
         d="m -148.72829,208.42217 a 20.138382,20.166334 0 0 1 -13.06176,18.86218"
         sodipodi:end="1.2117305"
         sodipodi:start="0.00089555039"
         sodipodi:ry="20.166334"
         sodipodi:rx="20.138382"
         sodipodi:cy="208.40411"
         sodipodi:cx="-168.86667"
         sodipodi:type="arc"
         transform="matrix(-0.71205166,-0.70212708,-0.702134,0.71204484,0,0)"
         id="path4666"
         style="opacity:1;fill:none;fill-opacity:1;fill-rule:evenodd;stroke:#ff4b27;stroke-width:0.5;stroke-linecap:round;stroke-linejoin:round;stroke-miterlimit:4;stroke-dasharray:none;stroke-dashoffset:0;stroke-opacity:1;paint-order:normal" />
      <path
         style="fill:#ff4b27;fill-opacity:1;stroke:#ff4b27;stroke-width:0.26458332px;stroke-linecap:butt;stroke-linejoin:miter;stroke-opacity:1"
         d="m -39.16304,257.59493 c 0.911617,1.93511 2.733845,1.80483 4.028147,1.20663 1.541404,-0.75108 1.893415,-1.21568 2.310418,-2.24438 0.417002,-1.0287 0.525501,-2.96756 0.383031,-3.61847 -0.298631,-1.72523 -1.158833,-3.02846 -2.689332,-2.96062 -2.940237,0.28687 -5.703219,2.73344 -6.974332,4.72913 1.308319,-0.1378 1.973039,0.73945 2.942068,2.88771 z"
         id="path4676"
         inkscape:connector-curvature="0"
         sodipodi:nodetypes="cczcccc" />
      <path
         sodipodi:nodetypes="cczcccc"
         inkscape:connector-curvature="0"
         id="path4702"
         d="m -45.692746,255.28126 c -1.905425,0.97214 -3.266594,-0.24635 -3.923874,-1.51167 -0.759089,-1.53748 -0.753039,-2.12034 -0.453069,-3.18905 0.29997,-1.0687 1.401037,-2.66827 1.912145,-3.09576 1.292231,-1.18141 2.770197,-1.68537 3.938906,-0.69484 2.149375,2.02669 2.836538,5.65265 2.620015,8.00884 -0.950194,-0.90984 -2.012823,-0.62307 -4.094123,0.48248 z"
         style="fill:#ff4b27;fill-opacity:1;stroke:#ff4b27;stroke-width:0.26458332px;stroke-linecap:butt;stroke-linejoin:miter;stroke-opacity:1" />
      <path
         sodipodi:nodetypes="scccccccccccs"
         inkscape:connector-curvature="0"
         id="path4710"
         d="m -41.375105,242.69513 c -0.659018,0.21594 -1.166159,0.65727 -1.416765,1.38111 -0.09247,0.32117 0.04221,-0.33417 0,0 0,0 -0.824937,2.06212 0.07485,4.41305 0.38322,1.4797 1.049346,2.845 1.749788,3.81364 0.04003,-0.14318 0.09053,-0.27213 0.149452,-0.39161 -0.03564,0.12838 -0.08392,0.25813 -0.149452,0.39161 1.167826,-0.25586 2.574178,-0.83035 3.845844,-1.67885 2.542696,-0.95615 2.994986,-3.24082 2.994986,-3.24082 0.590578,-1.4136 -0.336959,-2.66998 -1.853903,-3.54432 -0.277298,-0.17654 -0.870635,-0.4031 -1.533189,-0.58343 -0.615118,-0.3075 -1.210165,-0.53405 -1.535005,-0.58718 -0.856896,-0.17923 -1.667587,-0.18913 -2.326604,0.0268 z"
         style="fill:#ff4b27;fill-opacity:1;stroke:#ff4b27;stroke-width:0.26458332px;stroke-linecap:butt;stroke-linejoin:miter;stroke-opacity:1" />
    </g>
    <g
       id="g1275"
       transform="translate(124.41634,-196.47035)">
      <path
         style="fill:#ff4b27;fill-opacity:1;stroke:#ff4b27;stroke-width:0.26458332px;stroke-linecap:butt;stroke-linejoin:miter;stroke-opacity:1"
         d="m -70.576112,228.30755 c 0.08689,-1.48291 0.610225,-3.1656 1.252513,-4.05153 0.918679,-1.39069 2.684358,-0.50873 3.554743,0.64502 l 0.942173,1.26776 c 0.504905,0.67938 1.109067,2.48588 1.202392,2.9418 -7.238566,5.02806 -7.038718,0.67988 -6.951823,-0.80304 z"
         id="path4704"
         inkscape:connector-curvature="0"
         sodipodi:nodetypes="cccsczc" />
      <path
         sodipodi:nodetypes="cczcccc"
         inkscape:connector-curvature="0"
         id="path4706"
         d="m -60.623407,233.92973 c 0.911617,1.93511 2.733845,1.80483 4.028147,1.20663 1.541404,-0.75108 1.893415,-1.21568 2.310418,-2.24438 0.417002,-1.0287 0.525501,-2.96756 0.383031,-3.61847 -0.298631,-1.72523 -1.158833,-3.02846 -2.689332,-2.96062 -2.940237,0.28687 -5.703219,2.73344 -6.974332,4.72913 1.308319,-0.1378 1.973039,0.73945 2.942068,2.88771 z"
         style="fill:#ff4b27;fill-opacity:1;stroke:#ff4b27;stroke-width:0.26458332px;stroke-linecap:butt;stroke-linejoin:miter;stroke-opacity:1" />
      <path
         sodipodi:nodetypes="zccccz"
         inkscape:connector-curvature="0"
         id="path4708"
         d="m -63.839243,224.9435 c -0.476357,-1.11651 -1.342534,-3.10633 0.528221,-4.92172 0.989065,-0.66614 5.89641,-0.37836 7.0844,1.57652 0.284223,2.49627 -3.204591,3.72931 -4.606058,4.92258 -0.582761,0.52461 -1.67624,1.70081 -1.67624,1.70081 0,0 -0.853965,-2.16168 -1.330323,-3.27819 z"
         style="fill:#ff4b27;fill-opacity:1;stroke:#ff4b27;stroke-width:0.26458332px;stroke-linecap:butt;stroke-linejoin:miter;stroke-opacity:1"
         inkscape:transform-center-x="5.269962"
         inkscape:transform-center-y="0.85926772" />
      <path
         style="opacity:1;fill:none;fill-opacity:1;fill-rule:evenodd;stroke:#ff4b27;stroke-width:0.5;stroke-linecap:round;stroke-linejoin:round;stroke-miterlimit:4;stroke-dasharray:none;stroke-dashoffset:0;stroke-opacity:1;paint-order:normal"
         id="path4723"
         transform="matrix(-0.71205166,-0.70212708,-0.702134,0.71204484,0,0)"
         sodipodi:type="arc"
         sodipodi:cx="-137.09937"
         sodipodi:cy="209.12683"
         sodipodi:rx="20.138382"
         sodipodi:ry="20.166334"
         sodipodi:start="0.00089555039"
         sodipodi:end="1.2117305"
         d="m -116.96099,209.14489 a 20.138382,20.166334 0 0 1 -13.06175,18.86218"
         sodipodi:open="true" />
    </g>
    <g
       id="g4851"
       transform="matrix(0.35680317,-0.3502724,0.3502724,0.35680317,-40.313355,-117.32491)">
      <g
         transform="translate(-39.099025,17.197692)"
         id="g4793">
        <g
           id="g4784"
           transform="translate(7.3795121,-3.1700721)">
          <rect
             y="267.97763"
             x="-32.830486"
             height="19.049459"
             width="19.078318"
             id="rect4747"
             style="fill:#ff0000;fill-opacity:1;stroke:#ff2a2a;stroke-width:0.93600124;stroke-miterlimit:4;stroke-dasharray:none;stroke-opacity:1" />
          <g
             id="g4777">
            <rect
               y="277.73651"
               x="-33.064491"
               height="9.5245781"
               width="9.5390072"
               id="rect4768"
               style="fill:#ffffff;fill-opacity:1;stroke:#ffffff;stroke-width:0.46799317;stroke-miterlimit:4;stroke-dasharray:none;stroke-opacity:1" />
            <rect
               style="fill:#ffffff;fill-opacity:1;stroke:#ffffff;stroke-width:0.49395463;stroke-miterlimit:4;stroke-dasharray:none;stroke-opacity:1"
               id="rect4770"
               width="10.068174"
               height="10.052945"
               x="-33.064491"
               y="267.68277" />
            <rect
               y="267.68518"
               x="-22.9939"
               height="9.5197439"
               width="9.7420464"
               id="rect4772"
               style="fill:#ffffff;fill-opacity:1;stroke:#ffffff;stroke-width:0.47282755;stroke-miterlimit:4;stroke-dasharray:none;stroke-opacity:1" />
          </g>
        </g>
        <ellipse
           style="fill:#ff0000;fill-opacity:1;stroke:#ff0000;stroke-width:5.11478853;stroke-miterlimit:4;stroke-dasharray:none;stroke-opacity:1"
           id="path4745"
           cx="-15.922388"
           cy="274.25787"
           rx="7.4426055"
           ry="7.442606" />
      </g>
      <g
         id="g4809"
         transform="matrix(-1,0,0,1,-47.883643,16.609737)">
        <g
           transform="translate(7.3795121,-3.1700721)"
           id="g4805">
          <rect
             style="fill:#ff0000;fill-opacity:1;stroke:#ff2a2a;stroke-width:0.93600124;stroke-miterlimit:4;stroke-dasharray:none;stroke-opacity:1"
             id="rect4795"
             width="19.078318"
             height="19.049459"
             x="-32.830486"
             y="267.97763" />
          <g
             id="g4803">
            <rect
               style="fill:#ffffff;fill-opacity:1;stroke:#ffffff;stroke-width:0.46799317;stroke-miterlimit:4;stroke-dasharray:none;stroke-opacity:1"
               id="rect4797"
               width="9.5390072"
               height="9.5245781"
               x="-33.064491"
               y="277.73651" />
            <rect
               y="267.68277"
               x="-33.064491"
               height="10.052945"
               width="10.068174"
               id="rect4799"
               style="fill:#ffffff;fill-opacity:1;stroke:#ffffff;stroke-width:0.49395463;stroke-miterlimit:4;stroke-dasharray:none;stroke-opacity:1" />
            <rect
               style="fill:#ffffff;fill-opacity:1;stroke:#ffffff;stroke-width:0.47282755;stroke-miterlimit:4;stroke-dasharray:none;stroke-opacity:1"
               id="rect4801"
               width="9.7420464"
               height="9.5197439"
               x="-22.9939"
               y="267.68518" />
          </g>
        </g>
        <ellipse
           ry="7.442606"
           rx="7.4426055"
           cy="274.25787"
           cx="-15.922388"
           id="ellipse4807"
           style="fill:#ff0000;fill-opacity:1;stroke:#ff0000;stroke-width:5.11478853;stroke-miterlimit:4;stroke-dasharray:none;stroke-opacity:1" />
      </g>
      <g
         transform="rotate(-180,-23.721339,294.20843)"
         id="g4825">
        <g
           id="g4821"
           transform="translate(7.3795121,-3.1700721)">
          <rect
             y="267.97763"
             x="-32.830486"
             height="19.049459"
             width="19.078318"
             id="rect4811"
             style="fill:#ff0000;fill-opacity:1;stroke:#ff2a2a;stroke-width:0.93600124;stroke-miterlimit:4;stroke-dasharray:none;stroke-opacity:1" />
          <g
             id="g4819">
            <rect
               y="277.73651"
               x="-33.064491"
               height="9.5245781"
               width="9.5390072"
               id="rect4813"
               style="fill:#ffffff;fill-opacity:1;stroke:#ffffff;stroke-width:0.46799317;stroke-miterlimit:4;stroke-dasharray:none;stroke-opacity:1" />
            <rect
               style="fill:#ffffff;fill-opacity:1;stroke:#ffffff;stroke-width:0.49395463;stroke-miterlimit:4;stroke-dasharray:none;stroke-opacity:1"
               id="rect4815"
               width="10.068174"
               height="10.052945"
               x="-33.064491"
               y="267.68277" />
            <rect
               y="267.68518"
               x="-22.9939"
               height="9.5197439"
               width="9.7420464"
               id="rect4817"
               style="fill:#ffffff;fill-opacity:1;stroke:#ffffff;stroke-width:0.47282755;stroke-miterlimit:4;stroke-dasharray:none;stroke-opacity:1" />
          </g>
        </g>
        <ellipse
           style="fill:#ff0000;fill-opacity:1;stroke:#ff0000;stroke-width:5.11478853;stroke-miterlimit:4;stroke-dasharray:none;stroke-opacity:1"
           id="ellipse4823"
           cx="-15.922388"
           cy="274.25787"
           rx="7.4426055"
           ry="7.442606" />
      </g>
    </g>
    <g
       id="g5133"
       transform="translate(3.3703744,-288.12633)">
      <g
         id="g5107"
         transform="matrix(0,-1,-1,0,310.67675,310.91882)">
        <g
           id="g5103">
          <rect
             transform="rotate(135.52919)"
             style="fill:#ff4b27;fill-opacity:1;stroke:#ff4b27;stroke-width:0.46799994;stroke-miterlimit:4;stroke-dasharray:none;stroke-opacity:1"
             id="rect5093"
             width="9.5391445"
             height="9.5247154"
             x="183.46254"
             y="-231.60669" />
          <g
             transform="translate(77.698296,-18.079625)"
             id="g5101">
            <rect
               style="fill:#ffffff;fill-opacity:1;stroke:#ffffff;stroke-width:0.24615736;stroke-miterlimit:4;stroke-dasharray:none;stroke-opacity:1"
               id="rect5095"
               width="5.017374"
               height="5.0097847"
               x="251.07346"
               y="-185.31914"
               transform="rotate(135.52919)" />
            <rect
               y="-190.60825"
               x="251.33089"
               height="5.2739711"
               width="5.2819605"
               id="rect5097"
               style="fill:#ffffff;fill-opacity:1;stroke:#ffffff;stroke-width:0.25913826;stroke-miterlimit:4;stroke-dasharray:none;stroke-opacity:1"
               transform="rotate(135.52919)" />
            <rect
               style="fill:#ffffff;fill-opacity:1;stroke:#ffffff;stroke-width:0.25100744;stroke-miterlimit:4;stroke-dasharray:none;stroke-opacity:1"
               id="rect5099"
               width="5.1717081"
               height="5.0536952"
               x="256.33926"
               y="-190.68219"
               transform="rotate(135.52919)" />
          </g>
        </g>
        <ellipse
           ry="3.7212975"
           rx="3.7212973"
           cy="-226.85109"
           cx="188.22713"
           id="ellipse5105"
           style="fill:#ff4b27;fill-opacity:1;stroke:#ff4b27;stroke-width:2.55699992;stroke-miterlimit:4;stroke-dasharray:none;stroke-opacity:1"
           transform="rotate(135.52919)" />
      </g>
      <g
         transform="matrix(-1,0,0,1,33.979975,0)"
         id="g5091">
        <g
           id="g5087">
          <rect
             y="-231.60669"
             x="183.46254"
             height="9.5247154"
             width="9.5391445"
             id="rect5077"
             style="fill:#ff4b27;fill-opacity:1;stroke:#ff4b27;stroke-width:0.46799994;stroke-miterlimit:4;stroke-dasharray:none;stroke-opacity:1"
             transform="rotate(135.52919)" />
          <g
             id="g5085"
             transform="translate(77.698296,-18.079625)">
            <rect
               transform="rotate(135.52919)"
               y="-185.31914"
               x="251.07346"
               height="5.0097847"
               width="5.017374"
               id="rect5079"
               style="fill:#ffffff;fill-opacity:1;stroke:#ffffff;stroke-width:0.24615736;stroke-miterlimit:4;stroke-dasharray:none;stroke-opacity:1" />
            <rect
               transform="rotate(135.52919)"
               style="fill:#ffffff;fill-opacity:1;stroke:#ffffff;stroke-width:0.25913826;stroke-miterlimit:4;stroke-dasharray:none;stroke-opacity:1"
               id="rect5081"
               width="5.2819605"
               height="5.2739711"
               x="251.33089"
               y="-190.60825" />
            <rect
               transform="rotate(135.52919)"
               y="-190.68219"
               x="256.33926"
               height="5.0536952"
               width="5.1717081"
               id="rect5083"
               style="fill:#ffffff;fill-opacity:1;stroke:#ffffff;stroke-width:0.25100744;stroke-miterlimit:4;stroke-dasharray:none;stroke-opacity:1" />
          </g>
        </g>
        <ellipse
           transform="rotate(135.52919)"
           style="fill:#ff4b27;fill-opacity:1;stroke:#ff4b27;stroke-width:2.55699992;stroke-miterlimit:4;stroke-dasharray:none;stroke-opacity:1"
           id="ellipse5089"
           cx="188.22713"
           cy="-226.85109"
           rx="3.7212973"
           ry="3.7212975" />
      </g>
      <g
         id="g5075">
        <g
           id="g5066">
          <rect
             transform="rotate(135.52919)"
             style="fill:#ff4b27;fill-opacity:1;stroke:#ff4b27;stroke-width:0.46799994;stroke-miterlimit:4;stroke-dasharray:none;stroke-opacity:1"
             id="rect4885"
             width="9.5391445"
             height="9.5247154"
             x="183.46254"
             y="-231.60669" />
          <g
             transform="translate(77.698296,-18.079625)"
             id="g4945">
            <rect
               style="fill:#ffffff;fill-opacity:1;stroke:#ffffff;stroke-width:0.24615736;stroke-miterlimit:4;stroke-dasharray:none;stroke-opacity:1"
               id="rect4887"
               width="5.017374"
               height="5.0097847"
               x="251.07346"
               y="-185.31914"
               transform="rotate(135.52919)" />
            <rect
               y="-190.60825"
               x="251.33089"
               height="5.2739711"
               width="5.2819605"
               id="rect4889"
               style="fill:#ffffff;fill-opacity:1;stroke:#ffffff;stroke-width:0.25913826;stroke-miterlimit:4;stroke-dasharray:none;stroke-opacity:1"
               transform="rotate(135.52919)" />
            <rect
               style="fill:#ffffff;fill-opacity:1;stroke:#ffffff;stroke-width:0.25100744;stroke-miterlimit:4;stroke-dasharray:none;stroke-opacity:1"
               id="rect4891"
               width="5.1717081"
               height="5.0536952"
               x="256.33926"
               y="-190.68219"
               transform="rotate(135.52919)" />
          </g>
        </g>
        <ellipse
           ry="3.7212975"
           rx="3.7212973"
           cy="-226.85109"
           cx="188.22713"
           id="ellipse4897"
           style="fill:#ff4b27;fill-opacity:1;stroke:#ff4b27;stroke-width:2.55699992;stroke-miterlimit:4;stroke-dasharray:none;stroke-opacity:1"
           transform="rotate(135.52919)" />
      </g>
    </g>
    <g
       id="g1263"
       transform="translate(76.60542,-314.95829)">
      <path
         d="m 21.748301,343.37654 a 15,15 0 0 1 -20.2311623,-5.72388 15,15 0 0 1 5.3661359,-20.32897 15,15 0 0 1 20.4204634,5.00673 15,15 0 0 1 -4.645762,20.50559"
         sodipodi:open="true"
         sodipodi:end="0.99937789"
         sodipodi:start="1.0699356"
         sodipodi:ry="15"
         sodipodi:rx="15"
         sodipodi:cy="330.21899"
         sodipodi:cx="14.54559"
         sodipodi:type="arc"
         id="path1130"
         style="opacity:1;fill:#cccccc;fill-opacity:1;stroke:none;stroke-width:0.21639121;stroke-miterlimit:4;stroke-dasharray:none;stroke-opacity:1" />
      <path
         style="fill:#ff4b27;fill-opacity:1;stroke:#ff4b27;stroke-width:0.23399436;stroke-miterlimit:4;stroke-dasharray:none;stroke-opacity:1"
         d="m 8.3321094,334.0356 4.6007846,1.25718 1.255276,-4.59383 -4.6007851,-1.25718 z"
         id="path1090"
         inkscape:connector-curvature="0" />
      <g
         id="g1214">
        <path
           inkscape:connector-curvature="0"
           id="path1100"
           d="m 12.973065,335.44897 a 4.9920025,4.9920028 15.28314 0 0 -3.4996158,-6.1313 4.9920025,4.9920028 15.28314 0 0 -6.1312946,3.49962 4.9920025,4.9920028 15.28314 0 0 3.499616,6.13129 4.9920025,4.9920028 15.28314 0 0 6.1313034,-3.49962 z"
           style="opacity:1;fill:#ff4b27;fill-opacity:1;stroke:#ff4b27;stroke-width:0;stroke-miterlimit:4;stroke-dasharray:none;stroke-opacity:1" />
        <g
           id="g1108"
           transform="rotate(-119.18767,18.661877,324.0458)">
          <g
             style="fill:url(#linearGradient1653);fill-opacity:1;stroke:none;stroke-width:0.2;stroke-miterlimit:4;stroke-dasharray:none"
             transform="matrix(0,-1,-1,0,329.90703,339.63864)"
             id="g1106">
            <path
               style="fill:url(#linearGradient1651);fill-opacity:1;stroke:none;stroke-width:0.2;stroke-linecap:butt;stroke-linejoin:miter;stroke-miterlimit:4;stroke-dasharray:none;stroke-opacity:1"
               d="m 22.56132,314.89744 c 0,0 2.091551,-2.21997 3.62421,-3.53074 1.532659,-1.31077 2.962255,-1.59078 4.298886,-1.38376 1.33663,0.20702 -5.4424,0.9151 -2.525764,2.48287 -8.411497,3.91272 5.48407,1.91118 -0.724114,4.99999 -3.113814,1.32969 4.522873,2.33752 2.6948,2.46741 -0.823224,-0.0956 -2.217946,-0.0358 -3.809018,-1.50706 -0.836318,-0.77332 -1.353118,-1.27795 -2.468062,-2.37801 -0.637255,-0.62875 -1.090936,-1.15071 -1.090936,-1.15071 z"
               id="path1104"
               inkscape:connector-curvature="0"
               sodipodi:nodetypes="czzcccsscc" />
          </g>
        </g>
        <path
           style="fill:url(#radialGradient1118);fill-opacity:1;stroke:none;stroke-width:0.26458332px;stroke-linecap:butt;stroke-linejoin:miter;stroke-opacity:1"
           d="m 4.5409957,338.1007 c -0.6057584,-0.55405 -1.0402523,-0.96519 -1.7618583,-3.16227 -0.7212569,-2.19727 2.0642101,-6.29767 3.5745823,0.42444 2.6282953,1.64896 2.9964282,5.94987 -1.5890748,3.13905 z"
           id="path1110"
           inkscape:connector-curvature="0"
           sodipodi:nodetypes="czccc" />
      </g>
      <path
         inkscape:connector-curvature="0"
         id="path1060"
         d="m 20.710933,334.03463 -1.31263,-4.58527 -4.578338,1.31064 1.31263,4.58528 z"
         style="fill:#ff4b27;fill-opacity:1;stroke:#ff4b27;stroke-width:0.23399436;stroke-miterlimit:4;stroke-dasharray:none;stroke-opacity:1" />
      <g
         id="g1207">
        <path
           style="opacity:1;fill:#ff4b27;fill-opacity:1;stroke:#ff4b27;stroke-width:0;stroke-miterlimit:4;stroke-dasharray:none;stroke-opacity:1"
           d="m 19.510977,329.33397 a 4.9920025,4.9920028 74.02513 0 0 -3.425346,6.1731 4.9920025,4.9920028 74.02513 0 0 6.173094,3.42534 4.9920025,4.9920028 74.02513 0 0 3.425347,-6.17309 4.9920025,4.9920028 74.02513 0 0 -6.173103,-3.42535 z"
           id="path1070"
           inkscape:connector-curvature="0" />
        <g
           id="g1078"
           transform="rotate(119.55432,10.889238,323.7651)">
          <g
             id="g1076"
             transform="matrix(0,-1,-1,0,329.90703,339.63864)"
             style="fill:url(#linearGradient1657);fill-opacity:1;stroke:none;stroke-width:0.2;stroke-miterlimit:4;stroke-dasharray:none">
            <path
               sodipodi:nodetypes="czzcccsscc"
               inkscape:connector-curvature="0"
               id="path1074"
               d="m 22.56132,314.89744 c 0,0 2.091551,-2.21997 3.62421,-3.53074 1.532659,-1.31077 2.962255,-1.59078 4.298886,-1.38376 1.33663,0.20702 -5.4424,0.9151 -2.525764,2.48287 -8.411497,3.91272 5.48407,1.91118 -0.724114,4.99999 -3.113814,1.32969 4.522873,2.33752 2.6948,2.46741 -0.823224,-0.0956 -2.217946,-0.0358 -3.809018,-1.50706 -0.836318,-0.77332 -1.353118,-1.27795 -2.468062,-2.37801 -0.637255,-0.62875 -1.090936,-1.15071 -1.090936,-1.15071 z"
               style="fill:url(#linearGradient1655);fill-opacity:1;stroke:none;stroke-width:0.2;stroke-linecap:butt;stroke-linejoin:miter;stroke-miterlimit:4;stroke-dasharray:none;stroke-opacity:1" />
          </g>
        </g>
        <path
           sodipodi:nodetypes="czccc"
           inkscape:connector-curvature="0"
           id="path1080"
           d="m 26.153123,335.16607 c -0.159298,0.80532 -0.285307,1.39008 -1.789017,3.14699 -1.504058,1.7567 -6.454605,1.50325 -1.491998,-3.27593 0.0458,-3.10241 3.531357,-5.64881 3.507941,-0.27043 z"
           style="fill:url(#radialGradient1088);fill-opacity:1;stroke:none;stroke-width:0.26458332px;stroke-linecap:butt;stroke-linejoin:miter;stroke-opacity:1" />
      </g>
      <path
         style="fill:#ff4b27;fill-opacity:1;stroke:#ff4b27;stroke-width:0.23399436;stroke-miterlimit:4;stroke-dasharray:none;stroke-opacity:1"
         d="m 14.514048,323.29755 -3.341222,3.40352 3.398374,3.33617 3.341222,-3.40352 z"
         id="path5774"
         inkscape:connector-curvature="0" />
      <g
         id="g1200">
        <path
           inkscape:connector-curvature="0"
           id="path5701"
           d="m 11.016877,326.65997 a 4.9920028,4.9920025 44.47081 0 0 7.059449,-0.0652 4.9920028,4.9920025 44.47081 0 0 -0.0652,-7.05945 4.9920028,4.9920025 44.47081 0 0 -7.05945,0.0652 4.9920028,4.9920025 44.47081 0 0 0.0652,7.05946 z"
           style="opacity:1;fill:#ff4b27;fill-opacity:1;stroke:#ff4b27;stroke-width:0;stroke-miterlimit:4;stroke-dasharray:none;stroke-opacity:1" />
        <g
           id="g1031"
           transform="translate(-0.46400005,13.14166)">
          <g
             style="fill:url(#linearGradient1116);fill-opacity:1;stroke:none;stroke-width:0.2;stroke-miterlimit:4;stroke-dasharray:none"
             transform="matrix(0,-1,-1,0,329.90703,339.63864)"
             id="g5707">
            <path
               style="fill:url(#linearGradient1114);fill-opacity:1;stroke:none;stroke-width:0.2;stroke-linecap:butt;stroke-linejoin:miter;stroke-miterlimit:4;stroke-dasharray:none;stroke-opacity:1"
               d="m 22.56132,314.89744 c 0,0 2.091551,-2.21997 3.62421,-3.53074 1.532659,-1.31077 2.962255,-1.59078 4.298886,-1.38376 1.33663,0.20702 -5.4424,0.9151 -2.525764,2.48287 -8.411497,3.91272 5.48407,1.91118 -0.724114,4.99999 -3.113814,1.32969 4.522873,2.33752 2.6948,2.46741 -0.823224,-0.0956 -2.217946,-0.0358 -3.809018,-1.50706 -0.836318,-0.77332 -1.353118,-1.27795 -2.468062,-2.37801 -0.637255,-0.62875 -1.090936,-1.15071 -1.090936,-1.15071 z"
               id="path5705"
               inkscape:connector-curvature="0"
               sodipodi:nodetypes="czzcccsscc" />
          </g>
        </g>
        <path
           style="fill:url(#radialGradient1045);fill-opacity:1;stroke:none;stroke-width:0.26458332px;stroke-linecap:butt;stroke-linejoin:miter;stroke-opacity:1"
           d="m 12.813924,318.00537 c 0.77911,-0.25865 1.349943,-0.43747 3.619956,0.004 2.270013,0.44187 4.491384,4.87331 -2.11377,2.91372 -2.721335,1.49042 -6.6556693,-0.28562 -1.965526,-2.91813 z"
           id="path1035"
           inkscape:connector-curvature="0"
           sodipodi:nodetypes="czccc" />
      </g>
    </g>
  </g>
</svg>
