<?xml version="1.0" encoding="UTF-8" standalone="no"?>
<svg
   xmlns:dc="http://purl.org/dc/elements/1.1/"
   xmlns:cc="http://creativecommons.org/ns#"
   xmlns:rdf="http://www.w3.org/1999/02/22-rdf-syntax-ns#"
   xmlns:svg="http://www.w3.org/2000/svg"
   xmlns="http://www.w3.org/2000/svg"
   xmlns:sodipodi="http://sodipodi.sourceforge.net/DTD/sodipodi-0.dtd"
   xmlns:inkscape="http://www.inkscape.org/namespaces/inkscape"
   inkscape:version="1.0 (4035a4fb49, 2020-05-01)"
   sodipodi:docname="ceferinBlack.svg"
   id="svg40"
   viewBox="0 0 80 40"
   version="1.1"
   height="40mm"
   width="80mm">
  <defs
     id="defs44" />
  <sodipodi:namedview
     inkscape:current-layer="svg40"
     inkscape:window-maximized="1"
     inkscape:window-y="-8"
     inkscape:window-x="-8"
     inkscape:cy="76.719922"
     inkscape:cx="150.56946"
     inkscape:zoom="1.7346745"
     showgrid="false"
     id="namedview42"
     inkscape:window-height="746"
     inkscape:window-width="1366"
     inkscape:pageshadow="2"
     inkscape:pageopacity="0"
     guidetolerance="10"
     gridtolerance="10"
     objecttolerance="10"
     borderopacity="1"
     bordercolor="#666666"
     pagecolor="#ffffff" />
  <metadata
     id="metadata2">
    <rdf:RDF>
      <cc:Work
         rdf:about="">
        <dc:format>image/svg+xml</dc:format>
        <dc:type
           rdf:resource="http://purl.org/dc/dcmitype/StillImage" />
        <dc:title></dc:title>
      </cc:Work>
    </rdf:RDF>
  </metadata>
  <text
     transform="scale(1.0004101,0.99959008)"
     x="13.451697"
     y="36.374935"
     font-family="'Poor Richard'"
     font-size="23.9998px"
     letter-spacing="0px"
     stroke-width="0.370036"
     word-spacing="0px"
     style="line-height:1.25;font-variant-ligatures:normal;font-variant-caps:normal;font-variant-numeric:normal;font-feature-settings:normal;fill:#000000;stroke:#ff0000;fill-opacity:1;stroke-width:0.05291666;stroke-miterlimit:4;stroke-dasharray:none;"
     xml:space="preserve"
     id="text6"><tspan
       style="fill:#000000;stroke:#ff0000;fill-opacity:1;stroke-width:0.05291666;stroke-miterlimit:4;stroke-dasharray:none;"
       x="13.451697"
       y="36.374935"
       fill="#ff4b27"
       font-size="9.6001px"
       stroke-width="0.370036"
       id="tspan4">Web Solutions</tspan></text>
  <g
     transform="matrix(0.99999,0,0,0.99999,0.5661,-243.1537)"
     stroke-width="0.26458"
     style="font-variant-ligatures:normal;font-variant-caps:normal;font-variant-numeric:normal;font-feature-settings:normal;fill:#000000;stroke:#ff0000"
     aria-label="ceferin"
     id="g22">
    <path
       d="m 15.661,269.5 q 0.34726,0 0.34726,0.58291 0,0.37207 -1.2526,0.96739 -1.2526,0.58291 -2.6293,0.58291 -2.2572,0 -3.8695,-1.3643 -1.6123,-1.3767 -1.6123,-3.4602 0,-1.848 1.5255,-3.2494 1.5255,-1.4015 3.6463,-1.4015 1.141,0 2.5921,0.47129 1.4511,0.47129 1.4511,0.85576 0,0.69453 0.07441,1.1286 0.07441,0.43407 0.07441,0.49609 0,0.55811 -0.5085,0.55811 -0.38447,0 -0.60772,-0.74414 -0.21084,-0.74414 -0.90537,-1.1782 -0.69453,-0.44649 -1.7115,-0.44649 -1.2774,0 -2.3812,0.94258 -1.0914,0.94258 -1.0914,2.6665 0,1.5875 1.2278,2.6045 1.2278,1.0046 2.5549,1.0046 0.48369,0 1.0046,-0.12403 0.5209,-0.12402 1.1534,-0.50849 0.64492,-0.38448 0.91777,-0.38448 z"
       style="font-variant-ligatures:normal;font-variant-caps:normal;font-variant-numeric:normal;font-feature-settings:normal;fill:#000000;stroke:#ff0000"
       id="path8" />
    <path
       d="m 24.652,266.33 q 0.28525,0 0.38447,-0.0992 0.09922,-0.0992 0.09922,-0.35967 0,-0.95498 -0.74414,-1.7859 -0.73174,-0.83096 -2.22,-0.83096 -1.0294,0 -2.1332,0.97979 -1.0914,0.97978 -1.0914,2.7781 0,1.3146 1.1534,2.3688 1.1658,1.0418 2.6045,1.0418 1.0914,0 2.3564,-0.68213 0.48369,-0.26045 0.63252,-0.26045 0.22324,0 0.34726,0.12402 0.13643,0.12403 0.13643,0.31006 0,0.44649 -1.3767,1.1038 -1.3643,0.64492 -2.8153,0.64492 -2.1456,0 -3.6091,-1.4635 -1.4635,-1.4635 -1.4635,-3.4851 0,-1.848 1.5999,-3.1626 1.6123,-1.3146 3.6091,-1.3146 2.5921,0 3.8819,1.327 1.2898,1.327 1.2898,3.175 0,0.39688 -0.19844,0.4961 -0.19844,0.0868 -0.73174,0.0868 h -5.6927 q -0.69453,0 -0.69453,-0.50849 0,-0.4837 0.71934,-0.4837 z"
       style="font-variant-ligatures:normal;font-variant-caps:normal;font-variant-numeric:normal;font-feature-settings:normal;fill:#000000;stroke:#ff0000"
       id="path10" />
    <path
       d="m 29.874,259.14 q 0,-1.3891 0.28525,-2.2696 0.28525,-0.89297 0.95498,-1.6495 0.68213,-0.76894 1.5627,-1.3146 0.88057,-0.55811 1.141,-0.55811 0.17363,0 0.17363,0.48369 0,0.062 -0.23564,0.24805 -1.1038,0.83096 -1.5131,2.034 -0.40928,1.203 -0.40928,2.6541 v 4.0308 q 0,0.14882 0.19844,0.14882 0.08682,0 0.42168,-0.0372 0.33486,-0.0372 0.64492,-0.0372 0.71934,0 0.71934,0.48369 0,0.23565 -0.23564,0.37207 -0.23564,0.13643 -0.5581,0.13643 -1.1906,0 -1.1906,0.96738 v 4.316 q 0,0.62011 0.11162,0.76894 0.11162,0.13643 0.28525,0.31006 0.18604,0.16123 0.76894,0.23564 0.59531,0.0744 0.73174,0.19844 0.13643,0.12403 0.13643,0.32246 0,0.48369 -0.71934,0.48369 -0.42168,0 -1.0666,-0.13642 -0.63252,-0.12402 -1.265,-0.12402 -0.39688,0 -1.1286,0.12402 -0.71934,0.13642 -0.90537,0.13642 -0.78135,0 -0.78135,-0.5333 0,-0.17363 0.11162,-0.28525 0.11162,-0.11162 0.64492,-0.17363 0.5333,-0.0744 0.78135,-0.23565 0.24805,-0.17363 0.28525,-0.42168 0.04961,-0.26045 0.04961,-1.079 v -3.9812 q 0,-0.89297 -1.1038,-0.89297 -0.85576,0 -0.85576,-0.5333 0,-0.48369 0.86816,-0.48369 0.31006,0 0.59531,0.0372 0.28525,0.0372 0.34726,0.0372 0.14883,0 0.14883,-0.14883 z"
       style="font-variant-ligatures:normal;font-variant-caps:normal;font-variant-numeric:normal;font-feature-settings:normal;fill:#000000;stroke:#ff0000"
       id="path12" />
    <path
       d="m 42.661,266.33 q 0.28525,0 0.38447,-0.0992 0.09922,-0.0992 0.09922,-0.35967 0,-0.95498 -0.74414,-1.7859 -0.73174,-0.83096 -2.22,-0.83096 -1.0294,0 -2.1332,0.97979 -1.0914,0.97978 -1.0914,2.7781 0,1.3146 1.1534,2.3688 1.1658,1.0418 2.6045,1.0418 1.0914,0 2.3564,-0.68213 0.48369,-0.26045 0.63252,-0.26045 0.22324,0 0.34727,0.12402 0.13642,0.12403 0.13642,0.31006 0,0.44649 -1.3767,1.1038 -1.3643,0.64492 -2.8153,0.64492 -2.1456,0 -3.6091,-1.4635 -1.4635,-1.4635 -1.4635,-3.4851 0,-1.848 1.5999,-3.1626 1.6123,-1.3146 3.6091,-1.3146 2.5921,0 3.8819,1.327 1.2898,1.327 1.2898,3.175 0,0.39688 -0.19844,0.4961 -0.19844,0.0868 -0.73174,0.0868 h -5.6927 q -0.69453,0 -0.69453,-0.50849 0,-0.4837 0.71934,-0.4837 z"
       style="font-variant-ligatures:normal;font-variant-caps:normal;font-variant-numeric:normal;font-feature-settings:normal;fill:#000000;stroke:#ff0000"
       id="path14" />
    <path
       d="m 49.767,265.16 0.04961,0.34727 q 0.06201,0 0.58291,-1.1782 0.5209,-1.1782 1.0294,-1.6743 0.5085,-0.49609 1.0542,-0.49609 0.42168,0 0.63252,0.14883 0.22324,0.14882 0.22324,0.33486 0,0.32246 -0.14883,0.5209 -0.14883,0.18603 -0.5209,0.47129 -1.5751,1.203 -2.282,2.927 -0.69453,1.7239 -0.69453,2.8649 0,0.5333 0.13643,0.73174 0.14883,0.18603 0.69453,0.32246 0.5457,0.12402 0.70693,0.27285 0.16123,0.14883 0.16123,0.34727 0,0.35966 -0.43408,0.35966 -0.34726,0 -0.96738,-0.12402 -0.60772,-0.11162 -1.3146,-0.11162 -0.47129,0 -0.95498,0.11162 -0.48369,0.12402 -0.62012,0.12402 -0.34727,0 -0.55811,-0.13642 -0.21084,-0.12402 -0.21084,-0.32246 0,-0.14883 0.11162,-0.26045 0.12402,-0.12402 0.66973,-0.31006 0.5457,-0.18603 0.66973,-0.37207 0.12402,-0.18604 0.12402,-1.1658 v -3.7827 q 0,-0.35966 -0.17363,-0.64492 -0.16123,-0.28525 -0.66973,-0.43408 -0.49609,-0.16123 -0.59531,-0.27285 -0.08682,-0.11162 -0.08682,-0.24805 0,-0.40927 0.58291,-0.40927 0.16123,0 0.5333,0.062 0.38447,0.062 0.5333,0.062 0.12402,0 0.39688,-0.0496 0.28525,-0.0496 0.66973,-0.0496 0.66973,0 0.66973,1.4263 z"
       style="font-variant-ligatures:normal;font-variant-caps:normal;font-variant-numeric:normal;font-feature-settings:normal;fill:#000000;stroke:#ff0000"
       id="path16" />
    <path
       d="m 56.886,258.45 q 0.57051,0 0.97978,0.42168 0.42168,0.40927 0.42168,0.97978 0,0.5085 -0.40928,0.86817 -0.40928,0.34726 -0.96738,0.34726 -0.5581,0 -0.96738,-0.38447 -0.39688,-0.39688 -0.39688,-0.94258 0,-0.5209 0.39688,-0.90537 Q 56.3527,258.45 56.886,258.45 Z m 0.99219,10.79 q 0,0.60771 0.22324,0.79375 0.22324,0.18603 0.59531,0.24804 0.37207,0.0496 0.5209,0.14883 0.16123,0.0992 0.16123,0.40928 0,0.40927 -0.71934,0.40927 -0.31006,0 -0.93018,-0.0744 -0.62012,-0.0744 -0.91777,-0.0744 -0.29766,0 -0.86816,0.0992 -0.57051,0.0992 -0.85576,0.0992 -0.28525,0 -0.49609,-0.16123 -0.19844,-0.16123 -0.19844,-0.42168 0,-0.16123 0.11162,-0.27285 0.11162,-0.12402 0.57051,-0.19843 0.45889,-0.0744 0.63252,-0.29766 0.18604,-0.22324 0.18604,-1.079 v -4.192 q 0,-0.5333 -0.22324,-0.70693 -0.22324,-0.17363 -0.65732,-0.26045 -0.43408,-0.0868 -0.5457,-0.22324 -0.09922,-0.13643 -0.09922,-0.33487 0,-0.22324 0.17363,-0.35966 0.18604,-0.14883 0.43408,-0.14883 0.21084,0 0.59531,0.0868 0.39688,0.0868 0.58291,0.0868 0.21084,0 0.64492,-0.062 0.43408,-0.062 0.64492,-0.062 0.45889,0 0.45889,0.76894 0,0.12403 -0.0124,0.33487 -0.0124,0.19843 -0.0124,0.27285 z"
       style="font-variant-ligatures:normal;font-variant-caps:normal;font-variant-numeric:normal;font-feature-settings:normal;fill:#000000;stroke:#ff0000"
       id="path18" />
    <path
       d="m 69.995,269.45 q 0,0.5333 0.17363,0.70693 0.18604,0.16123 0.64492,0.27285 0.47129,0.0992 0.47129,0.38447 0,0.38448 -0.45889,0.38448 -0.08682,0 -0.74414,-0.0372 -0.65732,-0.0372 -1.1038,-0.0372 -0.74414,0 -1.2526,0.0868 -0.50846,0.0868 -0.65732,0.0868 -0.22324,0 -0.42168,-0.14882 -0.18604,-0.14883 -0.18604,-0.35967 0,-0.16123 0.16123,-0.29766 0.16123,-0.14883 0.37207,-0.14883 0.39688,0 0.70693,-0.22324 0.31006,-0.23564 0.31006,-0.69453 0,-2.989 0.03721,-3.6959 0.03721,-0.71933 0.03721,-0.80615 0,-0.96738 -0.89297,-0.96738 -0.38447,0 -1.1038,0.59531 -0.70693,0.58291 -1.0046,0.58291 -0.09922,0 -0.22324,-0.12402 -0.12402,-0.12403 -0.12402,-0.26045 0,-0.43409 1.141,-1.327 1.141,-0.90538 2.2324,-0.90538 0.64492,0 1.1162,0.33487 0.47129,0.32246 0.62012,0.81855 0.16123,0.4961 0.16123,1.4015 l -0.0124,0.79375 z m -7.6026,-4.7749 q 0,-0.45888 -0.18604,-0.68213 -0.17363,-0.23564 -0.74414,-0.33486 -0.57051,-0.0992 -0.57051,-0.5085 0,-0.17363 0.19844,-0.33486 0.19844,-0.17363 0.5209,-0.17363 0.13643,0 0.47129,0.0868 0.34727,0.0868 0.57051,0.0868 0.13643,0 0.62012,-0.0744 0.49609,-0.0744 0.62012,-0.0744 0.24805,0 0.34727,0.21084 0.09922,0.19844 0.11162,0.81856 0.02481,1.0294 0.02481,2.1952 l -0.07441,3.5347 q 0,0.38447 0.06201,0.47129 0.06201,0.0868 0.28525,0.22324 0.23564,0.13643 0.59531,0.21084 0.35967,0.0744 0.45889,0.21084 0.09922,0.12402 0.09922,0.29766 0,0.40927 -0.64492,0.40927 -0.44648,0 -0.91777,-0.0744 -0.47129,-0.0744 -0.93018,-0.0744 -0.37207,0 -0.96738,0.062 -0.58291,0.062 -0.86816,0.062 -0.63252,0 -0.63252,-0.45889 0,-0.19843 0.11162,-0.32246 0.11162,-0.12402 0.48369,-0.14883 0.42168,-0.0248 0.5209,-0.12402 0.28525,-0.29766 0.35967,-0.5209 0.07441,-0.22324 0.07441,-0.91777 z"
       style="font-variant-ligatures:normal;font-variant-caps:normal;font-variant-numeric:normal;font-feature-settings:normal;fill:#000000;stroke:#ff0000"
       id="path20" />
  </g>
  <path
     d="m 58.661,17.6313 a 1.5309,1.5309 0 0 1 -2.1231,0.33688 1.5309,1.5309 0 0 1 -0.36694,-2.1181 1.5309,1.5309 0 0 1 2.1127,-0.39694 1.5309,1.5309 0 0 1 0.42685,2.1068"
     fill-rule="evenodd"
     stroke-width="0.99999"
     style="fill:#ff4b27;paint-order:stroke fill markers;stroke:#000000"
     id="path24" />
  <g
     transform="matrix(0.99999,0,0,0.99999,0.5661,-243.1537)"
     stroke="#ff4b27"
     id="g36"
     style="fill:#000000">
    <g
       style="fill:#000000"
       stroke-width="0.26458px"
       id="g32">
      <path
         style="fill:#000000"
         d="m 21.78,260.39 c 1.5308,1.4941 3.1924,0.7348 4.1958,-0.27827 1.1814,-1.2427 1.3487,-1.8011 1.3796,-2.9106 0.03092,-1.1096 -0.54548,-2.964 -0.90659,-3.5239 -0.88311,-1.5119 -2.1448,-2.432 -3.5549,-1.8332 -2.6543,1.297 -4.3872,4.5553 -4.8801,6.8695 1.1775,-0.58664 2.1071,0.003 3.7662,1.6765 z"
         id="path26" />
      <path
         style="fill:#000000"
         d="m 10.649,260.02 c -1.2488,-1.1749 -1.4357,-2.2894 -1.5284,-3.3956 -0.092711,-1.1061 0.36749,-1.9794 0.69682,-2.5586 0.79748,-1.5587 1.9001,-2.6714 4.0029,-1.3437 1.1131,0.74954 5.0008,3.4636 3.6485,4.8299 -1.1894,1.2017 -4.4473,4.5991 -6.8198,2.468 z"
         id="path28" />
      <path
         style="fill:#000000"
         d="m 14.581,246.29 c -0.55791,0.41191 -0.90087,0.99013 -0.91157,1.756 0.01303,0.33397 -0.06483,-0.33052 0,0 0,0 -0.13586,2.2168 1.4565,4.1665 0.33624,0.48692 1.8284,1.8968 2.8775,2.6528 1.5097,-0.9739 2.4573,-2.1427 2.8051,-2.5885 2.3747,-2.4506 3.1946,-5.6553 -0.74632,-6.5944 -0.3187,-0.0806 -0.95317,-0.1094 -1.6388,-0.0726 -0.68055,-0.0988 -1.3166,-0.12713 -1.6417,-0.0756 -0.86984,0.0988 -1.6427,0.34395 -2.2006,0.75589 z"
         id="path30" />
    </g>
    <path
       transform="matrix(-0.91263,-0.40878,-0.40879,0.91263,0,0)"
       d="m -122.12,227.21 a 20.138,20.166 0 0 1 -0.75773,5.4617"
       fill-rule="evenodd"
       stroke-linecap="round"
       stroke-linejoin="round"
       stroke-width="0.5"
       style="paint-order:normal;fill:#000000"
       id="path34" />
  </g>
</svg>
