<?xml version="1.0" encoding="UTF-8"?>
<svg width="300" height="240" version="1.1" viewBox="0 0 79.375 63.5" xmlns="http://www.w3.org/2000/svg" xmlns:cc="http://creativecommons.org/ns#" xmlns:dc="http://purl.org/dc/elements/1.1/" xmlns:rdf="http://www.w3.org/1999/02/22-rdf-syntax-ns#" xmlns:xlink="http://www.w3.org/1999/xlink">
 <defs>
  <linearGradient id="linearGradient1116" x1="22.561" x2="30.251" y1="315.01" y2="315.01" gradientUnits="userSpaceOnUse" xlink:href="#linearGradient5605"/>
  <linearGradient id="linearGradient5605">
   <stop stop-color="#ff8927" offset="0"/>
   <stop stop-color="#ff4b27" stop-opacity="0" offset="1"/>
  </linearGradient>
  <linearGradient id="linearGradient1114" x1="24.354" x2="31.528" y1="315.11" y2="314.88" gradientUnits="userSpaceOnUse" xlink:href="#linearGradient1023"/>
  <linearGradient id="linearGradient1023">
   <stop offset="0"/>
   <stop stop-opacity="0" offset="1"/>
  </linearGradient>
  <radialGradient id="radialGradient1118" cx="14.944" cy="306.45" r="3.9502" gradientTransform="matrix(-.48767 -.87303 .30546 -.17063 -81.665 401.46)" gradientUnits="userSpaceOnUse" xlink:href="#linearGradient1041"/>
  <linearGradient id="linearGradient1041">
   <stop stop-color="#fff" offset="0"/>
   <stop stop-color="#fff" stop-opacity="0" offset="1"/>
  </linearGradient>
  <radialGradient id="radialGradient1088" cx="14.944" cy="306.45" r="3.9502" gradientTransform="matrix(-.49325 .86989 -.30436 -.17258 125.05 375.98)" gradientUnits="userSpaceOnUse" xlink:href="#linearGradient1041"/>
  <radialGradient id="radialGradient1045" cx="14.944" cy="306.45" r="3.9502" gradientTransform="matrix(1 0 0 .34988 -.464 211.84)" gradientUnits="userSpaceOnUse" xlink:href="#linearGradient1041"/>
 </defs>
 <metadata>
  <rdf:RDF>
   <cc:Work rdf:about="">
    <dc:format>image/svg+xml</dc:format>
    <dc:type rdf:resource="http://purl.org/dc/dcmitype/StillImage"/>
    <dc:title/>
   </cc:Work>
  </rdf:RDF>
 </metadata>
 <g transform="translate(0 -233.5)" fill="#ff4b27">
  <text transform="scale(1.0004 .99956)" x="13.509523" y="279.01157" font-family="'Poor Richard'" font-size="24.001px" letter-spacing="0px" stroke-width=".37005" word-spacing="0px" style="font-feature-settings:normal;font-variant-caps:normal;font-variant-ligatures:normal;font-variant-numeric:normal;line-height:1.25" xml:space="preserve"><tspan x="13.509523" y="279.01157" fill="#ff4b27" font-size="9.6005px" stroke-width=".37005">Web Solutions</tspan></text>
  <g transform="translate(.62362 -.62362)" stroke-width=".26458" style="font-feature-settings:normal;font-variant-caps:normal;font-variant-ligatures:normal;font-variant-numeric:normal" aria-label="ceferin">
   <path d="m15.661 269.5q0.34726 0 0.34726 0.58291 0 0.37207-1.2526 0.96739-1.2526 0.58291-2.6293 0.58291-2.2572 0-3.8695-1.3643-1.6123-1.3767-1.6123-3.4602 0-1.848 1.5255-3.2494 1.5255-1.4015 3.6463-1.4015 1.141 0 2.5921 0.47129t1.4511 0.85576q0 0.69453 0.07441 1.1286t0.07441 0.49609q0 0.55811-0.5085 0.55811-0.38447 0-0.60772-0.74414-0.21084-0.74414-0.90537-1.1782-0.69453-0.44649-1.7115-0.44649-1.2774 0-2.3812 0.94258-1.0914 0.94258-1.0914 2.6665 0 1.5875 1.2278 2.6045 1.2278 1.0046 2.5549 1.0046 0.48369 0 1.0046-0.12403 0.5209-0.12402 1.1534-0.50849 0.64492-0.38448 0.91777-0.38448z" style="font-feature-settings:normal;font-variant-caps:normal;font-variant-ligatures:normal;font-variant-numeric:normal"/>
   <path d="m24.652 266.33q0.28525 0 0.38447-0.0992 0.09922-0.0992 0.09922-0.35967 0-0.95498-0.74414-1.7859-0.73174-0.83096-2.22-0.83096-1.0294 0-2.1332 0.97979-1.0914 0.97978-1.0914 2.7781 0 1.3146 1.1534 2.3688 1.1658 1.0418 2.6045 1.0418 1.0914 0 2.3564-0.68213 0.48369-0.26045 0.63252-0.26045 0.22324 0 0.34726 0.12402 0.13643 0.12403 0.13643 0.31006 0 0.44649-1.3767 1.1038-1.3643 0.64492-2.8153 0.64492-2.1456 0-3.6091-1.4635-1.4635-1.4635-1.4635-3.4851 0-1.848 1.5999-3.1626 1.6123-1.3146 3.6091-1.3146 2.5921 0 3.8819 1.327t1.2898 3.175q0 0.39688-0.19844 0.4961-0.19844 0.0868-0.73174 0.0868h-5.6927q-0.69453 0-0.69453-0.50849 0-0.4837 0.71934-0.4837z" style="font-feature-settings:normal;font-variant-caps:normal;font-variant-ligatures:normal;font-variant-numeric:normal"/>
   <path d="m29.874 259.14q0-1.3891 0.28525-2.2696 0.28525-0.89297 0.95498-1.6495 0.68213-0.76894 1.5627-1.3146 0.88057-0.55811 1.141-0.55811 0.17363 0 0.17363 0.48369 0 0.062-0.23564 0.24805-1.1038 0.83096-1.5131 2.034-0.40928 1.203-0.40928 2.6541v4.0308q0 0.14882 0.19844 0.14882 0.08682 0 0.42168-0.0372 0.33486-0.0372 0.64492-0.0372 0.71934 0 0.71934 0.48369 0 0.23565-0.23564 0.37207-0.23564 0.13643-0.5581 0.13643-1.1906 0-1.1906 0.96738v4.316q0 0.62011 0.11162 0.76894 0.11162 0.13643 0.28525 0.31006 0.18604 0.16123 0.76894 0.23564 0.59531 0.0744 0.73174 0.19844 0.13643 0.12403 0.13643 0.32246 0 0.48369-0.71934 0.48369-0.42168 0-1.0666-0.13642-0.63252-0.12402-1.265-0.12402-0.39688 0-1.1286 0.12402-0.71934 0.13642-0.90537 0.13642-0.78135 0-0.78135-0.5333 0-0.17363 0.11162-0.28525t0.64492-0.17363q0.5333-0.0744 0.78135-0.23565 0.24805-0.17363 0.28525-0.42168 0.04961-0.26045 0.04961-1.079v-3.9812q0-0.89297-1.1038-0.89297-0.85576 0-0.85576-0.5333 0-0.48369 0.86816-0.48369 0.31006 0 0.59531 0.0372t0.34726 0.0372q0.14883 0 0.14883-0.14883z" style="font-feature-settings:normal;font-variant-caps:normal;font-variant-ligatures:normal;font-variant-numeric:normal"/>
   <path d="m42.661 266.33q0.28525 0 0.38447-0.0992 0.09922-0.0992 0.09922-0.35967 0-0.95498-0.74414-1.7859-0.73174-0.83096-2.22-0.83096-1.0294 0-2.1332 0.97979-1.0914 0.97978-1.0914 2.7781 0 1.3146 1.1534 2.3688 1.1658 1.0418 2.6045 1.0418 1.0914 0 2.3564-0.68213 0.48369-0.26045 0.63252-0.26045 0.22324 0 0.34727 0.12402 0.13642 0.12403 0.13642 0.31006 0 0.44649-1.3767 1.1038-1.3643 0.64492-2.8153 0.64492-2.1456 0-3.6091-1.4635-1.4635-1.4635-1.4635-3.4851 0-1.848 1.5999-3.1626 1.6123-1.3146 3.6091-1.3146 2.5921 0 3.8819 1.327 1.2898 1.327 1.2898 3.175 0 0.39688-0.19844 0.4961-0.19844 0.0868-0.73174 0.0868h-5.6927q-0.69453 0-0.69453-0.50849 0-0.4837 0.71934-0.4837z" style="font-feature-settings:normal;font-variant-caps:normal;font-variant-ligatures:normal;font-variant-numeric:normal"/>
   <path d="m49.767 265.16 0.04961 0.34727q0.06201 0 0.58291-1.1782 0.5209-1.1782 1.0294-1.6743 0.5085-0.49609 1.0542-0.49609 0.42168 0 0.63252 0.14883 0.22324 0.14882 0.22324 0.33486 0 0.32246-0.14883 0.5209-0.14883 0.18603-0.5209 0.47129-1.5751 1.203-2.282 2.927-0.69453 1.7239-0.69453 2.8649 0 0.5333 0.13643 0.73174 0.14883 0.18603 0.69453 0.32246 0.5457 0.12402 0.70693 0.27285t0.16123 0.34727q0 0.35966-0.43408 0.35966-0.34726 0-0.96738-0.12402-0.60772-0.11162-1.3146-0.11162-0.47129 0-0.95498 0.11162-0.48369 0.12402-0.62012 0.12402-0.34727 0-0.55811-0.13642-0.21084-0.12402-0.21084-0.32246 0-0.14883 0.11162-0.26045 0.12402-0.12402 0.66973-0.31006 0.5457-0.18603 0.66973-0.37207 0.12402-0.18604 0.12402-1.1658v-3.7827q0-0.35966-0.17363-0.64492-0.16123-0.28525-0.66973-0.43408-0.49609-0.16123-0.59531-0.27285-0.08682-0.11162-0.08682-0.24805 0-0.40927 0.58291-0.40927 0.16123 0 0.5333 0.062 0.38447 0.062 0.5333 0.062 0.12402 0 0.39688-0.0496 0.28525-0.0496 0.66973-0.0496 0.66973 0 0.66973 1.4263z" style="font-feature-settings:normal;font-variant-caps:normal;font-variant-ligatures:normal;font-variant-numeric:normal"/>
   <path d="m56.886 258.45q0.57051 0 0.97978 0.42168 0.42168 0.40927 0.42168 0.97978 0 0.5085-0.40928 0.86817-0.40928 0.34726-0.96738 0.34726-0.5581 0-0.96738-0.38447-0.39688-0.39688-0.39688-0.94258 0-0.5209 0.39688-0.90537 0.40928-0.38447 0.94258-0.38447zm0.99219 10.79q0 0.60771 0.22324 0.79375 0.22324 0.18603 0.59531 0.24804 0.37207 0.0496 0.5209 0.14883 0.16123 0.0992 0.16123 0.40928 0 0.40927-0.71934 0.40927-0.31006 0-0.93018-0.0744t-0.91777-0.0744q-0.29766 0-0.86816 0.0992-0.57051 0.0992-0.85576 0.0992t-0.49609-0.16123q-0.19844-0.16123-0.19844-0.42168 0-0.16123 0.11162-0.27285 0.11162-0.12402 0.57051-0.19843 0.45889-0.0744 0.63252-0.29766 0.18604-0.22324 0.18604-1.079v-4.192q0-0.5333-0.22324-0.70693t-0.65732-0.26045q-0.43408-0.0868-0.5457-0.22324-0.09922-0.13643-0.09922-0.33487 0-0.22324 0.17363-0.35966 0.18604-0.14883 0.43408-0.14883 0.21084 0 0.59531 0.0868 0.39688 0.0868 0.58291 0.0868 0.21084 0 0.64492-0.062t0.64492-0.062q0.45889 0 0.45889 0.76894 0 0.12403-0.0124 0.33487-0.0124 0.19843-0.0124 0.27285z" style="font-feature-settings:normal;font-variant-caps:normal;font-variant-ligatures:normal;font-variant-numeric:normal"/>
   <path d="m69.995 269.45q0 0.5333 0.17363 0.70693 0.18604 0.16123 0.64492 0.27285 0.47129 0.0992 0.47129 0.38447 0 0.38448-0.45889 0.38448-0.08682 0-0.74414-0.0372-0.65732-0.0372-1.1038-0.0372-0.74414 0-1.2526 0.0868t-0.65732 0.0868q-0.22324 0-0.42168-0.14882-0.18604-0.14883-0.18604-0.35967 0-0.16123 0.16123-0.29766 0.16123-0.14883 0.37207-0.14883 0.39688 0 0.70693-0.22324 0.31006-0.23564 0.31006-0.69453 0-2.989 0.03721-3.6959 0.03721-0.71933 0.03721-0.80615 0-0.96738-0.89297-0.96738-0.38447 0-1.1038 0.59531-0.70693 0.58291-1.0046 0.58291-0.09922 0-0.22324-0.12402-0.12402-0.12403-0.12402-0.26045 0-0.43409 1.141-1.327 1.141-0.90538 2.2324-0.90538 0.64492 0 1.1162 0.33487 0.47129 0.32246 0.62012 0.81855 0.16123 0.4961 0.16123 1.4015l-0.0124 0.79375zm-7.6026-4.7749q0-0.45888-0.18604-0.68213-0.17363-0.23564-0.74414-0.33486-0.57051-0.0992-0.57051-0.5085 0-0.17363 0.19844-0.33486 0.19844-0.17363 0.5209-0.17363 0.13643 0 0.47129 0.0868 0.34727 0.0868 0.57051 0.0868 0.13643 0 0.62012-0.0744 0.49609-0.0744 0.62012-0.0744 0.24805 0 0.34727 0.21084 0.09922 0.19844 0.11162 0.81856 0.02481 1.0294 0.02481 2.1952l-0.07441 3.5347q0 0.38447 0.06201 0.47129 0.06201 0.0868 0.28525 0.22324 0.23564 0.13643 0.59531 0.21084 0.35967 0.0744 0.45889 0.21084 0.09922 0.12402 0.09922 0.29766 0 0.40927-0.64492 0.40927-0.44648 0-0.91777-0.0744t-0.93018-0.0744q-0.37207 0-0.96738 0.062-0.58291 0.062-0.86816 0.062-0.63252 0-0.63252-0.45889 0-0.19843 0.11162-0.32246 0.11162-0.12402 0.48369-0.14883 0.42168-0.0248 0.5209-0.12402 0.28525-0.29766 0.35967-0.5209 0.07441-0.22324 0.07441-0.91777z" style="font-feature-settings:normal;font-variant-caps:normal;font-variant-ligatures:normal;font-variant-numeric:normal"/>
  </g>
  <path d="m58.719 260.16a1.5309 1.5309 0 0 1-2.1231 0.33688 1.5309 1.5309 0 0 1-0.36694-2.1181 1.5309 1.5309 0 0 1 2.1127-0.39694 1.5309 1.5309 0 0 1 0.42685 2.1068" fill-rule="evenodd" style="paint-order:stroke fill markers"/>
 </g>
 <g display="none">
  <g transform="translate(-5.4797 -222.95)">
   <path transform="matrix(-.99999 .0032243 .0032146 .99999 0 0)" d="m-10.975 257a20.138 20.166 0 0 1 2.2576 22.833" fill="none" stroke="#ff4b27" stroke-linecap="round" stroke-linejoin="round" stroke-width=".5" style="paint-order:normal"/>
   <path d="m10.351 258.55s3.2731-1.2813 4.2069-0.51612c1.3304 0.91359 1.7991 1.3056 1.7991 1.3056 2.9479 2.4103 7.3304 0.35682 5.6323-2.6576-1.6952-1.1408-0.84268-1.5474 0.02946-2.2934 0.81248-0.69499 1.0444-1.4908 1.0885-1.9118 0.29364-2.8032-4.7762-1.2391-7.1395 0.47665-0.46742 0.33934-1.2848 0.93409-2.0245 1.5641-1.1551 0.98383-2.0906 2.0089-2.5932 2.585 0 0-1.5283 1.9763-0.99896 1.4475zm-4.7567 1.778c0.75766-0.15241 1.4428-0.38218 2.4993-0.83494 0.93624-0.5275 1.9981-1.1253 2.3657-1.6881 0.7706-1.1798 0.18148-2.9019-0.10629-3.932-1.2466-4.2352-2.1749-3.2975-3.475-2.059-1.361 1.1766-2.7311 4.8372-2.7788 6.2729-0.03401 1.0231 0.27017 2.4876 1.4951 2.2412zm7.1318-5.3737c0.48424-0.42964 1.9196-1.635 2.7987-2.2616 1.2213-0.98739 4.0155-1.5685 3.4376-4.2026-0.35028-0.9086-2.3531-1.5544-3.2768-0.34341-1.1685 0.973-1.4429 0.99525-2.584-0.25582-0.34851-0.42244-1.4114-0.60205-2.4257 0.41196-0.86874 0.76167-0.835 1.9032-0.5691 2.856 0.23034 0.8253 0.6498 2.2554 0.76951 2.6111 0.34776 1.0331 0.51376 2.5948 0.51376 2.5948s0.85184-0.98073 1.3361-1.4104z" fill="#ff4b27" stroke-width=".26458"/>
  </g>
  <g transform="translate(77.853 -218.92)" stroke="#ff4b27">
   <path transform="matrix(-.71205 -.70213 -.70213 .71204 0 0)" d="m-148.73 208.42a20.138 20.166 0 0 1-13.062 18.862" fill="none" stroke-linecap="round" stroke-linejoin="round" stroke-width=".5" style="paint-order:normal"/>
   <g fill="#ff4b27" stroke-width=".26458px">
    <path d="m-39.163 257.59c0.91162 1.9351 2.7338 1.8048 4.0281 1.2066 1.5414-0.75108 1.8934-1.2157 2.3104-2.2444 0.417-1.0287 0.5255-2.9676 0.38303-3.6185-0.29863-1.7252-1.1588-3.0285-2.6893-2.9606-2.9402 0.28687-5.7032 2.7334-6.9743 4.7291 1.3083-0.1378 1.973 0.73945 2.9421 2.8877z"/>
    <path d="m-45.693 255.28c-1.9054 0.97214-3.2666-0.24635-3.9239-1.5117-0.75909-1.5375-0.75304-2.1203-0.45307-3.189 0.29997-1.0687 1.401-2.6683 1.9121-3.0958 1.2922-1.1814 2.7702-1.6854 3.9389-0.69484 2.1494 2.0267 2.8365 5.6526 2.62 8.0088-0.95019-0.90984-2.0128-0.62307-4.0941 0.48248z"/>
    <path d="m-41.375 242.7c-0.65902 0.21594-1.1662 0.65727-1.4168 1.3811-0.09247 0.32117 0.04221-0.33417 0 0 0 0-0.82494 2.0621 0.07485 4.413 0.38322 1.4797 1.0493 2.845 1.7498 3.8136 0.04003-0.14318 0.09053-0.27213 0.14945-0.39161-0.03564 0.12838-0.08392 0.25813-0.14945 0.39161 1.1678-0.25586 2.5742-0.83035 3.8458-1.6788 2.5427-0.95615 2.995-3.2408 2.995-3.2408 0.59058-1.4136-0.33696-2.67-1.8539-3.5443-0.2773-0.17654-0.87064-0.4031-1.5332-0.58343-0.61512-0.3075-1.2102-0.53405-1.535-0.58718-0.8569-0.17923-1.6676-0.18913-2.3266 0.0268z"/>
   </g>
  </g>
  <g transform="translate(124.42 -196.47)" stroke="#ff4b27">
   <g fill="#ff4b27" stroke-width=".26458px">
    <path d="m-70.576 228.31c0.08689-1.4829 0.61022-3.1656 1.2525-4.0515 0.91868-1.3907 2.6844-0.50873 3.5547 0.64502l0.94217 1.2678c0.5049 0.67938 1.1091 2.4859 1.2024 2.9418-7.2386 5.0281-7.0387 0.67988-6.9518-0.80304z"/>
    <path d="m-60.623 233.93c0.91162 1.9351 2.7338 1.8048 4.0281 1.2066 1.5414-0.75108 1.8934-1.2157 2.3104-2.2444 0.417-1.0287 0.5255-2.9676 0.38303-3.6185-0.29863-1.7252-1.1588-3.0285-2.6893-2.9606-2.9402 0.28687-5.7032 2.7334-6.9743 4.7291 1.3083-0.1378 1.973 0.73945 2.9421 2.8877z"/>
    <path d="m-63.839 224.94c-0.47636-1.1165-1.3425-3.1063 0.52822-4.9217 0.98906-0.66614 5.8964-0.37836 7.0844 1.5765 0.28422 2.4963-3.2046 3.7293-4.6061 4.9226-0.58276 0.52461-1.6762 1.7008-1.6762 1.7008s-0.85396-2.1617-1.3303-3.2782z"/>
   </g>
   <path transform="matrix(-.71205 -.70213 -.70213 .71204 0 0)" d="m-116.96 209.14a20.138 20.166 0 0 1-13.062 18.862" fill="none" stroke-linecap="round" stroke-linejoin="round" stroke-width=".5" style="paint-order:normal"/>
  </g>
  <g transform="matrix(.3568 -.35027 .35027 .3568 -40.313 -117.32)">
   <g transform="translate(-39.099 17.198)">
    <g transform="translate(7.3795 -3.1701)">
     <rect x="-32.83" y="267.98" width="19.078" height="19.049" fill="#f00" stroke="#ff2a2a" stroke-width=".936"/>
     <g fill="#fff" stroke="#fff">
      <rect x="-33.064" y="277.74" width="9.539" height="9.5246" stroke-width=".46799"/>
      <rect x="-33.064" y="267.68" width="10.068" height="10.053" stroke-width=".49395"/>
      <rect x="-22.994" y="267.69" width="9.742" height="9.5197" stroke-width=".47283"/>
     </g>
    </g>
    <ellipse cx="-15.922" cy="274.26" rx="7.4426" ry="7.4426" fill="#f00" stroke="#f00" stroke-width="5.1148"/>
   </g>
   <g transform="matrix(-1 0 0 1 -47.884 16.61)">
    <g transform="translate(7.3795 -3.1701)">
     <rect x="-32.83" y="267.98" width="19.078" height="19.049" fill="#f00" stroke="#ff2a2a" stroke-width=".936"/>
     <g fill="#fff" stroke="#fff">
      <rect x="-33.064" y="277.74" width="9.539" height="9.5246" stroke-width=".46799"/>
      <rect x="-33.064" y="267.68" width="10.068" height="10.053" stroke-width=".49395"/>
      <rect x="-22.994" y="267.69" width="9.742" height="9.5197" stroke-width=".47283"/>
     </g>
    </g>
    <ellipse cx="-15.922" cy="274.26" rx="7.4426" ry="7.4426" fill="#f00" stroke="#f00" stroke-width="5.1148"/>
   </g>
   <g transform="rotate(180 -23.721 294.21)">
    <g transform="translate(7.3795 -3.1701)">
     <rect x="-32.83" y="267.98" width="19.078" height="19.049" fill="#f00" stroke="#ff2a2a" stroke-width=".936"/>
     <g fill="#fff" stroke="#fff">
      <rect x="-33.064" y="277.74" width="9.539" height="9.5246" stroke-width=".46799"/>
      <rect x="-33.064" y="267.68" width="10.068" height="10.053" stroke-width=".49395"/>
      <rect x="-22.994" y="267.69" width="9.742" height="9.5197" stroke-width=".47283"/>
     </g>
    </g>
    <ellipse cx="-15.922" cy="274.26" rx="7.4426" ry="7.4426" fill="#f00" stroke="#f00" stroke-width="5.1148"/>
   </g>
  </g>
  <g transform="translate(3.3704 -288.13)">
   <g transform="matrix(0 -1 -1 0 310.68 310.92)">
    <rect transform="rotate(135.53)" x="183.46" y="-231.61" width="9.5391" height="9.5247" fill="#ff4b27" stroke="#ff4b27" stroke-width=".468"/>
    <g transform="translate(77.698 -18.08)" fill="#fff" stroke="#fff">
     <rect transform="rotate(135.53)" x="251.07" y="-185.32" width="5.0174" height="5.0098" stroke-width=".24616"/>
     <rect transform="rotate(135.53)" x="251.33" y="-190.61" width="5.282" height="5.274" stroke-width=".25914"/>
     <rect transform="rotate(135.53)" x="256.34" y="-190.68" width="5.1717" height="5.0537" stroke-width=".25101"/>
    </g>
    <ellipse transform="rotate(135.53)" cx="188.23" cy="-226.85" rx="3.7213" ry="3.7213" fill="#ff4b27" stroke="#ff4b27" stroke-width="2.557"/>
   </g>
   <g transform="matrix(-1 0 0 1 33.98 0)">
    <rect transform="rotate(135.53)" x="183.46" y="-231.61" width="9.5391" height="9.5247" fill="#ff4b27" stroke="#ff4b27" stroke-width=".468"/>
    <g transform="translate(77.698 -18.08)" fill="#fff" stroke="#fff">
     <rect transform="rotate(135.53)" x="251.07" y="-185.32" width="5.0174" height="5.0098" stroke-width=".24616"/>
     <rect transform="rotate(135.53)" x="251.33" y="-190.61" width="5.282" height="5.274" stroke-width=".25914"/>
     <rect transform="rotate(135.53)" x="256.34" y="-190.68" width="5.1717" height="5.0537" stroke-width=".25101"/>
    </g>
    <ellipse transform="rotate(135.53)" cx="188.23" cy="-226.85" rx="3.7213" ry="3.7213" fill="#ff4b27" stroke="#ff4b27" stroke-width="2.557"/>
   </g>
   <rect transform="rotate(135.53)" x="183.46" y="-231.61" width="9.5391" height="9.5247" fill="#ff4b27" stroke="#ff4b27" stroke-width=".468"/>
   <g transform="translate(77.698 -18.08)" fill="#fff" stroke="#fff">
    <rect transform="rotate(135.53)" x="251.07" y="-185.32" width="5.0174" height="5.0098" stroke-width=".24616"/>
    <rect transform="rotate(135.53)" x="251.33" y="-190.61" width="5.282" height="5.274" stroke-width=".25914"/>
    <rect transform="rotate(135.53)" x="256.34" y="-190.68" width="5.1717" height="5.0537" stroke-width=".25101"/>
   </g>
   <ellipse transform="rotate(135.53)" cx="188.23" cy="-226.85" rx="3.7213" ry="3.7213" fill="#ff4b27" stroke="#ff4b27" stroke-width="2.557"/>
  </g>
  <g transform="translate(76.605 -314.96)">
   <path d="m21.748 343.38a15 15 0 0 1-20.231-5.7239 15 15 0 0 1 5.3661-20.329 15 15 0 0 1 20.42 5.0067 15 15 0 0 1-4.6458 20.506" fill="#ccc"/>
   <path d="m8.3321 334.04 4.6008 1.2572 1.2553-4.5938-4.6008-1.2572z" fill="#ff4b27" stroke="#ff4b27" stroke-width=".23399"/>
   <path d="m12.973 335.45a4.992 4.992 15.283 0 0-3.4996-6.1313 4.992 4.992 15.283 0 0-6.1313 3.4996 4.992 4.992 15.283 0 0 3.4996 6.1313 4.992 4.992 15.283 0 0 6.1313-3.4996z" fill="#ff4b27" stroke-width="0"/>
   <g transform="rotate(240.81 18.662 324.05)">
    <g transform="matrix(0 -1 -1 0 329.91 339.64)" fill="url(#linearGradient1116)">
     <path d="m22.561 314.9s2.0916-2.22 3.6242-3.5307 2.9623-1.5908 4.2989-1.3838c1.3366 0.20702-5.4424 0.9151-2.5258 2.4829-8.4115 3.9127 5.4841 1.9112-0.72411 5-3.1138 1.3297 4.5229 2.3375 2.6948 2.4674-0.82322-0.0956-2.2179-0.0358-3.809-1.5071-0.83632-0.77332-1.3531-1.278-2.4681-2.378-0.63726-0.62875-1.0909-1.1507-1.0909-1.1507z" fill="url(#linearGradient1114)"/>
    </g>
   </g>
   <path d="m4.541 338.1c-0.60576-0.55405-1.0403-0.96519-1.7619-3.1623-0.72126-2.1973 2.0642-6.2977 3.5746 0.42444 2.6283 1.649 2.9964 5.9499-1.5891 3.139z" fill="url(#radialGradient1118)"/>
   <path d="m20.711 334.03-1.3126-4.5853-4.5783 1.3106 1.3126 4.5853z" fill="#ff4b27" stroke="#ff4b27" stroke-width=".23399"/>
   <path d="m19.511 329.33a4.992 4.992 74.025 0 0-3.4253 6.1731 4.992 4.992 74.025 0 0 6.1731 3.4253 4.992 4.992 74.025 0 0 3.4253-6.1731 4.992 4.992 74.025 0 0-6.1731-3.4254z" fill="#ff4b27" stroke-width="0"/>
   <g transform="rotate(119.55 10.889 323.77)">
    <g transform="matrix(0 -1 -1 0 329.91 339.64)" fill="url(#linearGradient1116)">
     <path d="m22.561 314.9s2.0916-2.22 3.6242-3.5307 2.9623-1.5908 4.2989-1.3838c1.3366 0.20702-5.4424 0.9151-2.5258 2.4829-8.4115 3.9127 5.4841 1.9112-0.72411 5-3.1138 1.3297 4.5229 2.3375 2.6948 2.4674-0.82322-0.0956-2.2179-0.0358-3.809-1.5071-0.83632-0.77332-1.3531-1.278-2.4681-2.378-0.63726-0.62875-1.0909-1.1507-1.0909-1.1507z" fill="url(#linearGradient1114)"/>
    </g>
   </g>
   <path d="m26.153 335.17c-0.1593 0.80532-0.28531 1.3901-1.789 3.147-1.5041 1.7567-6.4546 1.5032-1.492-3.2759 0.0458-3.1024 3.5314-5.6488 3.5079-0.27043z" fill="url(#radialGradient1088)"/>
   <path d="m14.514 323.3-3.3412 3.4035 3.3984 3.3362 3.3412-3.4035z" fill="#ff4b27" stroke="#ff4b27" stroke-width=".23399"/>
   <path d="m11.017 326.66a4.992 4.992 44.471 0 0 7.0594-0.0652 4.992 4.992 44.471 0 0-0.0652-7.0594 4.992 4.992 44.471 0 0-7.0594 0.0652 4.992 4.992 44.471 0 0 0.0652 7.0595z" fill="#ff4b27" stroke-width="0"/>
   <g transform="translate(-.464 13.142)">
    <g transform="matrix(0 -1 -1 0 329.91 339.64)" fill="url(#linearGradient1116)">
     <path d="m22.561 314.9s2.0916-2.22 3.6242-3.5307 2.9623-1.5908 4.2989-1.3838c1.3366 0.20702-5.4424 0.9151-2.5258 2.4829-8.4115 3.9127 5.4841 1.9112-0.72411 5-3.1138 1.3297 4.5229 2.3375 2.6948 2.4674-0.82322-0.0956-2.2179-0.0358-3.809-1.5071-0.83632-0.77332-1.3531-1.278-2.4681-2.378-0.63726-0.62875-1.0909-1.1507-1.0909-1.1507z" fill="url(#linearGradient1114)"/>
    </g>
   </g>
   <path d="m12.814 318.01c0.77911-0.25865 1.3499-0.43747 3.62 4e-3 2.27 0.44187 4.4914 4.8733-2.1138 2.9137-2.7213 1.4904-6.6557-0.28562-1.9655-2.9181z" fill="url(#radialGradient1045)"/>
  </g>
 </g>
</svg>
