<?xml version="1.0" encoding="UTF-8"?>
<svg width="82" height="82" version="1.1" viewBox="0 0 82 82" xmlns="http://www.w3.org/2000/svg" xmlns:cc="http://creativecommons.org/ns#" xmlns:dc="http://purl.org/dc/elements/1.1/" xmlns:rdf="http://www.w3.org/1999/02/22-rdf-syntax-ns#">
 <metadata>
  <rdf:RDF>
   <cc:Work rdf:about="">
    <dc:format>image/svg+xml</dc:format>
    <dc:type rdf:resource="http://purl.org/dc/dcmitype/StillImage"/>
    <dc:title/>
   </cc:Work>
  </rdf:RDF>
 </metadata>
 <g transform="translate(174.78 102.15)">
  <path d="m32.06 53.26c0-0.68643 0.01819-0.70221 0.80897-0.70221 1.0147 0 2.1016-0.44339 2.385-0.97299 0.11923-0.22278 0.21678-0.76411 0.21678-1.2029 0-0.63315-0.11949-0.89843-0.57876-1.2849-0.54552-0.45902-0.77208-0.49462-3.9444-0.61973-1.8511-0.073-4.4346-0.13274-5.7412-0.13274h-2.3755v-20.866h30.697v5.0158h-1.6051v-3.6114h-27.286v17.455h22.671v2.0063l-1.7555 0.01196c-3.5623 0.02427-4.6647 0.517-4.6647 2.085 0 0.45278 0.13809 1.0204 0.30686 1.2613 0.33286 0.47523 1.415 0.85207 2.4518 0.85385 0.61124 1e-3 0.65206 0.04508 0.65206 0.70333v0.70221h-12.239z" fill="#ff4a27" stroke-width=".20063"/>
  <path d="m49.787 52.163c-0.39301-0.16349-0.4437-0.38639-0.57852-2.5441-0.08127-1.3007-0.10494-5.1123-0.05259-8.4702 0.0891-5.7156 0.11962-6.1232 0.4782-6.3861 0.57818-0.42399 9.6424-0.29671 9.9176 0.13927 0.25311 0.40096 0.25312 16.653 7e-6 17.054-0.15844 0.25101-0.94868 0.30806-4.7619 0.34378-2.5146 0.02356-4.7658-0.03781-5.0027-0.13636zm5.0315-0.47349c0.56143-0.41053 0.24295-1.1806-0.45489-1.0999-0.80805 0.09346-0.82739 1.3408-0.02112 1.3629 0.06167 0.0017 0.27588-0.11666 0.47601-0.263zm3.9261-8.963v-7.2228h-8.4266v14.446h8.4266z" fill="#ff4a27" stroke-width=".20063"/>
  <ellipse cx="40.79" cy="40.182" rx="29.948" ry="29.948" fill="none" stroke="#f00" stroke-width=".805"/>
 </g>
 <path d="m38.557 71.882c-11.357-0.8024-21.094-7.6824-25.619-18.101-0.8315-1.9145-1.6347-4.6118-1.9777-6.6416-0.57357-3.3937-0.57498-7.0112-0.0038-10.389 1.2433-7.3554 5.441-14.219 11.479-18.768 6.1352-4.6227 13.689-6.7057 21.345-5.8861 5.9569 0.63769 11.519 3.0231 16.196 6.9461 0.97058 0.81407 2.7706 2.6333 3.6211 3.6597 3.8255 4.617 6.1424 10.091 6.7943 16.053 0.13897 1.271 0.18473 4.4071 0.08128 5.572-0.48688 5.4832-2.329 10.583-5.3679 14.86-5.0819 7.153-12.633 11.602-21.346 12.578-1.2663 0.1418-3.9823 0.20268-5.2011 0.11656zm-0.20952-5.6156c0.19-0.097 0.77515-0.66861 1.5641-1.5279 1.385-1.5084 1.5325-1.7628 1.4485-2.4978-0.06983-0.61057-0.36395-0.99374-1.7398-2.2662-0.71016-0.65681-1.969-1.8216-2.7974-2.5884-0.82842-0.76683-1.6285-1.4454-1.7779-1.5079l-0.27172-0.11362 0.56998-0.58793c0.6075-0.62661 0.71979-0.79235 0.86189-1.272 0.04957-0.16723 0.12233-0.30404 0.16177-0.30404 0.03945 0 0.36036-0.29074 0.71317-0.6461 2.7099-2.7295 6.666-4.6293 10.667-5.1226 1.6835-0.20756 2.42-0.22684 2.8672-0.07506 1.837 0.6235 3.1367-0.9031 2.2674-2.6632-0.19374-0.39225-0.63492-0.86672-2.9094-3.1288-1.4745-1.4666-3.102-3.078-3.6166-3.5809l-0.93564-0.91438 0.1284-0.44201c0.37636-1.2956-0.25768-2.7169-1.4865-3.3321-0.77943-0.39023-1.1871-0.41658-2.3689-0.15308-0.18921 0.04215-0.48656-0.23332-3.7342-3.4598-3.1784-3.1578-3.5772-3.5285-4.0185-3.7351-0.63557-0.29765-1.1218-0.35461-1.6688-0.19546-0.5514 0.16042-0.99501 0.63607-1.1149 1.1954-0.11376 0.53085-0.10621 0.6132 0.11648 1.2704 0.18489 0.54561 0.19453 0.64268 0.14851 1.4956-0.24163 4.479-1.9151 8.7315-4.659 11.839-0.60657 0.68702-0.76965 0.80467-1.239 0.89375-0.21943 0.04163-0.55534 0.16528-0.74648 0.27474-0.40396 0.23134-5.6864 5.4581-6.2124 6.1468-0.40242 0.52698-0.79611 1.3408-0.93347 1.9296-0.27143 1.1636 0.15888 2.5653 1.1651 3.7954 0.56007 0.68465 4.8016 4.9007 5.2587 5.2272 2.0447 1.4602 4.1313 1.5222 5.9326 0.17647l0.39338-0.2939 0.08162 0.24749c0.04485 0.13612 0.18916 0.37807 0.32062 0.53768 0.36378 0.44167 5.5317 5.2119 5.7954 5.3494 0.54327 0.28336 1.2478 0.29495 1.7685 0.0291zm15.302-2.7329-0.52612-0.98982 0.35564-0.23063c0.44328-0.28746 1.0036-0.88056 1.2049-1.2754 0.33809-0.66323 0.33949-1.5178 0.0037-2.2122-0.22859-0.47256-0.91767-1.1432-1.4831-1.4433-0.25595-0.13587-0.48892-0.24704-0.51771-0.24704-0.0288 0-0.03128 0.19667-0.0053 0.43706 0.10809 1.0093-0.27671 1.9375-1.1363 2.7409-0.93301 0.872-2.2104 1.3936-3.686 1.5051l-0.67512 0.051 0.28184 0.22756c0.37439 0.3023 1.2335 0.70682 1.8136 0.854 0.50996 0.12938 1.6834 0.17752 2.2278 0.09139 0.33997-0.05377 0.34785-0.04988 1.4811 0.73613 0.62661 0.43461 1.1501 0.78006 1.1633 0.76766 0.01328-0.01237-0.21269-0.46796-0.50206-1.0124zm-8.9781-1.185c1.3966-0.97175 1.4962-1.0274 1.7469-0.97679 0.54002 0.10911 1.9126 0.04192 2.5374-0.12424 1.3446-0.35758 2.4752-1.1854 2.9692-2.1741 0.20977-0.41987 0.22786-0.51941 0.22786-1.2542 0-0.74942-0.01478-0.82636-0.24181-1.261-0.75202-1.4397-2.4748-2.3178-4.547-2.3178-3.3603 0-5.6242 2.4399-4.5005 4.8504 0.16561 0.35527 0.97652 1.2432 1.3523 1.4807l0.18988 0.12002-0.33265 0.63514c-0.18296 0.34933-0.52083 0.98943-0.75082 1.4224-0.29665 0.55851-0.37656 0.76443-0.27497 0.70861 0.07877-0.04328 0.80969-0.54242 1.6243-1.1092zm0.11418-1.1853c0.18784-0.37432 0.34153-0.69298 0.34153-0.70814 0-0.01515-0.15193-0.10577-0.33762-0.20135-0.57736-0.29718-1.1502-0.87024-1.4218-1.4222-1.0215-2.0766 1.2529-4.1902 4.3383-4.0316 1.307 0.0672 2.284 0.45372 3.1068 1.2292 0.61944 0.58381 0.80628 0.99912 0.80529 1.7901-6.3e-4 0.51652-0.03533 0.71618-0.17278 0.99561-0.46226 0.93952-1.5785 1.6885-2.9336 1.9684-0.53201 0.10988-1.7943 0.11258-2.1612 0.0045-0.14171-0.0417-0.29552-0.05347-0.34179-0.0261-0.04628 0.02737-0.41725 0.28199-0.82441 0.56587l-0.74029 0.51614 0.34154-0.68056zm1.177-3.458v-0.49408h-0.98738v0.98815h0.98738zm1.9748 0v-0.49408h-0.98738l-0.0095 0.34205c-0.0053 0.18813-0.01598 0.3848-0.02393 0.43706-0.02745 0.18076 0.04448 0.20903 0.53158 0.20903h0.48921zm1.9273 0.32304c-0.0053-0.07312-0.0138-0.28694-0.01898-0.47506l-0.0095-0.34205h-0.98738v0.99509l0.51268-0.0225c0.43347-0.01897 0.5112-0.04305 0.50318-0.1555zm13.964-2.4372c0.23935-0.11762 0.53958-0.33996 0.66719-0.49407 0.43108-0.52062 0.46698-0.80505 0.4405-3.4898-0.02287-2.322-0.0303-2.4274-0.19154-2.729-0.21776-0.40743-0.76933-0.88984-1.1468-1.003-0.2119-0.06352-1.4394-0.08939-4.2443-0.08939-4.475 0-4.4094-0.0076-4.9926 0.57608-0.5514 0.55182-0.57564 0.69562-0.57564 3.4145 0 2.638 0.0261 2.8152 0.4953 3.3638 0.27399 0.32033 0.6599 0.54268 1.0997 0.6336 0.14621 0.03023 2.0089 0.04958 4.1394 0.04305l3.8736-0.01185zm-8.7382-0.73858c-0.15299-0.09334-0.3109-0.28698-0.40186-0.49279-0.14038-0.3176-0.14845-0.4877-0.12775-2.6909 0.02115-2.249 0.02902-2.3613 0.18099-2.5664 0.08738-0.11795 0.27316-0.29228 0.41284-0.3874l0.25395-0.17295 4.0059 0.02092c3.9107 0.0204 4.0109 0.02468 4.2156 0.17764 0.11533 0.0862 0.28015 0.25118 0.36628 0.36663 0.15058 0.20183 0.1566 0.30402 0.1566 2.6557 0 2.7176 0 2.7165-0.52458 3.0763-0.24433 0.16755-0.24444 0.16755-4.2651 0.16727-3.902-2.85e-4 -4.0282-0.0045-4.2728-0.15405zm4.7402-2.259c0.80965-0.53302 1.4717-0.98624 1.4712-1.0071-0.0015-0.06697-2.9472-1.9631-2.9874-1.9229-0.0567 0.05678-0.06067 3.8992-0.0037 3.8992 0.0264 0 0.71049-0.43611 1.5201-0.96914zm7.0364-7.9938 0.24804-0.22172 0.02175-2.7426c0.01463-1.8449-0.0052-2.7924-0.05962-2.8947-0.04477-0.08368-0.15412-0.15214-0.24304-0.15214-0.09116 0-0.82706 0.50548-1.6873 1.159-3.0873 2.3454-2.85 2.1855-3.2433 2.1855-0.3739 0-0.53542-0.11177-4.0251-2.7853-0.75373-0.57745-0.99309-0.66489-1.1282-0.41218-0.12554 0.23474-0.1004 5.4668 0.02737 5.6975 0.21561 0.38931 0.12919 0.38284 5.1525 0.38572l4.6889 3e-3 0.24805-0.22172zm-47.738-0.93147c0.054-0.04485 0.09823-0.22666 0.09823-0.40397 0-0.67816 0.64906-0.94906 1.1723-0.48928 0.33279 0.29242 0.44303 0.26206 0.93376-0.25721 0.57052-0.6037 0.59842-0.68428 0.33157-0.95747-0.2879-0.29475-0.34201-0.48105-0.23444-0.80723 0.10111-0.30658 0.27589-0.42077 0.70778-0.4624 0.16934-0.01635 0.33505-0.07245 0.36825-0.1248 0.03322-0.05227 0.0609-0.37077 0.0615-0.70768 0.0015-0.75564-0.08137-0.89702-0.53201-0.90833-0.6184-0.01553-0.89924-0.6795-0.49218-1.1636 0.10444-0.12421 0.18988-0.29394 0.18988-0.37717 0-0.16492-0.92609-1.0809-1.0928-1.0809-0.0549 0-0.20718 0.10262-0.33832 0.22803-0.48864 0.46734-1.1415 0.20071-1.2225-0.49928-0.0414-0.35794-0.0513-0.37031-0.34645-0.43348-0.37396-0.08004-1.2165-0.0015-1.3199 0.12343-0.04185 0.05047-0.0732 0.19348-0.0696 0.31786 0.01028 0.36214-0.08596 0.56066-0.33406 0.68906-0.29755 0.15398-0.66406 0.08837-0.89792-0.16075-0.09751-0.10388-0.22664-0.18886-0.28697-0.18886-0.14875 0-1.0791 0.95851-1.0791 1.1118 0 0.06728 0.10254 0.23921 0.22786 0.38205 0.24058 0.27421 0.28562 0.53594 0.1395 0.8105-0.1389 0.261-0.30426 0.35103-0.6495 0.35364-0.23716 0.0015-0.3405 0.0405-0.39875 0.14944-0.09951 0.18608-0.10263 1.1481-0.0045 1.4062 0.06367 0.1676 0.11996 0.19497 0.40084 0.19497 0.4004 0 0.62626 0.14818 0.7368 0.48336 0.09715 0.2946 0.02632 0.54552-0.21561 0.7636-0.23012 0.20745-0.20102 0.35795 0.14539 0.75178 0.5206 0.59188 0.96956 0.78205 1.0921 0.46256 0.07058-0.18405 0.49571-0.32382 0.75691-0.24885 0.34441 0.09884 0.45705 0.25516 0.5013 0.69563 0.03862 0.3844 0.04935 0.40019 0.30585 0.44963 0.34993 0.06743 1.2202 0.0015 1.3449-0.10228zm-1.2309-2.4144c-0.33108-0.08066-0.65653-0.26464-0.90108-0.50937-0.80808-0.8087-0.60852-2.2432 0.38708-2.7826 0.95785-0.5189 2.0186-0.213 2.4809 0.71545 0.52992 1.0643-0.04777 2.3237-1.177 2.5661-0.41926 0.08999-0.46104 0.09054-0.78992 0.01043zm48.534-3.2518c0-0.22567-3.8997-3.3395-4.2723-3.4114-0.51489-0.0993-0.68667 3e-3 -2.7723 1.649-1.8994 1.4991-2.1537 1.7455-1.9805 1.9188 0.0282 0.0282 2.0703 0.04245 4.5382 0.03165l4.4869-0.01957zm-12.702-3.7777c2.7253-0.97708 5.8944-2.113 7.0424-2.5243 1.148-0.41129 2.1477-0.8083 2.2216-0.88223 0.18034-0.18049 0.16937-0.44941-0.02865-0.7013-0.12779-0.16259-0.2138-0.20135-0.39875-0.17972-0.12969 0.01515-3.4264 1.1726-7.3261 2.572-6.6001 2.3686-7.098 2.5595-7.2025 2.7616-0.20785 0.40226 0.12905 0.85946 0.56507 0.76684 0.09439-0.02003 2.4014-0.83589 5.1268-1.813zm-4.6499-2.9899c1.0255-1.0347 3.4609-3.5118 5.412-5.5047 3.8202-3.902 3.7525-3.8173 3.361-4.2091-0.27679-0.277-0.52663-0.23983-0.91742 0.13648-0.18451 0.17768-2.6087 2.649-5.3871 5.4918-4.5306 4.6356-5.0517 5.1937-5.0527 5.4103-0.0015 0.27155 0.28521 0.55659 0.55939 0.55659 0.10851 0 0.76239-0.60751 2.0248-1.8813zm-27.723 0.11402c0.0023-0.08251 5.63e-4 -4.6364-0.0015-4.7887-5.7e-4 -0.03135-0.70139-0.057-1.5577-0.057h-1.557v4.9407h1.557c1.1938 0 1.5575-0.02213 1.5592-0.09501zm3.9474-3.9336v-4.0286h-3.19v8.0572h3.19zm3.8736-1.7102v-5.7388h-3.1141l-0.0097 5.5678c-0.0053 3.0623-0.01778 5.6448-0.0276 5.7388l-0.01793 0.17102h3.1693zm15.358 5.3698c0.12735-0.1226 4.9969-14.313 4.9969-14.562 0-0.18901-0.34679-0.49966-0.55778-0.49966-0.10171 0-0.25451 0.05985-0.33955 0.13302-0.22189 0.19088-5.0637 14.456-4.9969 14.722 0.05647 0.22504 0.39974 0.4331 0.61558 0.37306 0.08355-0.02325 0.21037-0.09853 0.28182-0.16732zm-3.5098-4.6852c0.24034-0.07095 0.49432-0.20864 0.59806-0.32417 0.16997-0.18928 0.17812-0.24243 0.14218-0.92671-0.04875-0.92834-0.30753-1.6772-0.70659-2.0451-0.3188-0.29384-0.40962-0.29102-1.2321 0.03825-0.28035 0.11224-0.6012 0.20408-0.71298 0.20408-0.55516 0-0.89213-0.60448-1.209-2.1688-0.24023-1.186-0.27787-1.9071-0.11935-2.2867 0.17356-0.41554 0.30139-0.47109 1.1226-0.48784 0.4102-0.0084 0.81476-0.05213 0.89901-0.09727 0.2669-0.14295 0.38263-0.4823 0.38263-1.122 0-0.96716-0.29428-1.8784-0.70325-2.1775-0.19432-0.14214-0.24789-0.1467-0.73696-0.06278-0.84156 0.14442-1.9555 0.52906-2.0913 0.72213-0.20155 0.28652-0.55301 1.5025-0.67828 2.3468-0.13495 0.90957-0.15622 2.5285-0.04245 3.23 0.24583 1.5158 1.4551 3.9085 2.5076 4.9619l0.40576 0.40608 0.8783-0.04365c0.48306-0.024 1.0663-0.09913 1.296-0.16698z" fill="#ff4a27" stroke-width=".075982"/>
</svg>
