<?xml version="1.0" encoding="UTF-8"?>
<svg width="152" height="152" version="1.1" viewBox="0 0 152 152" xmlns="http://www.w3.org/2000/svg" xmlns:cc="http://creativecommons.org/ns#" xmlns:dc="http://purl.org/dc/elements/1.1/" xmlns:rdf="http://www.w3.org/1999/02/22-rdf-syntax-ns#">
 <metadata>
  <rdf:RDF>
   <cc:Work rdf:about="">
    <dc:format>image/svg+xml</dc:format>
    <dc:type rdf:resource="http://purl.org/dc/dcmitype/StillImage"/>
    <dc:title/>
   </cc:Work>
  </rdf:RDF>
 </metadata>
 <g transform="matrix(36.21 0 0 36.787 -2.0688 -10771)">
  <g transform="matrix(.22675 0 0 .23696 -1.9829 234.68)" stroke="#ff4b27">
   <g fill="#ff4b27" stroke-width=".26458px">
    <path d="m21.78 260.39c1.5308 1.4941 3.1924 0.7348 4.1958-0.27827 1.1814-1.2427 1.3487-1.8011 1.3796-2.9106 0.03092-1.1096-0.54548-2.964-0.90659-3.5239-0.88311-1.5119-2.1448-2.432-3.5549-1.8332-2.6543 1.297-4.3872 4.5553-4.8801 6.8695 1.1775-0.58664 2.1071 3e-3 3.7662 1.6765z"/>
    <path d="m10.649 260.02c-1.2488-1.1749-1.4357-2.2894-1.5284-3.3956-0.092711-1.1061 0.36749-1.9794 0.69682-2.5586 0.79748-1.5587 1.9001-2.6714 4.0029-1.3437 1.1131 0.74954 5.0008 3.4636 3.6485 4.8299-1.1894 1.2017-4.4473 4.5991-6.8198 2.468z"/>
    <path d="m14.581 246.29c-0.55791 0.41191-0.90087 0.99013-0.91157 1.756 0.01303 0.33397-0.06483-0.33052 0 0 0 0-0.13586 2.2168 1.4565 4.1665 0.33624 0.48692 1.8284 1.8968 2.8775 2.6528 1.5097-0.9739 2.4573-2.1427 2.8051-2.5885 2.3747-2.4506 3.1946-5.6553-0.74632-6.5944-0.3187-0.0806-0.95317-0.1094-1.6388-0.0726-0.68055-0.0988-1.3166-0.12713-1.6417-0.0756-0.86984 0.0988-1.6427 0.34395-2.2006 0.75589z"/>
   </g>
   <path transform="matrix(-.91263 -.40878 -.40879 .91263 0 0)" d="m-122.12 227.21a20.138 20.166 0 0 1-0.75773 5.4617" fill="none" stroke-linecap="round" stroke-linejoin="round" stroke-width=".5" style="paint-order:normal"/>
  </g>
 </g>
</svg>
