<?xml version="1.0" encoding="UTF-8" standalone="no"?>
<!-- Created with Inkscape (http://www.inkscape.org/) -->

<svg
   xmlns:dc="http://purl.org/dc/elements/1.1/"
   xmlns:cc="http://creativecommons.org/ns#"
   xmlns:rdf="http://www.w3.org/1999/02/22-rdf-syntax-ns#"
   xmlns:svg="http://www.w3.org/2000/svg"
   xmlns="http://www.w3.org/2000/svg"
   xmlns:sodipodi="http://sodipodi.sourceforge.net/DTD/sodipodi-0.dtd"
   xmlns:inkscape="http://www.inkscape.org/namespaces/inkscape"
   version="1.1"
   id="svg2"
   width="32"
   height="32"
   viewBox="0 0 32 32"
   sodipodi:docname="favicon.svg"
   inkscape:version="0.92.2 (5c3e80d, 2017-08-06)">
  <metadata
     id="metadata8">
    <rdf:RDF>
      <cc:Work
         rdf:about="">
        <dc:format>image/svg+xml</dc:format>
        <dc:type
           rdf:resource="http://purl.org/dc/dcmitype/StillImage" />
        <dc:title></dc:title>
      </cc:Work>
    </rdf:RDF>
  </metadata>
  <defs
     id="defs6" />
  <sodipodi:namedview
     pagecolor="#ffffff"
     bordercolor="#666666"
     borderopacity="1"
     objecttolerance="10"
     gridtolerance="10"
     guidetolerance="10"
     inkscape:pageopacity="0"
     inkscape:pageshadow="2"
     inkscape:window-width="1366"
     inkscape:window-height="706"
     id="namedview4"
     showgrid="false"
     inkscape:zoom="7.375"
     inkscape:cx="-6.5762712"
     inkscape:cy="16"
     inkscape:window-x="-8"
     inkscape:window-y="-8"
     inkscape:window-maximized="1"
     inkscape:current-layer="svg2" />
  <g
     transform="matrix(7.146683,0,0,7.146683,0.91261044,-2091.511)"
     id="g4540">
    <g
       style="stroke:#ff4b27"
       transform="matrix(0.22675,0,0,0.23696,-1.9829,234.68)"
       id="g4538">
      <g
         style="fill:#ff4b27;stroke-width:0.26458001px"
         id="g4534">
        <path
           inkscape:connector-curvature="0"
           d="m 21.78,260.39 c 1.5308,1.4941 3.1924,0.7348 4.1958,-0.27827 1.1814,-1.2427 1.3487,-1.8011 1.3796,-2.9106 0.03092,-1.1096 -0.54548,-2.964 -0.90659,-3.5239 -0.88311,-1.5119 -2.1448,-2.432 -3.5549,-1.8332 -2.6543,1.297 -4.3872,4.5553 -4.8801,6.8695 1.1775,-0.58664 2.1071,0.003 3.7662,1.6765 z"
           id="path4528" />
        <path
           inkscape:connector-curvature="0"
           d="m 10.649,260.02 c -1.2488,-1.1749 -1.4357,-2.2894 -1.5284,-3.3956 -0.092711,-1.1061 0.36749,-1.9794 0.69682,-2.5586 0.79748,-1.5587 1.9001,-2.6714 4.0029,-1.3437 1.1131,0.74954 5.0008,3.4636 3.6485,4.8299 -1.1894,1.2017 -4.4473,4.5991 -6.8198,2.468 z"
           id="path4530" />
        <path
           inkscape:connector-curvature="0"
           d="m 14.581,246.29 c -0.55791,0.41191 -0.90087,0.99013 -0.91157,1.756 0.01303,0.33397 -0.06483,-0.33052 0,0 0,0 -0.13586,2.2168 1.4565,4.1665 0.33624,0.48692 1.8284,1.8968 2.8775,2.6528 1.5097,-0.9739 2.4573,-2.1427 2.8051,-2.5885 2.3747,-2.4506 3.1946,-5.6553 -0.74632,-6.5944 -0.3187,-0.0806 -0.95317,-0.1094 -1.6388,-0.0726 -0.68055,-0.0988 -1.3166,-0.12713 -1.6417,-0.0756 -0.86984,0.0988 -1.6427,0.34395 -2.2006,0.75589 z"
           id="path4532" />
      </g>
      <path
         inkscape:connector-curvature="0"
         transform="matrix(-0.91263,-0.40878,-0.40879,0.91263,0,0)"
         d="m -122.12,227.21 a 20.138,20.166 0 0 1 -0.75773,5.4617"
         style="fill:none;stroke-width:0.5;stroke-linecap:round;stroke-linejoin:round;paint-order:normal"
         id="path4536" />
    </g>
  </g>
</svg>
