<svg width="450" height="450" version="1.1" viewBox="0 0 450 450" xmlns="http://www.w3.org/2000/svg">
 <path d="m134.33 402.94c-0.8672-0.8672-1.2-7.9096-1.2-25.393 0-21.138 0.19972-24.27 1.5818-24.8 0.86998-0.33385 42.405-0.60699 92.3-0.60699 69.225 0 91.003 0.2843 91.918 1.2 0.86618 0.86618 1.2 7.8277 1.2 25.025v23.825l-2.5651 0.97525c-4.0182 1.5277-181.7 1.3098-183.23-0.22475zm28.8-10.3v-4.5h-24v9h24zm13 0v-4.5h-9v9h9zm14 0v-4.5h-9v9h9zm14 0v-4.5h-10v9h10zm55 0v-4.5h-51v9h51zm13 0v-4.5h-9v9h9zm14 0v-4.5h-9v9h9zm27 0v-4.5h-23v9h23zm-164-14v-4.5h-10v3.8333c0 2.1083 0.3 4.1333 0.66667 4.5 0.36666 0.36667 2.6167 0.66667 5 0.66667h4.3333zm13.808-0.25 0.3075-4.25h-10.115v9.1096l9.5-0.60958zm13.192 0.25v-4.5h-9v9h9zm14 0v-4.5h-9v9h9zm13.808-0.25 0.3075-4.25h-10.115v3.8333c0 4.8516 0.52361 5.3273 5.4637 4.9637 3.9796-0.29288 4.0406-0.35673 4.3438-4.547zm13.192 0.25v-4.5h-9v9h9zm14 0v-4.5h-9v9h9zm14 0v-4.5h-10v3.8333c0 2.1083 0.3 4.1333 0.66667 4.5 0.36666 0.36667 2.6167 0.66667 5 0.66667h4.3333zm13.808-0.25 0.3075-4.25h-10.115v9.1096l9.5-0.60958zm13.192 0.25v-4.5h-9v9h9zm14 0v-4.5h-9v9h9zm14 0v-4.5h-10v3.8333c0 2.1083 0.3 4.1333 0.66667 4.5 0.36666 0.36667 2.6167 0.66667 5 0.66667h4.3333zm13 0v-4.5h-9v9h9zm-164-15.055v-4.5548l-9.5 0.60958-0.615 8.5h10.115zm13.808 0.30479-0.3075-4.25-9.5-0.60958v9.1096h10.115zm13.192-0.25v-4.5h-9v9h9zm14 0v-4.5h-9v9h9zm13.808 0.25-0.3075-4.25h-9l-0.615 8.5h10.23zm13.192-0.25v-4.5h-9v9h9zm14 0v-4.5h-9v9h9zm14-0.0548v-4.5548l-9.5 0.60958-0.615 8.5h10.115zm13.808 0.30479-0.3075-4.25-9.5-0.60958v9.1096h10.115zm13.192-0.24999v-4.5h-9v9h9zm14 0v-4.5h-9v9h9zm14-0.0548v-4.5548l-9.5 0.60958-0.615 8.5h10.115zm13 0.0548v-4.5h-9v9h9zm44-11.629c0-0.78621 1.7848-0.92723 5.8766-0.4643 5.8326 0.65989 5.8806 0.6441 6.4071-2.1102 0.29177-1.5263 0.1223-3.5378-0.3766-4.47-1.4299-2.6718-1.074-9.443 0.56799-10.806 2.5088-2.0821 4.0599 2.7975 2.6585 8.363-0.62347 2.476-1.1336 5.6312-1.1336 7.0114 0 2.3737 0.33804 2.5287 6.25 2.8645 3.4375 0.19527 0.2875 0.44175-7 0.54772-9.2909 0.13511-13.25-0.14472-13.25-0.93649zm-292.3-43.621c-0.71844-3.7399 0.0921-4.2128 2.3812-1.3892 2.4142 2.9778 2.4227 4.1392 0.0305 4.1392-1.2599 0-2.0583-0.9104-2.4117-2.75zm8.2951 0.33179c0-0.78002-0.26267-2.2425-0.5837-3.25-0.45454-1.4264-0.12261-1.3094 1.5 0.52899 2.4612 2.7885 2.6517 4.1392 0.5837 4.1392-0.825 0-1.5-0.6382-1.5-1.4182zm90-78.582v-47h122v94h-122zm113 41.5c0-1.2994-3.9444-1.5-29.5-1.5s-29.5 0.20056-29.5 1.5 3.9444 1.5 29.5 1.5 29.5-0.20056 29.5-1.5zm-77-6.5v-7h-23v14h23zm-19 0v-3h15v6h-15zm96-1c0-1.9548-0.66667-2-29.5-2s-29.5 0.0452-29.5 2 0.66667 2 29.5 2 29.5-0.0452 29.5-2zm0-7c0-1.9548-0.66667-2-29.5-2s-29.5 0.0452-29.5 2 0.66667 2 29.5 2 29.5-0.0452 29.5-2zm0-8c0-1.9548-0.66667-2-29.5-2s-29.5 0.0452-29.5 2 0.66667 2 29.5 2 29.5-0.0452 29.5-2zm-77-6v-7h-23v14h23zm-19 0v-3h15v6h-15zm96-29.015v-26.015l-58.5 0.53021-0.2683 24.481c-0.14757 13.465-0.0492 25.052 0.21861 25.75 0.37793 0.98487 6.9852 1.2689 29.518 1.2689h29.031zm-54 19.015c0-1.8333 0.66667-2 8-2s8 0.16667 8 2-0.66667 2-8 2-8-0.16667-8-2zm21 0c0-1.9048 0.66667-2 14-2s14 0.0952 14 2c0 1.9048-0.66667 2-14 2s-14-0.0952-14-2zm-21-8.5c0-2.4583 0.13333-2.5 8-2.5s8 0.0417 8 2.5c0 2.4583-0.13333 2.5-8 2.5s-8-0.0417-8-2.5zm21 0v-2.5h28v5h-28zm0-9v-2.5h28v5h-28zm-21-8c0-2.4583 0.13333-2.5 8-2.5s8 0.0417 8 2.5c0 2.4583-0.13333 2.5-8 2.5s-8-0.0417-8-2.5zm21-5v-6.5h28v13h-28zm-21-4c0-2.4583 0.13333-2.5 8-2.5s8 0.0417 8 2.5c0 2.4583-0.13333 2.5-8 2.5s-8-0.0417-8-2.5zm-23 22.5v-7h-23v14h23zm-19 0v-3h15v6h-15zm14.492-12.587c6.8116-4.4631 5.4858-15.853-2.2201-19.073-6.658-2.7819-14.07 0.48782-16.279 7.1813-0.96795 2.9329-0.85974 4.0882 0.6776 7.2344 3.2693 6.6905 11.454 8.8294 17.822 4.6573zm-121.49 44.019v-13.568l2.75 1.9094c1.5125 1.0502 7.9905 5.5808 14.396 10.068 6.4051 4.4873 12.28 8.1587 13.055 8.1587 0.77515 0 7.7971-4.4853 15.604-9.9673l14.195-9.9673v26.935h-60zm261.79 6.4401c3.8427-1.1083 3.369-2.872-0.77133-2.872-1.8902 0-3.0235 0.59649-3.325 1.75-0.35444 1.3563-0.48343 1.259-0.57333-0.43261-0.13764-2.5898 2.5081-3.7008 6.4541-2.7104 2.5183 0.63206 2.6883 0.49363 2.0987-1.7096-0.35283-1.3185-0.64766-2.7348-0.65517-3.1474-8e-3 -0.4125-1.7012-0.81742-3.7636-0.89983-2.9535-0.11801-3.1739-0.23754-1.0376-0.5628 2.4169-0.36797 2.6478-0.73596 2.1196-3.3773-0.41413-2.0706-0.0599-3.5532 1.1748-4.9176 3.7153-4.1054 13.493-3.4336 13.493 0.92712 0 2.4269-1.8079 3.6726-3.2448 2.2357-0.76065-0.76065-0.73794-1.4712 0.0785-2.4549 0.63191-0.76141 0.85284-1.6805 0.49095-2.0424-1.2339-1.2339-6.1778-0.66201-7.7346 0.89478-1.3284 1.3284-1.3651 2.0148-0.25403 4.75 1.1157 2.7466 1.9236 3.2818 5.7313 3.797l4.4326 0.5998-4.25 0.1502c-4.1354 0.14614-4.25 0.24165-4.25 3.5432 0 4.7854 5.3188 6.4384 9.2549 2.8763 1.8563-1.68 1.8762-1.6512 0.67699 0.98078-1.5508 3.4036-4.0058 4.2107-8.3987 2.7609-2.4471-0.80762-4.0058-0.82844-5.4186-0.0724-1.0908 0.58376-2.8003 1.0208-3.799 0.9712-0.99866-0.0496-0.3372-0.51662 1.4699-1.0378zm-245.59-13.293c-7.3164-5.1431-13.522-9.5707-13.791-9.8393-0.26853-0.26853 5.8624-4.1779 13.624-8.6875l14.112-8.1992 28.707 16.495-14.1 9.8258c-7.7551 5.4042-14.359 9.8101-14.675 9.7909-0.31618-0.0192-6.561-4.2429-13.877-9.386zm18.803-0.57914c0-0.55-1.9995-1-4.4433-1-3.458 0-4.7885-0.49286-6-2.2225-4.6244-6.6023 2.3178-15.677 9.8131-12.827 1.3797 0.52457 2.9968 1.8661 3.5936 2.9811 1.3397 2.5032 0.39062 6.7186-1.6926 7.518-1.3092 0.50237-1.4528-0.10508-0.92888-3.9276l0.6198-4.5219h-3.4809c-4.4255 0-7.7223 3.0794-7.2914 6.8106 0.27854 2.4119 0.72407 2.6937 4.3182 2.7306 2.2042 0.0226 4.5138 0.35401 5.1325 0.73637 1.9313 1.1936 6.3599-3.1343 6.3599-6.2153 0-6.3825-6.9701-10.355-13.431-7.6554-4.3455 1.8157-6.5685 5.153-6.5685 9.861 0 5.5325 3.4643 8.732 9.4546 8.732 2.5 0 4.5454-0.45 4.5454-1zm-7.3333-6.6667c-1.042-1.042-0.79717-2.06 0.90476-3.7619 2.1098-2.1098 4.4286-1.9902 4.4286 0.22857 0 3.0628-3.491 5.3756-5.3333 3.5333zm-65.667-48.833v-36.5h3.2629c2.4246 0 3.5165 0.57807 4.25 2.25 0.96959 2.21 1.2981 2.25 18.487 2.25s17.518-0.04 18.487-2.25c0.77207-1.7598 1.8069-2.25 4.75-2.25h3.7629v70.679l-2.547 1.1605c-1.7064 0.7775-10.453 1.1605-26.5 1.1605h-23.953zm18 26.5c0-0.55-2.475-1-5.5-1s-5.5 0.45-5.5 1 2.475 1 5.5 1 5.5-0.45 5.5-1zm14 0c0-0.55-2.475-1-5.5-1s-5.5 0.45-5.5 1 2.475 1 5.5 1 5.5-0.45 5.5-1zm14 0c0-0.55-2.475-1-5.5-1s-5.5 0.45-5.5 1 2.475 1 5.5 1 5.5-0.45 5.5-1zm-28-5c0-0.55-2.475-1-5.5-1s-5.5 0.45-5.5 1 2.475 1 5.5 1 5.5-0.45 5.5-1zm14 0c0-0.55-2.475-1-5.5-1s-5.5 0.45-5.5 1 2.475 1 5.5 1 5.5-0.45 5.5-1zm14 0c0-0.55-2.475-1-5.5-1s-5.5 0.45-5.5 1 2.475 1 5.5 1 5.5-0.45 5.5-1zm-28-5c0-0.55-2.475-1-5.5-1s-5.5 0.45-5.5 1 2.475 1 5.5 1 5.5-0.45 5.5-1zm14 0c0-0.55-2.475-1-5.5-1s-5.5 0.45-5.5 1 2.475 1 5.5 1 5.5-0.45 5.5-1zm14 0c0-0.55-2.475-1-5.5-1s-5.5 0.45-5.5 1 2.475 1 5.5 1 5.5-0.45 5.5-1zm-28-5c0-0.55-2.475-1-5.5-1s-5.5 0.45-5.5 1 2.475 1 5.5 1 5.5-0.45 5.5-1zm14 0c0-0.55-2.475-1-5.5-1s-5.5 0.45-5.5 1 2.475 1 5.5 1 5.5-0.45 5.5-1zm14 0c0-0.55-2.475-1-5.5-1s-5.5 0.45-5.5 1 2.475 1 5.5 1 5.5-0.45 5.5-1zm-28-5c0-0.55-2.475-1-5.5-1s-5.5 0.45-5.5 1 2.475 1 5.5 1 5.5-0.45 5.5-1zm14 0c0-0.55-2.475-1-5.5-1s-5.5 0.45-5.5 1 2.475 1 5.5 1 5.5-0.45 5.5-1zm14 0c0-0.55-2.475-1-5.5-1s-5.5 0.45-5.5 1 2.475 1 5.5 1 5.5-0.45 5.5-1zm-28-5c0-0.55-2.475-1-5.5-1s-5.5 0.45-5.5 1 2.475 1 5.5 1 5.5-0.45 5.5-1zm14 0c0-0.55-2.475-1-5.5-1s-5.5 0.45-5.5 1 2.475 1 5.5 1 5.5-0.45 5.5-1zm14 0c0-0.55-2.475-1-5.5-1s-5.5 0.45-5.5 1 2.475 1 5.5 1 5.5-0.45 5.5-1zm-28-5c0-0.55-2.475-1-5.5-1s-5.5 0.45-5.5 1 2.475 1 5.5 1 5.5-0.45 5.5-1zm8 0c0-0.55-1.125-1-2.5-1s-2.5 0.45-2.5 1 1.125 1 2.5 1 2.5-0.45 2.5-1zm20 0c0-0.55-2.475-1-5.5-1s-5.5 0.45-5.5 1 2.475 1 5.5 1 5.5-0.45 5.5-1zm-28-4.5c0-1.1515-1.2778-1.5-5.5-1.5s-5.5 0.34848-5.5 1.5 1.2778 1.5 5.5 1.5 5.5-0.34848 5.5-1.5zm13.5 0c0-0.55-2.3625-1.136-5.25-1.3023-4.2776-0.24627-5.25-5e-3 -5.25 1.3023 0 1.3073 0.97242 1.5485 5.25 1.3023 2.8875-0.16624 5.25-0.75226 5.25-1.3023zm14.5 0c0-1.1515-1.2778-1.5-5.5-1.5s-5.5 0.34848-5.5 1.5 1.2778 1.5 5.5 1.5 5.5-0.34848 5.5-1.5zm1-11v-6.5h-41v13h41zm-39 3.5c0-0.55 2.475-1 5.5-1s5.5 0.45 5.5 1-2.475 1-5.5 1-5.5-0.45-5.5-1zm13 0c0-0.55 2.475-1 5.5-1s5.5 0.45 5.5 1-2.475 1-5.5 1-5.5-0.45-5.5-1zm13 0c0-0.55 2.475-1 5.5-1s5.5 0.45 5.5 1-2.475 1-5.5 1-5.5-0.45-5.5-1zm-26-4c0-0.55 2.475-1 5.5-1s5.5 0.45 5.5 1-2.475 1-5.5 1-5.5-0.45-5.5-1zm13 0c0-0.55 2.475-1 5.5-1s5.5 0.45 5.5 1-2.475 1-5.5 1-5.5-0.45-5.5-1zm13 0c0-0.55 2.475-1 5.5-1s5.5 0.45 5.5 1-2.475 1-5.5 1-5.5-0.45-5.5-1zm-16.698-3.7461c5.3911-0.18015 13.941-0.17936 19 2e-3 5.0589 0.18111 0.64806 0.32851-9.8019 0.32755s-14.589-0.14915-9.1981-0.3293zm40.8-12.84c-2.3463-1.6672-4.7524-2.4144-7.7748-2.4144-5.9571 0-6.3274-1.3206-6.3274-22.565v-17.435h52v17.532c0 26.81-0.5372 27.512-20.973 27.382-12.625-0.0799-13.754-0.24678-16.925-2.5zm7.6461-3.9505c3.4587-2.4226 4.7814-8.2605 2.8948-12.776-0.85395-2.0438-2.1984-3.9638-2.9876-4.2666-1.1196-0.42962-0.88355-1.1021 1.0738-3.0594 2.078-2.078 2.4077-3.14 1.9202-6.1853-1.1331-7.0786-9.4047-9.8456-13.577-4.5417-2.4536 3.1192-2.7094 7.1835-0.50536 8.0293 2.5867 0.99262 4.1175-1.3381 2.539-3.8657-1.1692-1.8722-1.1087-2.3235 0.46617-3.475 2.5716-1.8804 4.0866-1.6484 5.8709 0.89909 3.057 4.3644 0.67682 10.777-4 10.777-1.3438 0-2.4433 0.45-2.4433 1s1.0929 1 2.4286 1c3.7416 0 5.5714 2.5429 5.5714 7.7427 0 7.092-4.5078 10.607-8.4929 6.6216-1.1563-1.1564-1.3238-1.9476-0.57143-2.7 1.8653-1.8653 1.2829-5.6643-0.86832-5.6643-3.8875 0-3.6891 7.7507 0.26938 10.523 2.733 1.9143 7.6334 1.8863 10.411-0.0595zm23.252-0.3974c0-0.51347-1.2375-1.076-2.75-1.25l-2.75-0.31642-0.27605-15.25c-0.15182-8.3875-0.37682-15.243-0.5-15.235-0.12317 8e-3 -2.0082 0.63602-4.189 1.395-4.6567 1.6207-5.8187 3.59-2.1183 3.59h2.5833v13c0 12.333-0.10256 13-2 13-1.1 0-2 0.45-2 1 0 0.57143 3 1 7 1 3.85 0 7-0.42011 7-0.93358zm227-3.0289c0-1.5022 4.151-12.392 5.2554-13.788 1.4204-1.7945 49.694-1.7945 51.897 0 1.2892 1.0499 5.8474 12.043 5.8474 14.103 0 0.35603-14.175 0.64733-31.5 0.64733-19.515 0-31.5-0.36621-31.5-0.96249zm12.65-4.0375c-0.33-1.65-0.27375-3.002 0.125-3.0045 0.39875-2e-3 0.80551-1.5775 0.90391-3.5 0.15784-3.0837-0.10724-3.4955-2.25-3.4955-1.4924 0-2.4289 0.57837-2.4289 1.5 0 0.825-0.45 1.5-1 1.5s-1 0.87344-1 1.941-0.45 2.2191-1 2.559-1 1.7165-1 3.059c0 2.1935 0.41826 2.441 4.125 2.441 4.05 0 4.1141-0.0546 3.525-3zm9.35 0.5c0-2.1755-0.44047-2.5-3.393-2.5-3.1586 0-4.607 1.2833-4.607 4.0818 0 0.50501 1.8 0.91821 4 0.91821 3.6 0 4-0.25 4-2.5zm18.607 0.91821c-0.33385-0.86998-0.60699-1.995-0.60699-2.5 0-0.50501-1.5225-0.91821-3.3834-0.91821-2.8149 0-3.4637 0.4201-3.8613 2.5-0.45209 2.365-0.23657 2.5 3.9904 2.5 3.6637 0 4.359-0.28484 3.8613-1.5818zm9.393-0.97858c0-2.3472-0.31228-2.5345-3.75-2.25-3.0122 0.24931-3.8129 0.75304-4.0696 2.5604-0.28647 2.0171 0.10171 2.25 3.75 2.25 3.6998 0 4.0696-0.23265 4.0696-2.5604zm9.607 0.97858c-0.33385-0.86998-0.60699-1.995-0.60699-2.5 0-0.50501-1.575-0.91821-3.5-0.91821-3.0667 0-3.5 0.30952-3.5 2.5 0 2.2608 0.39287 2.5 4.107 2.5 3.3342 0 3.9928-0.29764 3.5-1.5818zm-38.424-7.9734c-0.36733-3.1465-0.71099-3.5202-2.9891-3.25-2.0818 0.24686-2.644 0.92679-2.9397 3.5552-0.34802 3.0935-0.20406 3.25 2.9891 3.25 3.2551 0 3.3424-0.10561 2.9397-3.5552zm18.447 1.3052c-0.33164-1.2375-0.60913-2.8125-0.61664-3.5-8e-3 -0.6875-1.1386-1.25-2.5136-1.25-1.7978 0-2.5 0.53879-2.5 1.9182 0 1.055-0.27314 2.63-0.60699 3.5-0.48652 1.2679 0.13202 1.5818 3.1166 1.5818 3.3735 0 3.6669-0.21155 3.1206-2.25zm8.3697 0.25c0-1.1-0.45-2-1-2s-1-0.675-1-1.5c0-0.91684-0.93345-1.5-2.401-1.5-2.0963 0-2.3884 0.44426-2.3018 3.5 0.0928 3.2733 0.31308 3.5 3.401 3.5 2.6351 0 3.3018-0.40382 3.3018-2zm8 0c0-1.1-0.45-2-1-2s-1-0.675-1-1.5c0-0.92163-0.93655-1.5-2.4289-1.5-2.1428 0-2.4078 0.41181-2.25 3.4955 0.16579 3.2393 0.41716 3.4958 3.4289 3.5 2.5848 4e-3 3.25-0.40486 3.25-1.9955zm-29.563-10.304c-0.2878-0.74999-0.39136-5.151-0.23014-9.78l0.29313-8.4164h26v19l-12.77 0.28003c-10.056 0.22052-12.881-0.01-13.293-1.0836zm22.563-2.6964c0-0.59649-3.8333-1-9.5-1s-9.5 0.40351-9.5 1 3.8333 1 9.5 1 9.5-0.40351 9.5-1zm-4.7835-2.7384c-2.9059-0.20265-7.4059-0.20052-10 5e-3 -2.5941 0.20525-0.21648 0.37104 5.2835 0.36844 5.5-3e-3 7.6224-0.17053 4.7165-0.37317zm4.7835-6.2616v-3h-19v6h19zm-136-2.25-2.4e-4 -6.75h3.5c1.925 0 3.5 0.45 3.5 1s1.125 1 2.5 1 2.5-0.45 2.5-1 1.35-1 3-1h3v13.864l-18-0.36369zm20.702 6.6193c-0.38645-0.38645-0.70264-3.4911-0.70264-6.8993v-6.1966l19.083 0.0894-0.29156 6.5686-0.29155 6.5686-8.5474 0.28598c-4.701 0.15728-8.8635-0.0302-9.25-0.41667zm20 0c-0.38645-0.38645-0.70264-3.5526-0.70264-7.036v-6.3333h3.5c1.925 0 3.5 0.45 3.5 1s1.125 1 2.5 1 2.5-0.45 2.5-1 1.5956-1 3.5457-1h3.5457l-0.59138 13.5-8.5474 0.28598c-4.701 0.15728-8.8635-0.0302-9.25-0.41667zm-87.98-16.447c-22.734-3.6353-31.883-32.774-15.776-50.248 11.47-12.443 31.077-12.227 42.491 0.46794 5.3373 5.9364 7.5626 12.079 7.5626 20.877 0 18.175-16.159 31.801-34.277 28.903zm8.216-4.348c0.65096-0.78435 1.0436-3.3719 0.87245-5.75-0.29274-4.0685-0.48829-4.3239-3.3111-4.3239s-3.0184 0.25537-3.3111 4.3239c-0.43944 6.1075 2.7806 9.3277 5.7498 5.75zm-11.139-4.7739c1.7514-1.7514 1.4701-3.5851-0.73055-4.7628-2.7449-1.469-5.5013 1.2873-4.0323 4.0323 1.1778 2.2007 3.0115 2.4819 4.7628 0.73055zm21.596-1.3902c0.33562-0.87463 0.28867-2.1121-0.10434-2.75s0.50553-0.36188 1.9968 0.6133c1.4912 0.97518 2.7113 1.3695 2.7113 0.87616 0-0.98082-9.9482-12.583-13.21-15.407-2.0181-1.7469-2.006-1.7844 1.9773-6.1057 4.1726-4.5267 6.7163-8.4863 5.9464-9.2562-1.2625-1.2625-13.714 10.486-13.714 12.939 0 0.4811 2.9988 3.981 6.6641 7.7775 3.865 4.0034 6.0166 6.9028 5.1224 6.9028-2.1612 0-3.9407 2.4345-3.1968 4.3733 0.80195 2.0898 5.0084 2.1163 5.8065 0.03651zm-28.728-6.9873c0.78366-2.0422-2.0484-4.8742-4.0906-4.0906-0.86765 0.33295-1.5775 1.7445-1.5775 3.1367 0 2.0418 0.48954 2.5314 2.5314 2.5314 1.3923 0 2.8038-0.70989 3.1368-1.5775zm35.832-2.4225c0-1.8327-0.60174-2.5854-2.2545-2.8201-1.3523-0.19202-2.4956 0.3082-2.857 1.25-0.99567 2.5947 0.39988 4.7392 2.857 4.3903 1.6527-0.23469 2.2545-0.98741 2.2545-2.8201zm-36.082-5.607c2.3089-0.88602 1.9655-5.1173-0.52351-6.4494-2.6622-1.4247-8.5124-0.38243-9.2946 1.656-1.089 2.8378 1.214 5.4004 4.8533 5.4004 1.8607 0 4.0948-0.27314 4.9648-0.60699zm40.616-2.4569c1.7698-3.3069-0.46711-5.0905-5.9376-4.7342-3.4812 0.2267-4.6609 0.73159-4.9222 2.1066-0.67575 3.5569 0.59614 4.6916 5.259 4.6916 3.5192 0 4.7362-0.4485 5.6008-2.0639zm-41.534-11.936c0-1.8327-0.60174-2.5854-2.2545-2.8201-2.4571-0.34891-3.8527 1.7956-2.857 4.3903 0.3614 0.9418 1.5047 1.442 2.857 1.25 1.6527-0.23469 2.2545-0.98741 2.2545-2.8201zm36.395 0.62675c1.6434-1.9802 0.2735-4.6267-2.3948-4.6267s-4.0382 2.6466-2.3948 4.6267c1.4537 1.7516 3.3359 1.7516 4.7896 0zm-18.477-4.2337c2.2815-0.87548 2.2359-10.205-0.0541-11.084-2.6625-1.0217-4.8418 1.1293-5.1786 5.1116-0.43744 5.1717 1.5141 7.3989 5.2327 5.9719zm-10.523-2.7663c1.6434-1.9802 0.2735-4.6267-2.3948-4.6267s-4.0382 2.6466-2.3948 4.6267c1.4537 1.7516 3.3359 1.7516 4.7896 0zm21.565-1.3816c0.91286-2.3789-2.0601-4.9868-4.1687-3.6567-2.3749 1.4981-2.6196 2.9399-0.80646 4.753 1.783 1.783 4.063 1.2806 4.9751-1.0963zm29.541 47.255c0-1.2222 1.6667-1.5 9-1.5s9 0.27778 9 1.5-1.6667 1.5-9 1.5-9-0.27778-9-1.5zm20.25 0.25c0.58613-1.7584 17.914-1.7584 18.5 0 0.31418 0.94253-1.9611 1.25-9.25 1.25s-9.5642-0.30747-9.25-1.25zm20 0c0.58613-1.7584 17.914-1.7584 18.5 0 0.31418 0.94253-1.9611 1.25-9.25 1.25s-9.5642-0.30747-9.25-1.25zm-29.547-4.3807c-0.38645-0.38646-0.70264-3.5526-0.70264-7.036v-6.3333h3.5c1.925 0 3.5 0.45 3.5 1s1.125 1 2.5 1 2.5-0.45 2.5-1 1.5956-1 3.5457-1h3.5457l-0.59138 13.5-8.5474 0.28598c-4.701 0.15729-8.8635-0.03021-9.25-0.41667zm19.297-6.3693v-7h3.5c1.925 0 3.5 0.45 3.5 1s1.125 1 2.5 1 2.5-0.45 2.5-1 1.35-1 3-1h3v14h-18zm-20-10c0-0.59649 3.8333-1 9.5-1s9.5 0.40351 9.5 1-3.8333 1-9.5 1-9.5-0.40351-9.5-1zm20 0c0-0.59259 3.6667-1 9-1s9 0.40741 9 1-3.6667 1-9 1-9-0.40741-9-1z" fill="#f8f8f8"/>
 <path d="m67.866 307.88-1.7644-3.2437 2.0144 2.3608c1.7141 2.0088 2.6303 4.1548 1.7644 4.1329-0.1375-3e-3 -1.044-1.466-2.0144-3.25zm4.4223 0.25632c0-1.375 0.22698-1.9375 0.50439-1.25s0.27741 1.8125 0 2.5-0.50439 0.125-0.50439-1.25zm-9.1579-2.941c0-0.58246 0.45-1.059 1-1.059 1.2814 0 1.2814 0.70806 0 1.5-0.55 0.33992-1 0.14148-1-0.44098zm9.8724-0.80902c-1.2439-1.5861-1.2085-1.6214 0.37756-0.37756 0.9625 0.75485 1.75 1.5424 1.75 1.75 0 0.82304-0.82119 0.29331-2.1276-1.3724zm46.128-27.211v-6.9611l17.5-0.57787 0.27274-17.667 0.27273-17.667-18.045-10.415v-46.751h208v18.067c0 17.348-0.0763 18.043-1.9158 17.459-2.7512-0.8732-3.3644 0.8669-1.7049 4.8385 1.372 3.2837 1.3223 3.5665-1.0113 5.7588-3.3926 3.1871-8.2377 13.433-8.9849 19.001-0.78432 5.8441 0.90968 11.102 4.5688 14.181 1.5501 1.3043 3.1184 3.7376 3.4851 5.4072 0.3667 1.6696 1.7684 4.0706 3.1149 5.3355 2.1654 2.0343 2.4481 3.1459 2.4481 9.6256v7.3257h-208zm170-47.039v-51h-131v102h131zm-72 41.5c0-1.2994 3.9444-1.5 29.5-1.5s29.5 0.20056 29.5 1.5-3.9444 1.5-29.5 1.5-29.5-0.20056-29.5-1.5zm0-7.5c0-1.9548 0.66667-2 29.5-2s29.5 0.0452 29.5 2-0.66667 2-29.5 2-29.5-0.0452-29.5-2zm0-7c0-1.9548 0.66667-2 29.5-2s29.5 0.0452 29.5 2-0.66667 2-29.5 2-29.5-0.0452-29.5-2zm0-8c0-1.9548 0.66667-2 29.5-2s29.5 0.0452 29.5 2-0.66667 2-29.5 2-29.5-0.0452-29.5-2zm0.45031-10.269c-0.2678-0.69789-0.36618-12.285-0.21861-25.75l0.2683-24.481 58-0.0453-57.5 0.57552v49.94l58.5 0.56161-29.281 0.2343c-22.908 0.1833-29.387-0.0419-29.768-1.0346zm12.3-3.4751c7.3504-0.30016 8.25-0.54616 8.25-2.256s-0.8996-1.9558-8.25-2.256l-8.25-0.3369 17.5-0.40709v6l-17.5-0.40709zm27-4e-3c13.344-0.28739 14.25-0.4306 14.25-2.252s-0.90606-1.9646-14.25-2.2523l-14.25-0.3072 29.5-0.44052v6l-29.5-0.44052 14.25-0.3072zm-18.75-10.712c0-2.3868-0.24416-2.4695-8.25-2.7964l-8.25-0.3369 17.5-0.40709v3c0 1.65-0.225 3-0.5 3s-0.5-1.1068-0.5-2.4596zm33-0.013v-2.4726l-28.5-0.61439 29.5-0.4405v3c0 1.65-0.225 3-0.5 3s-0.5-1.1126-0.5-2.4725zm-14.314-6.2748 14.186-0.3068 0.41398-2.7229c0.38027-2.5012 0.42618-2.4583 0.56381 0.52707l0.14983 3.25-29.5-0.44052 14.186-0.30681zm-18.686-10.712c0-2.3868-0.24416-2.4695-8.25-2.7964l-8.25-0.3369 17.5-0.40709v3c0 1.65-0.225 3-0.5 3s-0.5-1.1068-0.5-2.4596zm18.705 1.7121 14.205-0.30692 0.69842-13.446 0.39172 14.5-29.5-0.44052zm-27.018-7.9955c8.034-0.32959 8.1951-0.38666 8.6002-3.0464 0.37685-2.4746 0.42583-2.4276 0.56262 0.53943l0.14983 3.25-17.5-0.40709zm-51.687-7.9679c0-0.57432 0.7875-1.6618 1.75-2.4167 1.6188-1.2695 1.64-1.2224 0.28297 0.62756-0.80687 1.1-1.5944 2.1875-1.75 2.4167-0.15563 0.22916-0.28297-0.0532-0.28297-0.62756zm7.731-4.945c0.67703-0.27392 2.027-0.29059 3-0.0371 0.97297 0.25354 0.41903 0.47766-1.231 0.49804-1.65 0.0204-2.4461-0.18706-1.769-0.46099zm185.27 1.2336v-11.578l8.25 0.0153c4.5375 8e-3 8.8417 0.39052 9.5649 0.84911 0.84318 0.53469 1.2019 2.3684 1 5.1116-0.30635 4.162-0.56528 4.4524-9.5649 10.729l-9.25 6.4508v-11.578zm5.3099-74.078c-6e-3 -3.3 0.17648-4.7706 0.40466-3.2679 0.22817 1.5026 0.23276 4.2026 0.0102 6s-0.40925 0.56791-0.41486-2.7321zm1.5696-7.7832c0.43276-0.43075 6.1494-0.6537 12.704-0.49545l11.917 0.28773-12.704 0.49545c-6.987 0.2725-12.35 0.14302-11.917-0.28773z" fill="#6cc6bd"/>
 <path d="m139.42 392.64c8e-3 -2.75 0.20172-3.7563 0.43157-2.2362 0.22986 1.5201 0.22371 3.7701-0.0136 5-0.23736 1.2299-0.42542-0.0138-0.41792-2.7638zm23 0c8e-3 -2.75 0.20172-3.7563 0.43157-2.2362 0.22986 1.5201 0.22371 3.7701-0.0136 5-0.23736 1.2299-0.42542-0.0138-0.41792-2.7638zm32 0c8e-3 -2.75 0.20172-3.7563 0.43157-2.2362 0.22986 1.5201 0.22371 3.7701-0.0136 5-0.23736 1.2299-0.42542-0.0138-0.41792-2.7638zm9 0c8e-3 -2.75 0.20172-3.7563 0.43157-2.2362 0.22986 1.5201 0.22371 3.7701-0.0136 5-0.23736 1.2299-0.42542-0.0138-0.41792-2.7638zm5 0c8e-3 -2.75 0.20172-3.7563 0.43157-2.2362 0.22986 1.5201 0.22371 3.7701-0.0136 5-0.23736 1.2299-0.42542-0.0138-0.41792-2.7638zm50 0c8e-3 -2.75 0.20172-3.7563 0.43157-2.2362 0.22986 1.5201 0.22371 3.7701-0.0136 5-0.23736 1.2299-0.42542-0.0138-0.41792-2.7638zm32 0c8e-3 -2.75 0.20172-3.7563 0.43157-2.2362 0.22986 1.5201 0.22371 3.7701-0.0136 5-0.23736 1.2299-0.42542-0.0138-0.41792-2.7638zm-150.89-10.905c-0.29649-0.77265-0.35439-2.9102-0.12866-4.75 0.37016-3.017 0.42612-2.9283 0.57046 0.9048l0.16004 4.25h3.9425c3.9115 0 3.9455-0.0334 4.3253-4.25l0.3828-4.25 0.1747 4.75 0.17471 4.75h-4.5314c-2.9689 0-4.7173-0.48439-5.0705-1.4048zm13.777-3.2904 0.1747-4.8048 0.3828 4.25c0.37873 4.205 0.42391 4.25 4.2678 4.25 3.8384 0 3.89-0.0509 4.3024-4.25l0.41744-4.25-0.21988 9-9.5 0.60958zm16.089 3.9776c1.5201-0.22986 3.7701-0.22371 5 0.0136 1.2299 0.23736-0.0137 0.42542-2.7638 0.41792-2.75-8e-3 -3.7563-0.20172-2.2362-0.43157zm14 0c1.5201-0.22986 3.7701-0.22371 5 0.0136 1.2299 0.23736-0.0137 0.42542-2.7638 0.41792-2.75-8e-3 -3.7563-0.20172-2.2362-0.43157zm11.157-0.62928c-0.30872-0.80451-0.37662-2.9681-0.15089-4.8079 0.37016-3.017 0.42612-2.9283 0.57046 0.9048l0.16004 4.25h3.9425c3.8192 0 3.9548-0.11724 4.3355-3.75l0.39301-3.75-0.0855 4c-0.085 3.9769-0.11013 4.0018-4.3447 4.3079-3.0291 0.21901-4.4213-0.1145-4.8205-1.1548zm13.754-3.4031 0.1747-4.75 0.38012 4.1952c0.37397 4.1274 0.44789 4.2013 4.5753 4.5753l4.1952 0.38012-9.5 0.34941zm16.089 4.0324c1.5201-0.22986 3.7701-0.22371 5 0.0136 1.2299 0.23736-0.0137 0.42542-2.7638 0.41792-2.75-8e-3 -3.7563-0.20172-2.2362-0.43157zm11.134-0.68722c-0.29649-0.77265-0.35439-2.9102-0.12866-4.75 0.37016-3.017 0.42612-2.9283 0.57046 0.9048l0.16004 4.25h3.9425c3.9115 0 3.9455-0.0334 4.3253-4.25l0.3828-4.25 0.1747 4.75 0.17471 4.75h-4.5314c-2.9689 0-4.7173-0.48439-5.0705-1.4048zm13.777-3.2904 0.1747-4.8048 0.3828 4.25c0.37873 4.205 0.42391 4.25 4.2678 4.25 3.8384 0 3.89-0.0509 4.3024-4.25l0.41744-4.25-0.21988 9-9.5 0.60958zm16.089 3.9776c1.5201-0.22986 3.7701-0.22371 5 0.0136 1.2299 0.23736-0.0138 0.42542-2.7638 0.41792-2.75-8e-3 -3.7563-0.20172-2.2362-0.43157zm14 0c1.5201-0.22986 3.7701-0.22371 5 0.0136 1.2299 0.23736-0.0138 0.42542-2.7638 0.41792-2.75-8e-3 -3.7563-0.20172-2.2362-0.43157zm11.134-0.68722c-0.29649-0.77265-0.35439-2.9102-0.12866-4.75 0.37016-3.017 0.42612-2.9283 0.57046 0.9048l0.16004 4.25h3.9425c3.9115 0 3.9455-0.0334 4.3253-4.25l0.3828-4.25 0.1747 4.75 0.17471 4.75h-4.5314c-2.9689 0-4.7173-0.48439-5.0705-1.4048zm13.777-3.3452 0.1747-4.75 0.38012 4.1952c0.37397 4.1274 0.44789 4.2013 4.5753 4.5753l4.1952 0.38012-9.5 0.34941zm-164.76-14.75 0.0855-4 9.5-0.60958-0.17471 4.8048-0.1747 4.8048-0.3828-4.25c-0.37872-4.205-0.4239-4.25-4.2678-4.25-3.7528 0-3.8984 0.12761-4.278 3.75l-0.39301 3.75 0.0855-4zm13.76 0.19521-0.17471-4.8048 9.5 0.60958 0.21988 9-0.41744-4.25c-0.41243-4.1991-0.46399-4.25-4.3024-4.25-3.8439 0-3.8891 0.045-4.2678 4.25l-0.3828 4.25zm41.24-0.19521 0.0855-4h9l0.21988 9-0.41744-4.25c-0.41242-4.1991-0.46398-4.25-4.3024-4.25-3.7528 0-3.8984 0.12761-4.278 3.75l-0.39301 3.75 0.0855-4zm13.76 0.25-0.17471-4.75 9.5 0.34941-4.1952 0.38012c-4.1274 0.37397-4.2013 0.44789-4.5753 4.5753l-0.38012 4.1952zm27.24-0.25 0.0855-4 9.5-0.60958-0.17471 4.8048-0.1747 4.8048-0.3828-4.25c-0.37872-4.205-0.4239-4.25-4.2678-4.25-3.7528 0-3.8984 0.12761-4.278 3.75l-0.39301 3.75 0.0855-4zm13.76 0.19521-0.17471-4.8048 9.5 0.60958 0.21988 9-0.41744-4.25c-0.41243-4.1991-0.46399-4.25-4.3024-4.25-3.8439 0-3.8891 0.045-4.2678 4.25l-0.3828 4.25zm41.24-0.19521 0.0855-4 9.5-0.60958-0.17471 4.8048-0.1747 4.8048-0.3828-4.25c-0.37872-4.205-0.4239-4.25-4.2678-4.25-3.7528 0-3.8984 0.12761-4.278 3.75l-0.39301 3.75 0.0855-4zm13.76 0.25-0.17471-4.75 9.5 0.34941-4.1952 0.38012c-4.1274 0.37397-4.2013 0.44789-4.5753 4.5753l-0.38012 4.1952zm-134.91-4.4676c1.5201-0.22986 3.7701-0.22371 5 0.0136 1.2299 0.23736-0.0137 0.42542-2.7638 0.41792-2.75-8e-3 -3.7563-0.20172-2.2362-0.43157zm14 0c1.5201-0.22986 3.7701-0.22371 5 0.0136 1.2299 0.23736-0.0137 0.42542-2.7638 0.41792-2.75-8e-3 -3.7563-0.20172-2.2362-0.43157zm41 0c1.5201-0.22986 3.7701-0.22371 5 0.0136 1.2299 0.23736-0.0137 0.42542-2.7638 0.41792-2.75-8e-3 -3.7563-0.20172-2.2362-0.43157zm41 0c1.5201-0.22986 3.7701-0.22371 5 0.0136 1.2299 0.23736-0.0138 0.42542-2.7638 0.41792-2.75-8e-3 -3.7563-0.20172-2.2362-0.43157zm14 0c1.5201-0.22986 3.7701-0.22371 5 0.0136 1.2299 0.23736-0.0138 0.42542-2.7638 0.41792-2.75-8e-3 -3.7563-0.20172-2.2362-0.43157zm97.736-7.2824-6.5-0.6548 6.75-0.1726c3.9484-0.10096 6.75 0.24245 6.75 0.8274 0 0.55-0.1125 0.92233-0.25 0.8274-0.1375-0.0949-3.175-0.46726-6.75-0.8274zm-12.269-0.65594c0.67703-0.27392 2.027-0.29059 3-0.0371 0.97297 0.25354 0.41903 0.47766-1.231 0.49804-1.65 0.0204-2.4461-0.18706-1.769-0.46099zm2.6672-7.7489c-0.29649-0.77265-0.38173-2.9102-0.18943-4.75 0.30657-2.933 0.40855-2.7599 0.82767 1.4048 0.49021 4.8712 0.30994 5.8161-0.63824 3.3452zm-305.71-0.5869c-2.647-0.47324-5.9474-1.6039-7.3342-2.5126-2.3618-1.5475-2.4172-1.7674-0.87572-3.4707 2.2369-2.4718 10.812-4.6562 11.397-2.9032 0.68759 2.0628 4.9181 5.8782 6.5177 5.8782 1.148 0 1.3487-0.82525 0.88908-3.6574l-0.59351-3.6574 4.7599 0.65242c9.8359 1.3482 13.602 5.4905 7.3615 8.0978-4.3784 1.8294-16.046 2.659-22.121 1.5728zm127.56 0.24215c18.562-0.15238 48.938-0.15238 67.5 0s3.375 0.27706-33.75 0.27706-52.312-0.12468-33.75-0.27706zm182.83-0.66712c-0.0434-1.0542 0.19293-1.6448 0.52522-1.3125s0.36781 1.1948 0.0789 1.9167c-0.31922 0.79773-0.55618 0.56078-0.60416-0.60417zm-307-21.969c0.41756-2.2631 0.51476-5.3523 0.216-6.8648-0.48066-2.4334-0.24426-2.75 2.0532-2.75 2.0701 0 2.7866 0.65877 3.5348 3.25l0.9384 3.25 0.0902-3.75c0.0796-3.3093 0.384-3.75 2.5902-3.75 2.3214 0 2.5 0.34488 2.5 4.8268 0 4.7288-0.0574 4.8184-2.8272 4.4118-2.1653-0.31779-3.2038 0.15977-4.4356 2.0397-0.88459 1.3501-2.4658 2.6789-3.5138 2.953-1.7298 0.45235-1.8354 0.119-1.1462-3.6165zm97.385-90.615c0-26.125 0.12919-36.812 0.28709-23.75 0.15789 13.062 0.15789 34.438 0 47.5-0.1579 13.062-0.28709 2.375-0.28709-23.75zm176.31 41.266c2.352-0.21124 5.952-0.20827 8 7e-3 2.048 0.21487 0.12357 0.38771-4.2764 0.38408-4.4-4e-3 -6.0756-0.17944-3.7236-0.39069zm-205.38-18.766c2e-3 -7.7 0.15853-10.718 0.34883-6.7062s0.18902 10.312-3e-3 14c-0.19169 3.6884-0.34739 0.40625-0.34583-7.2938zm238.61 7c0.68469-0.825 1.4699-1.5 1.7449-1.5s-0.0602 0.675-0.74489 1.5-1.4699 1.5-1.7449 1.5 0.0602-0.675 0.74489-1.5zm-30.921-7.9167c-0.0434-1.0542 0.19293-1.6448 0.52522-1.3125 0.33229 0.3323 0.36781 1.1948 0.0789 1.9167-0.31922 0.79773-0.55618 0.56078-0.60416-0.60417zm-239.33-7.2456c0.6875-0.27741 1.8125-0.27741 2.5 0s0.125 0.50439-1.25 0.50439-1.9375-0.22698-1.25-0.50439zm-3.75-13.838c0.68469-0.825 1.4699-1.5 1.7449-1.5s-0.0602 0.675-0.74489 1.5-1.4699 1.5-1.7449 1.5 0.0602-0.675 0.74489-1.5zm277 0.5c0-0.55 0.45-1 1-1s1 0.45 1 1-0.45 1-1 1-1-0.45-1-1zm5 0c0-0.55 0.675-1 1.5-1s1.5 0.45 1.5 1-0.675 1-1.5 1-1.5-0.45-1.5-1zm5.2292-0.1875c0.61807-1.8542 2.7708-2.1618 2.7708-0.39583 0 0.87083-0.7125 1.5833-1.5833 1.5833-0.87084 0-1.4052-0.53438-1.1875-1.1875zm-10.562-3.4792c-1.1506-1.1506-0.72824-2.3333 0.83333-2.3333 0.825 0 1.5 0.675 1.5 1.5 0 1.5616-1.1827 1.984-2.3333 0.83333zm5.3333-0.83333c0-0.825 0.675-1.5 1.5-1.5s1.5 0.675 1.5 1.5-0.675 1.5-1.5 1.5-1.5-0.675-1.5-1.5zm5 0c0-0.825 0.675-1.5 1.5-1.5s1.5 0.675 1.5 1.5-0.675 1.5-1.5 1.5-1.5-0.675-1.5-1.5zm-281.73-0.10417c0.3323-0.33229 1.1948-0.36781 1.9167-0.0789 0.79773 0.31922 0.56078 0.55618-0.60417 0.60416-1.0542 0.0434-1.6448-0.19292-1.3125-0.52522zm-68.818-36.896c-3.1e-4 -20.35 0.13278-28.817 0.29575-18.815 0.16297 10.002 0.16322 26.652 5.6e-4 37-0.16266 10.348-0.296 2.1654-0.29631-18.185zm340.21 33.833c-1.1506-1.1506-0.72824-2.3333 0.83333-2.3333 0.825 0 1.5 0.675 1.5 1.5 0 1.5616-1.1827 1.984-2.3333 0.83333zm5.3333-1.3333c0-0.55 0.675-1 1.5-1s1.5 0.45 1.5 1-0.675 1-1.5 1-1.5-0.45-1.5-1zm5 0c0-0.55 0.675-1 1.5-1s1.5 0.45 1.5 1-0.675 1-1.5 1-1.5-0.45-1.5-1zm-343-6c0-0.55 2.475-1 5.5-1s5.5 0.45 5.5 1-2.475 1-5.5 1-5.5-0.45-5.5-1zm14 0c0-0.55 2.475-1 5.5-1s5.5 0.45 5.5 1-2.475 1-5.5 1-5.5-0.45-5.5-1zm14 0c0-0.55 2.475-1 5.5-1s5.5 0.45 5.5 1-2.475 1-5.5 1-5.5-0.45-5.5-1zm288.75 0.33772c0.6875-0.27741 1.8125-0.27741 2.5 0s0.125 0.50439-1.25 0.50439-1.9375-0.22698-1.25-0.50439zm5.7571-0.32627c-0.35034-0.56686 0.0511-0.7345 0.94098-0.39301 1.7324 0.66479 2.0494 1.3816 0.61096 1.3816-0.51754 0-1.2159-0.44485-1.5519-0.98855zm-20.507-4.0114c-0.825-0.53316-1.05-0.96937-0.5-0.96937s1.675 0.43621 2.5 0.96937 1.05 0.96937 0.5 0.96937-1.675-0.43621-2.5-0.96937zm-302-1c0-0.55 2.475-1 5.5-1s5.5 0.45 5.5 1-2.475 1-5.5 1-5.5-0.45-5.5-1zm14 0c0-0.55 2.475-1 5.5-1s5.5 0.45 5.5 1-2.475 1-5.5 1-5.5-0.45-5.5-1zm14 0c0-0.55 2.475-1 5.5-1s5.5 0.45 5.5 1-2.475 1-5.5 1-5.5-0.45-5.5-1zm117.86-5.1373c0.24525-3.5334-0.0639-5.3803-1-5.9735-2.1188-1.3426-10.616-1.0687-11.193 0.36077-0.34074 0.84445-0.51537 0.76334-0.53823-0.25-0.0186-0.825 0.50836-2.7321 1.171-4.238l1.2049-2.738 9.7491 6.3747 3.6254-4.2148c1.994-2.3182 3.9514-4.2079 4.3498-4.1994 1.2284 0.0263 3.7757 5.7712 3.7757 8.5155 0 5.3375-3.395 9.242-9.5 10.926-1.8417 0.50798-1.9719 0.1468-1.645-4.5632zm-145.86 0.1373c0-0.55 2.475-1 5.5-1s5.5 0.45 5.5 1-2.475 1-5.5 1-5.5-0.45-5.5-1zm14 0c0-0.55 2.475-1 5.5-1s5.5 0.45 5.5 1-2.475 1-5.5 1-5.5-0.45-5.5-1zm14 0c0-0.55 2.475-1 5.5-1s5.5 0.45 5.5 1-2.475 1-5.5 1-5.5-0.45-5.5-1zm-28-5c0-0.55 2.475-1 5.5-1s5.5 0.45 5.5 1-2.475 1-5.5 1-5.5-0.45-5.5-1zm14 0c0-0.55 2.475-1 5.5-1s5.5 0.45 5.5 1-2.475 1-5.5 1-5.5-0.45-5.5-1zm14 0c0-0.55 2.475-1 5.5-1s5.5 0.45 5.5 1-2.475 1-5.5 1-5.5-0.45-5.5-1zm-28-5c0-0.55 2.475-1 5.5-1s5.5 0.45 5.5 1-2.475 1-5.5 1-5.5-0.45-5.5-1zm14 0c0-0.55 2.475-1 5.5-1s5.5 0.45 5.5 1-2.475 1-5.5 1-5.5-0.45-5.5-1zm14 0c0-0.55 2.475-1 5.5-1s5.5 0.45 5.5 1-2.475 1-5.5 1-5.5-0.45-5.5-1zm-28-5c0-0.55 2.475-1 5.5-1s5.5 0.45 5.5 1-2.475 1-5.5 1-5.5-0.45-5.5-1zm14 0c0-0.55 2.475-1 5.5-1s5.5 0.45 5.5 1-2.475 1-5.5 1-5.5-0.45-5.5-1zm14 0c0-0.55 2.475-1 5.5-1s5.5 0.45 5.5 1-2.475 1-5.5 1-5.5-0.45-5.5-1zm-28-5c0-0.55 2.475-1 5.5-1s5.5 0.45 5.5 1-2.475 1-5.5 1-5.5-0.45-5.5-1zm14 0c0-0.55 1.125-1 2.5-1s2.5 0.45 2.5 1-1.125 1-2.5 1-2.5-0.45-2.5-1zm14 0c0-0.55 2.475-1 5.5-1s5.5 0.45 5.5 1-2.475 1-5.5 1-5.5-0.45-5.5-1zm320.16-2.6667c-0.088-2.2917-0.72254-4.3936-1.41-4.671-0.97906-0.39506-0.97226-0.5215 0.0314-0.58333 1.7432-0.1074 2.4409 2.0676 1.9491 6.0758-0.37762 3.0778-0.42322 3.0122-0.57046-0.82147zm-348.16-1.8333c0-1.1515 1.2778-1.5 5.5-1.5s5.5 0.34848 5.5 1.5-1.2778 1.5-5.5 1.5-5.5-0.34848-5.5-1.5zm14 0c0-1.3073 0.97242-1.5485 5.25-1.3023 6.7982 0.3914 6.7982 2.2131 0 2.6045-4.2776 0.24627-5.25 5e-3 -5.25-1.3023zm14 0c0-1.1515 1.2778-1.5 5.5-1.5s5.5 0.34848 5.5 1.5-1.2778 1.5-5.5 1.5-5.5-0.34848-5.5-1.5zm269-6v-7.5h19c16.114 0 19 0.22498 19 1.481 0 1.6942 4.2033 3.0387 6.6112 2.1148 0.92801-0.35611 1.4218-1.3597 1.1602-2.3578-0.42359-1.6161 1.0042-1.7176 20.387-1.4492l20.842 0.28861v14.923h-31v-3.3776c0-5.2448-1.3281-5.7189-15.141-5.4041l-12.359 0.28166-0.615 8.5h-27.885zm-298-5v-6.5h41v13h-41zm13 3.5c0-0.55-2.475-1-5.5-1s-5.5 0.45-5.5 1 2.475 1 5.5 1 5.5-0.45 5.5-1zm13 0c0-0.55-2.475-1-5.5-1s-5.5 0.45-5.5 1 2.475 1 5.5 1 5.5-0.45 5.5-1zm13 0c0-0.55-2.475-1-5.5-1s-5.5 0.45-5.5 1 2.475 1 5.5 1 5.5-0.45 5.5-1zm-26-4c0-0.55-2.475-1-5.5-1s-5.5 0.45-5.5 1 2.475 1 5.5 1 5.5-0.45 5.5-1zm13 0c0-0.55-2.475-1-5.5-1s-5.5 0.45-5.5 1 2.475 1 5.5 1 5.5-0.45 5.5-1zm13 0c0-0.55-2.475-1-5.5-1s-5.5 0.45-5.5 1 2.475 1 5.5 1 5.5-0.45 5.5-1zm-8.6981-3.7444c-5.0589-0.18111-13.609-0.1819-19-2e-3 -5.3911 0.18015-1.2519 0.32834 9.1981 0.3293s14.861-0.14644 9.8019-0.32755zm271.95-7.3971c-0.6875-0.69218-1.25-3.0155-1.25-5.1628 0-5.2356 9.4481-29.196 12.3-31.194 1.5678-1.0981 4.8915-1.5021 12.359-1.5021h10.214l0.62672 6.5h26l0.31336-3.25c0.25505-2.6453 0.74612-3.25 2.6392-3.25 4.1091 0 6.323 3.2217 11.488 16.719 5.5096 14.396 6.0649 18.061 3.1376 20.71-1.7267 1.5626-3.7277 1.6813-19.75 1.1718-20.899-0.66466-18.299-0.66436-39.829-5e-3 -12.906 0.39551-17.301 0.21787-18.25-0.73752zm30.096-2.3585c4.4172-1.8456 10.659-1.9285 14.936-0.19841 3.88 1.5694 6.9455 1.0969 6.525-1.0058-0.52017-2.6011-9.6119-5.5632-15.32-4.9913-8.107 0.8121-14.334 4.515-11.82 7.0289 0.95254 0.95254 1.6498 0.85024 5.6791-0.83333zm40.654-10.147c0-2.0593-4.5582-13.053-5.8474-14.103-2.2035-1.7945-50.477-1.7945-51.897 0-1.1045 1.3953-5.2554 12.285-5.2554 13.788 0 0.59628 11.985 0.96249 31.5 0.96249 17.325 0 31.5-0.2913 31.5-0.64733zm-58-3.7936c0-1.3425 0.45-2.7191 1-3.059s1-1.4915 1-2.559 0.45-1.941 1-1.941 1.0355-0.7875 1.079-1.75c0.0472-1.0454 0.28201-1.2467 0.58333-0.5 0.27741 0.6875 1.3934 1.25 2.4801 1.25s1.6976 0.45 1.3576 1-1.7165 1-3.059 1-2.441 0.45-2.441 1 1.4625 1.0069 3.25 1.0153c2.4662 0.0116 2.8883 0.24909 1.75 0.98469-0.825 0.53316-2.7375 0.97627-4.25 0.98469-2.0782 0.0116-2.75 0.50387-2.75 2.0153 0 2.6712 5.6198 2.8938 6.3107 0.25 0.34415-1.3169 0.48604-1.1932 0.57333 0.5 0.10196 1.9777-0.36815 2.25-3.884 2.25-3.5742 0-4-0.25984-4-2.441zm9.079 0.69098c0.0472-1.0454 0.28201-1.2467 0.58333-0.5 0.27741 0.6875 1.7856 1.25 3.3515 1.25 2.1575 0 2.9521-0.54499 3.2805-2.25 0.37157-1.9292 0.45279-1.8578 0.56955 0.5 0.12699 2.5644-0.13384 2.75-3.8638 2.75-3.1729 0-3.9837-0.36184-3.921-1.75zm18.421 1.2435c2.3358-0.81421 8.5-1.0265 8.5-0.29273 0 0.43956-2.1375 0.76367-4.75 0.72025-2.6125-0.0434-4.3-0.2358-3.75-0.42752zm9.616-1.7435c0.0873-1.6932 0.22918-1.8169 0.57333-0.5 0.72208 2.7631 6.0542 2.3595 6.6049-0.5 0.37157-1.9292 0.45279-1.8578 0.56955 0.5 0.12699 2.5644-0.13384 2.75-3.8638 2.75-3.5158 0-3.986-0.27233-3.884-2.25zm9.884 1.855c0-0.21724 1.8-0.56663 4-0.77643s4-0.0321 4 0.39496c0 0.42704-1.8 0.77643-4 0.77643s-4-0.17773-4-0.39496zm0.079-3.0217c-0.0434-1.0542 0.19293-1.6448 0.52522-1.3125 0.33229 0.3323 0.36781 1.1948 0.0789 1.9167-0.31922 0.79773-0.55618 0.56078-0.60416-0.60417zm-36.824-5.8333c0.30039-2.6702 0.84555-3.3065 3.0555-3.5664 2.1542-0.2534 2.6899 0.0951 2.6899 1.75 0 1.5375-0.63988 2.0664-2.5 2.0664-3.6522 0-3.0579 1.804 0.75 2.2766 3.1536 0.39136 3.1371 0.40807-0.55555 0.56336-3.7282 0.15679-3.7981 0.094-3.4399-3.09zm3.9955-2.4123c-0.6875-0.27741-1.8125-0.27741-2.5 0s-0.125 0.50439 1.25 0.50439 1.9375-0.22698 1.25-0.50439zm13.75 4.8355c0-0.45474 1.35-0.62867 3-0.3865 1.8008 0.26431 3-5e-3 3-0.67319 0-0.61243-1.125-1.1135-2.5-1.1135-1.8333 0-2.5-0.53333-2.5-2 0-1.5393 0.63344-1.977 2.75-1.9003l2.75 0.0997-2.5 0.80062c-2.2669 0.72599-2.3002 0.80993-0.35699 0.90032 1.9545 0.0909 3.357 1.8378 3.357 4.1815 0 0.50501-1.575 0.91821-3.5 0.91821s-3.5-0.37206-3.5-0.82681zm8 0c0-0.45474 1.35-0.62867 3-0.3865 1.8008 0.26431 3-5e-3 3-0.67319 0-0.61243-1.0984-1.1135-2.441-1.1135-3.1427 0-4.4247-1.9677-1.368-2.0997 2.2779-0.0983 2.2754-0.11046-0.19098-0.90032l-2.5-0.80064 2.75-0.0997c1.8221-0.0661 2.75 0.40646 2.75 1.4003 0 0.825 0.45 1.5 1 1.5s1 0.9 1 2c0 1.619-0.66667 2-3.5 2-1.925 0-3.5-0.37206-3.5-0.82681zm10.75 0.10341c1.7875-0.22182 3.25-0.87727 3.25-1.4565s-1.1024-0.84247-2.4499-0.58489c-1.4966 0.2861-2.6517-0.0577-2.9686-0.88342-0.33441-0.87145 0.2696-1.3872 1.6999-1.4514 2.0952-0.0941 2.0796-0.1442-0.28138-0.90032l-2.5-0.80064 2.75-0.0997c1.8221-0.0661 2.75 0.40646 2.75 1.4003 0 0.825 0.45 1.5 1 1.5s1 0.9 1 2c0 1.6729-0.61332 1.9738-3.75 1.84-3.6921-0.15756-3.6998-0.16626-0.5-0.56336zm-350.5 18.979c4.8125-0.18331 12.688-0.18331 17.5 0 4.8125 0.18332 0.875 0.3333-8.75 0.3333s-13.562-0.14998-8.75-0.3333zm43.401-1.0054c-0.25673-0.4125 3.6542-0.6301 8.691-0.48356 16.541 0.48125 18.374 0.8701 4.9668 1.0533-7.255 0.0991-13.401-0.15725-13.658-0.56975zm-49.901-7.9557c1.2375-0.23836 3.2625-0.23836 4.5 0 1.2375 0.23835 0.225 0.43337-2.25 0.43337s-3.4875-0.19502-2.25-0.43337zm25.488 0.0186c0.95609-0.25029 2.7561-0.25937 4-0.0202 1.2439 0.23919 0.46166 0.44398-1.7383 0.45508s-3.2178-0.18461-2.2617-0.4349zm6.1802-20.313c0-10.725 0.14711-15.112 0.32692-9.75s0.17981 14.138 0 19.5-0.32692 0.975-0.32692-9.75zm36.967 7c0-6.875 0.15977-9.6875 0.35504-6.25s0.19527 9.0625 0 12.5-0.35504 0.625-0.35504-6.25zm18.033-7c0-10.725 0.14711-15.112 0.32692-9.75s0.17981 14.138 0 19.5-0.32692 0.975-0.32692-9.75zm-45.261 15c0-1.375 0.22697-1.9375 0.50438-1.25s0.27741 1.8125 0 2.5-0.50438 0.125-0.50438-1.25zm-27.908 0.31067c0.9625-0.25152 2.5375-0.25152 3.5 0 0.9625 0.25153 0.175 0.45733-1.75 0.45733s-2.7125-0.2058-1.75-0.45733zm44.908-2.3107c0-1.375 0.22698-1.9375 0.50439-1.25s0.27741 1.8125 0 2.5-0.50439 0.125-0.50439-1.25zm74.715-5.75c-1.2695-1.6188-1.2224-1.64 0.62756-0.28297 1.1 0.80687 2.1875 1.5944 2.4167 1.75 0.22916 0.15563-0.0532 0.28297-0.62756 0.28297-0.57432 0-1.6618-0.7875-2.4167-1.75zm89.328-1.45c-3.3943-3.3943 0.59738-9.0492 4.8-6.8 2.5791 1.3803 2.6189 5.5984 0.0657 6.9648-2.4943 1.3349-3.3966 1.3043-4.8657-0.16482zm58.371-0.37143c-2.0702-2.0702-1.9839-3.0161 0.50187-5.5019 1.8655-1.8655 2.2915-1.9287 4.25-0.63052 2.7899 1.8492 3.2046 4.033 1.1552 6.0824-2.0426 2.0427-3.8987 2.0584-5.9071 0.0499zm-73.905-9.0952c-0.36667-0.36666-0.66667-7.1432-0.66667-15.059 0-11.248-0.27312-14.228-1.25-13.641-0.72035 0.43278-0.61443-0.03511 0.25-1.1042 1.3814-1.7085 1.5187-1.4272 1.7366 3.558 0.28182 6.4487 0.79905 26.918 0.6801 26.915-0.0458-1e-3 -0.38334-0.30211-0.75-0.66878zm16.583-5.0227c0.9625-0.25152 2.5375-0.25152 3.5 0 0.9625 0.25153 0.175 0.45733-1.75 0.45733s-2.7125-0.2058-1.75-0.45733zm86.481 0.0334c0.67703-0.27392 2.027-0.29059 3-0.037 0.97297 0.25354 0.41903 0.47766-1.231 0.49804-1.65 0.0204-2.4461-0.18706-1.769-0.46099zm-23.316-18.344c0-10.175 0.1485-14.337 0.32999-9.25s0.18149 13.412 0 18.5-0.32999 0.925-0.32999-9.25zm23.316 11.344c0.67703-0.27392 2.027-0.29059 3-0.037 0.97297 0.25354 0.41903 0.47766-1.231 0.49804-1.65 0.0204-2.4461-0.18706-1.769-0.46099zm-263.98-2.0915c7.2875-0.17086 19.212-0.17086 26.5 0s1.325 0.31066-13.25 0.31066-20.538-0.1398-13.25-0.31066zm263.5 0.0581c0.9625-0.25152 2.5375-0.25152 3.5 0 0.9625 0.25153 0.175 0.45733-1.75 0.45733s-2.7125-0.2058-1.75-0.45733zm-128.98-0.91484c0.3323-0.33229 1.1948-0.36781 1.9167-0.0789 0.79773 0.31922 0.56078 0.55618-0.60417 0.60416-1.0542 0.0434-1.6448-0.19292-1.3125-0.52522zm128.98-1.0852c0.9625-0.25152 2.5375-0.25152 3.5 0 0.9625 0.25153 0.175 0.45733-1.75 0.45733s-2.7125-0.2058-1.75-0.45733zm-83.519-0.96661c0.67703-0.27392 2.027-0.29059 3-0.037 0.97297 0.25354 0.41903 0.47766-1.231 0.49804-1.65 0.0204-2.4461-0.18706-1.769-0.46099zm40 0c0.67703-0.27392 2.027-0.29059 3-0.037 0.97297 0.25354 0.41903 0.47766-1.231 0.49804-1.65 0.0204-2.4461-0.18706-1.769-0.46099zm-21.731-1.4215c-6.0994-0.54181-5.899-0.58804 3.25-0.75 9.6875-0.17149 12.72 0.28013 6.5 0.96799-1.7875 0.19768-6.175 0.0996-9.75-0.21799zm-212.73-4.9226c0-2.475 0.19502-3.4875 0.43337-2.25 0.23836 1.2375 0.23836 3.2625 0 4.5-0.23835 1.2375-0.43337 0.225-0.43337-2.25zm54.98 0.5c-0.0111-2.2 0.18461-3.2177 0.4349-2.2617s0.25937 2.7561 0.0202 4c-0.23919 1.2439-0.44398 0.46166-0.45508-1.7383zm86.019 1.8958c0.3323-0.33229 1.1948-0.36781 1.9167-0.0789 0.79773 0.31922 0.56078 0.55618-0.60417 0.60416-1.0542 0.0434-1.6448-0.19292-1.3125-0.52522zm5 0c0.3323-0.33229 1.1948-0.36781 1.9167-0.0789 0.79773 0.31922 0.56078 0.55618-0.60417 0.60416-1.0542 0.0434-1.6448-0.19292-1.3125-0.52522zm-135-7c0.33229-0.33229 1.1948-0.36782 1.9167-0.07895 0.79773 0.31923 0.56078 0.55618-0.60417 0.60417-1.0542 0.04342-1.6448-0.19293-1.3125-0.52522zm31 0c0.3323-0.33229 1.1948-0.36782 1.9167-0.07895 0.79773 0.31923 0.56078 0.55618-0.60417 0.60417-1.0542 0.04342-1.6448-0.19293-1.3125-0.52522zm-3.0186-5.8958c-0.0111-2.2 0.18461-3.2177 0.4349-2.2617 0.25029 0.95609 0.25937 2.7561 0.0202 4-0.23921 1.2439-0.444 0.46166-0.4551-1.7383zm2.1534 2.1144c-0.29244-0.76208-0.38114-3.3496-0.19711-5.75 0.32382-4.224 0.34998-4.1793 0.81308 1.387 0.48566 5.8374 0.34153 6.8582-0.61597 4.363zm-33.211-2.1144c-0.0204-1.65 0.18706-2.4461 0.46099-1.769 0.27392 0.67703 0.29059 2.027 0.0371 3-0.25354 0.97297-0.47766 0.41903-0.49804-1.231zm8.037-0.5c0-1.925 0.2058-2.7125 0.45733-1.75 0.25152 0.9625 0.25152 2.5375 0 3.5-0.25153 0.9625-0.45733 0.175-0.45733-1.75zm30.963 0.5c-0.0204-1.65 0.18706-2.4461 0.46099-1.769 0.27392 0.67703 0.29059 2.027 0.037 3-0.25349 0.97297-0.47761 0.41903-0.49799-1.231zm-36.909-3c7e-3 -2.75 0.20172-3.7563 0.43157-2.2362 0.22986 1.5201 0.22371 3.7701-0.0136 5-0.23736 1.2299-0.42542-0.01375-0.41792-2.7638zm4 0c7e-3 -2.75 0.20172-3.7563 0.43157-2.2362 0.22986 1.5201 0.22371 3.7701-0.0136 5-0.23736 1.2299-0.42542-0.01375-0.41792-2.7638zm31 0c8e-3 -2.75 0.20172-3.7563 0.43157-2.2362 0.22986 1.5201 0.22371 3.7701-0.0136 5-0.23741 1.2299-0.42547-0.01375-0.41797-2.7638zm5.119 2.25-1.905-2.25 2.25 1.905c2.1144 1.7902 2.7052 2.595 1.905 2.595-0.18976 0-1.2023-1.0125-2.25-2.25zm107.62-0.71094c-0.80907-0.51167-1.2107-1.1907-0.8925-1.5089s1.1478 0.10734 1.8435 0.94563c1.4426 1.7382 1.166 1.902-0.95098 0.56323zm117.05-0.45573c-0.0434-1.0542 0.19293-1.6448 0.52522-1.3125 0.33229 0.33229 0.36781 1.1948 0.0789 1.9167-0.31922 0.79773-0.55618 0.56078-0.60416-0.60417zm-116.21-2.3333c-1.2439-1.5861-1.2085-1.6214 0.37756-0.37756 1.6658 1.3064 2.1955 2.1276 1.3724 2.1276-0.20765 0-0.99515-0.7875-1.75-1.75zm42.344-2.9837c2.5941-0.20525 7.0941-0.20738 10-0.0047 2.9059 0.20264 0.78352 0.37057-4.7165 0.37317-5.5 0.0026-7.8776-0.16319-5.2835-0.36844zm20.034-0.0014c2.6125-0.206 6.8875-0.206 9.5 0 2.6125 0.206 0.475 0.37454-4.75 0.37454s-7.3625-0.16854-4.75-0.37454zm41.5-2.9272c0.6875-0.27741 1.8125-0.27741 2.5 0 0.6875 0.27741 0.125 0.50439-1.25 0.50439s-1.9375-0.22697-1.25-0.50439zm-198.5-1.0441c3.4836-6.5274 15.213-26.463 15.774-26.81 0.41349-0.25555 2.3878 2.2818 4.3875 5.6386l3.6357 6.1032-8.8158 15.274-7.7026 0.29361c-4.2364 0.16149-7.512-0.06351-7.2791-0.5zm86.153-2.5436-1.905-2.25 2.25 1.905c2.1144 1.7902 2.7052 2.595 1.905 2.595-0.18976 0-1.2023-1.0125-2.25-2.25zm23.827-3.75c0-1.925 0.2058-2.7125 0.45733-1.75 0.25152 0.9625 0.25152 2.5375 0 3.5-0.25153 0.9625-0.45733 0.175-0.45733-1.75zm24.518 0.25145c10.038-0.16311 26.462-0.16311 36.5 0s1.825 0.29656-18.25 0.29656-28.288-0.13345-18.25-0.29656zm-75.019-2.9074c0.67703-0.27392 2.027-0.2906 3-0.03705 0.97297 0.25354 0.41903 0.47766-1.231 0.49804-1.65 0.02038-2.4461-0.18706-1.769-0.46099zm56.427-1.3441c0-1.375 0.22698-1.9375 0.50439-1.25s0.27741 1.8125 0 2.5-0.50439 0.125-0.50439-1.25zm-139.41-6.7415c-2.4393-0.56472-2.1832-2.4991 0.75-5.664 1.375-1.4836 2.5-3.3335 2.5-4.1108s0.9-1.895 2-2.4837 2-1.928 2-2.9762c0-1.0482 0.4683-2.1952 1.0407-2.549 0.57237-0.35375 0.78717-1.4419 0.47732-2.4181-1.689-5.3216 3.6381-7.4229 16.948-6.6854 12.01 0.66551 16.582 2.8012 14.465 6.757-0.51104 0.95489-1.8011 2.0129-2.8669 2.3512-1.0657 0.33825-2.0787 1.6038-2.2511 2.8123-0.17833 1.2505-1.6061 2.846-3.3134 3.7027-1.65 0.82796-3 2.1696-3 2.9813 0 0.81176-1.35 1.9329-3 2.4914-1.65 0.55851-3.588 1.8068-4.3067 2.7741-0.71869 0.96723-2.1546 1.7586-3.191 1.7586-1.0364 0-2.1624 0.45-2.5023 1-0.9401 1.5211-6.4879 1.1952-7.1067-0.4175-0.45315-1.1809-1.0739-1.2089-3.7186-0.16819-1.7461 0.68712-3.9622 1.067-4.9247 0.84418zm128.65-15.508-1.905-2.25 2.25 1.905c1.2375 1.0477 2.25 2.0602 2.25 2.25 0 0.80025-0.80479 0.20946-2.595-1.905zm-49.405-0.25c0.68469-0.825 1.4699-1.5 1.7449-1.5s-0.0602 0.675-0.74489 1.5-1.4699 1.5-1.7449 1.5 0.0602-0.675 0.74489-1.5z" fill="#919191"/>
 <path d="m59.405 380.23c-1.7737-0.45545-4.3612-1.5726-5.75-2.4826l-2.525-1.6545v-35.841l4.75 2.1799c6.7743 3.1089 22.796 3.1462 29 0.0675l4.25-2.109v36.521l-3.7468 1.778c-4.1965 1.9914-20.466 2.9563-25.978 1.5408zm17.052-19.12c2.1051 0.049 3.61-0.26191 3.3443-0.69083-0.26575-0.42892 1.1199-0.77986 3.0792-0.77986 2.1465 0 3.7504-0.55212 4.0354-1.3892 0.28778-0.84502 0.0306-1.1157-0.65663-0.69098-0.66949 0.41377-1.1297 9e-3 -1.1297-0.99247 0-1.4096-0.70079-1.5967-4.2149-1.1254-2.3182 0.31094-4.734 1.2752-5.3684 2.1428-1.0267 1.4041-1.2912 1.4114-2.4075 0.0663-1.9906-2.3985-8.5829-1.9578-10.443 0.69818-1.1439 1.6332-1.84 1.9166-2.6696 1.0871-1.381-1.381-0.20683-3.581 1.4227-2.6656 0.64949 0.36485 0.21548-0.27648-0.96449-1.4252-1.7172-1.6717-2.7151-1.9178-5-1.233-1.57 0.47055-2.2921 0.89422-1.6046 0.9415 0.6875 0.0473 1.25 0.97012 1.25 2.0508 0 2.4162 3.4317 4.3946 6.3514 3.6618 1.1908-0.29888 2.8364-0.0992 3.6569 0.44363 0.82043 0.54288 2.8417 0.72253 4.4917 0.39923 1.65-0.32331 4.7224-0.54777 6.8275-0.49881zm-7.8275-0.97069c-0.35667-0.5771 0.5699-0.99352 2.191-0.98469 2.1811 0.0119 2.4737 0.232 1.309 0.98469-1.9213 1.2416-2.7326 1.2416-3.5 0zm107.5-95v-7h23v14h-23zm19 0v-3h-15v6h15zm132.96 3.75c-3.5356-1.7829-4.7388-3.0804-5.796-6.25-2.593-7.7748 0.85752-20.223 7.3501-26.516 3.291-3.1898 3.3417-3.359 1.8612-6.222-2.5238-4.8805-1.564-5.4681 9.2889-5.6869 12.911-0.26028 13.492-0.25135 13.958 0.21479 0.2187 0.2187-0.24638 2.223-1.0335 4.454-1.3753 3.8982-1.3361 4.1457 1.0064 6.3463 1.3407 1.2595 3.7799 4.9762 5.4205 8.2593 2.4425 4.8879 2.9829 7.215 2.9829 12.845 0 11.848-4.1565 14.805-20.808 14.805-8.1409 0-10.511-0.37476-14.23-2.25zm9.7825-9.8944c0.85915-0.85915 1.9011-0.83092 4.1806 0.11328 3.7596 1.5573 7.6606 0.6741 9.1272-2.0664 1.416-2.6459 0.3435-3.8259-1.36-1.4962-1.0208 1.396-2.0659 1.6142-5.0496 1.0545-2.7291-0.51198-3.6087-1.1066-3.2025-2.1651 0.30799-0.80258 0.55997-2.2953 0.55997-3.3171 0-1.4104 0.90307-1.9523 3.75-2.2501l3.75-0.39226-4.0895-0.16811c-3.3281-0.1368-4.3056-0.64234-5.25-2.7152-1.7306-3.7982-1.4261-5.3748 1.2757-6.6058 3.5624-1.6231 5.7567-0.46384 4.9799 2.6309-0.52893 2.1074-0.28125 2.522 1.5068 2.522 2.9036 0 3.7126-2.6403 1.5433-5.0372-3.1516-3.4825-12.703-1.944-14.037 2.2612-0.33524 1.0562-0.34284 2.983-0.0169 4.2816 0.50097 1.996 0.16698 2.4256-2.1597 2.778-2.5454 0.38549-2.5062 0.42808 0.52243 0.56665 2.5241 0.11549 3.4983 0.7378 4.25 2.7149 0.53639 1.4108 0.97525 2.718 0.97525 2.9048s-1.7062 0.1109-3.7915-0.1688c-4.5565-0.61115-7.3389 1.6319-5.2085 4.1989 1.4703 1.7716 6.1151 1.9849 7.7444 0.35563zm-6.2487-0.86269c-0.79429-1.2852 2.0146-2.3949 4.0678-1.607 0.85986 0.32996 1.2833 1.0531 0.94099 1.607-0.80528 1.303-4.2035 1.303-5.0087 0zm-155.5-14.993v-7h23v14h-23zm19 0v-3h-15v6h15zm-19-22v-7h23v14h-23zm19 0v-3h-15v6h15zm-152.49-65.978c-1.2291-3.8724 0.30532-6.0211 4.3103-6.0359 5.0534-0.0187 8.1826-0.97326 8.1826-2.496 0-1.6802 2.2854-2.4904 7.0251-2.4904 2.8566 0 4.2666 0.5783 5.418 2.2222 1.161 1.6575 2.8906 2.3563 6.8067 2.75 5.233 0.52605 5.2502 0.53922 5.2502 4.0278v3.5l-18.176 0.27227c-17.486 0.26194-18.2 0.19553-18.817-1.75zm21.634-7.0223c0.53748 0 0.69912-0.45 0.3592-1-0.77401-1.2524-5.1868-1.3158-5.9472-0.0854-0.6867 1.1111 1.439 2.0875 3.279 1.5062 0.73248-0.23143 1.7715-0.42078 2.309-0.42078zm272.09-26.035-3.272-2.9763 0.27205-18.744 0.27204-18.744 4.9973-0.31489c6.8805-0.43356 11.291 0.55034 12.487 2.7858 0.55482 1.0367 1.3478 4.935 1.7622 8.663 0.67224 6.048 1.0125 6.8391 3.1588 7.3448 5.3107 1.2513 5.4143 7.0213 0.12602 7.0213h-3.0314v7c0 5.8122 0.27741 7 1.6349 7 1.2106 0 0.97499 0.51905-0.90773 2-1.8974 1.4925-4.0251 1.9926-8.3849 1.9707-5.0599-0.0254-6.2805-0.42791-9.1143-3.0056zm6.503-18.658c-0.97297-0.25354-2.323-0.23687-3 0.037-0.67703 0.27393 0.11903 0.48137 1.769 0.46099 1.65-0.0204 2.2039-0.2445 1.231-0.49804zm5.769-10.307v-6.5h-11l-0.3068 5.3808c-0.44617 7.8253-0.10258 8.2755 6.0456 7.9218l5.2612-0.30265zm-134.78 15.969c-7.822-1.9675-15.209-6.9039-19.786-13.222-2.3516-3.2463-2.9316-5.0806-2.9316-9.271 0-3.7141-0.72325-6.518-2.5023-9.7012-2.2869-4.0917-2.4148-4.9419-1.486-9.876 1.4599-7.7553 5.3432-15.049 10.584-19.88 22.032-20.308 55.55-7.61 59.817 22.661 0.5334 3.7846 0.37608 4.2106-1.6615 4.5-2.0998 0.29821-2.2842 0.9233-2.7507 9.3218-0.4021 7.2395-0.94425 9.6245-2.7689 12.181-2.9905 4.1898-9.0121 8.8902-14.498 11.317-5.1988 2.2997-16.636 3.3227-22.016 1.9694zm20.124-7.9962c10.529-4.5296 17.552-15.532 17.534-27.473-0.0138-9.4674-2.9237-15.973-10.064-22.498-11.675-10.67-26.948-10.67-38.623 0-7.2163 6.5953-10.135 13.101-10.093 22.498 0.0975 21.963 21.27 36.066 41.246 27.473z" fill="#da5628"/>
 <path d="m320.88 411.48c0.6875-0.27741 1.8125-0.27741 2.5 0s0.125 0.50439-1.25 0.50439-1.9375-0.22698-1.25-0.50439zm8.5208 0.0581c0.33229-0.33229 1.1948-0.36781 1.9167-0.0789 0.79773 0.31922 0.56078 0.55618-0.60417 0.60416-1.0542 0.0434-1.6448-0.19293-1.3125-0.52522zm29.993-0.11341c1.5201-0.22986 3.7701-0.22371 5 0.0136 1.2299 0.23736-0.0138 0.42542-2.7638 0.41792-2.75-8e-3 -3.7563-0.20172-2.2362-0.43157zm-42.391-2.0324c-1.2439-1.5861-1.2085-1.6214 0.37756-0.37756 0.9625 0.75485 1.75 1.5424 1.75 1.75 0 0.82304-0.82119 0.29331-2.1276-1.3724zm35.855 0.5c-1.3765-1.0399-1.7027-3.6295-1.9411-15.407-0.15761-7.7862 0.0509-13.947 0.46344-13.691 0.4125 0.25618 0.75 6.6705 0.75 14.254 0 13.311 0.0779 13.826 2.25 14.873 1.2375 0.59682 1.7735 1.1156 1.1911 1.1528-0.58238 0.0372-1.8034-0.49482-2.7134-1.1823zm16.022 0.0295c2.1836-1.0531 2.25-1.5234 2.25-15.932 0-14.729-0.0179-14.847-2.25-14.851-3.3046-5e-3 -8.4273-3.4715-10.201-6.9024-1.0218-1.976-1.5486-5.7326-1.5486-11.044v-8.0497h26l-4e-3 8.25c-4e-3 9.6604-1.8763 13.771-7.4894 16.448l-3.5066 1.6723v14.78c0 13.589-0.15586 14.863-1.9343 15.815-1.0638 0.56935-2.3013 1.0047-2.75 0.9675-0.44866-0.0372 0.19676-0.55599 1.4343-1.1528zm-49.192-1.6862c-0.30822-0.49871 0.34022-0.67122 1.441-0.38337 2.335 0.61061 2.6302 1.2901 0.5604 1.2901-0.79254 0-1.6932-0.40803-2.0014-0.90674zm38.192 0.24446c0.6875-0.27741 1.8125-0.27741 2.5 0s0.125 0.50439-1.25 0.50439-1.9375-0.22698-1.25-0.50439zm5 0c0.6875-0.27741 1.8125-0.27741 2.5 0s0.125 0.50439-1.25 0.50439-1.9375-0.22698-1.25-0.50439zm-29.531-14.016c-0.18193-11.76 0.0487-14.447 1.3521-15.75 0.86428-0.86429 2.0391-1.5714 2.6108-1.5714 0.57165 0 0.0927 0.7875-1.0643 1.75-1.926 1.6022-2.128 2.9324-2.3914 15.75l-0.28774 14zm2.9875 0.0356c-0.21861-14.948-0.0405-15.536 4.625-15.257 0.93886 0.0561 0.5752 0.40278-0.83179 0.79295-2.479 0.68743-2.5046 0.81065-3.0432 14.65l-0.54317 13.957-0.20683-14.143zm-196.21-1.857v-4.5h22v9h-22zm27.192 0.25c0.30601-4.2293 0.32816-4.2515 4.5575-4.5575l4.25-0.3075v9.115h-9.115zm13.808-0.3075v-4.5575l4.25 0.3075c4.2293 0.30601 4.2515 0.32816 4.5575 4.5575l0.3075 4.25h-9.115zm14 0.0575v-4.5h8v9h-8zm14 0v-4.5h49v9h-49zm54.192 0.25c0.30601-4.2293 0.32816-4.2515 4.5575-4.5575l4.25-0.3075v9.115h-9.115zm13.808-0.3075v-4.5575l4.25 0.3075c4.2293 0.30601 4.2515 0.32816 4.5575 4.5575l0.3075 4.25h-9.115zm14 0.0575v-4.5h22v9h-22zm-151-14.5v-4h8v8h-8zm14 0v-4h8v8h-8zm13 0v-4h9v8h-9zm14 0v-4h9v8h-9zm14 0v-4h8v8h-8zm14 0v-4h8v8h-8zm13 0v-4h9v8h-9zm14 0v-4h8v8h-8zm14 0v-4h8v8h-8zm13 0v-4h9v8h-9zm14 0v-4h9v8h-9zm14 0v-4h8v8h-8zm14 0v-4h8v8h-8zm41.271 1.3958c0.33229-0.33229 1.1948-0.36781 1.9167-0.0789 0.79773 0.31922 0.56078 0.55618-0.60417 0.60416-1.0542 0.0434-1.6448-0.19293-1.3125-0.52522zm5.288-0.92763c-1.0676-0.80751-1.4602-1.4682-0.87244-1.4682 0.58777 0 1.6289 0.675 2.3136 1.5 1.5572 1.8763 1.0673 1.8655-1.4411-0.0318zm-10.309-2.1844c1.5125-0.22913 3.9875-0.22913 5.5 0 1.5125 0.22912 0.275 0.41659-2.75 0.41659s-4.2625-0.18747-2.75-0.41659zm-201.25-12.284v-4h8v8h-8zm14 0v-4h8v8h-8zm13 0v-4h9v8h-9zm14 0v-4h9v8h-9zm14 0v-4h8v8h-8zm14 0v-4h8v8h-8zm13 0v-4h9v8h-9zm14 0v-4h8v8h-8zm14 0v-4h8v8h-8zm13 0v-4h9v8h-9zm14 0v-4h9v8h-9zm14 0v-4h8v8h-8zm14 0v-4h8v8h-8zm-238.09-2.9228c0.77512-0.49069 1.9546-0.68292 2.6211-0.42718 0.66646 0.25575 1.843-0.12339 2.6145-0.84252 1.4412-1.3434 3.8551-2.1782 3.8551-1.3332 0 0.96619-5.9779 3.5252-8.2003 3.5104-1.7368-0.0116-1.9547-0.23369-0.89034-0.90748zm28.377-3.5772c7e-3 -2.75 0.20172-3.7563 0.43157-2.2362 0.22986 1.5201 0.22371 3.7701-0.0136 5-0.23736 1.2299-0.42542-0.0138-0.41792-2.7638zm-37.286 3.059c0-0.24254 0.45-0.7191 1-1.059s1-0.14148 1 0.44098-0.45 1.059-1 1.059-1-0.19844-1-0.44098zm33.252-3.059c-0.0111-2.2 0.18461-3.2178 0.4349-2.2617s0.25937 2.7561 0.0202 4c-0.23919 1.2439-0.44398 0.46166-0.45508-1.7383zm-24.252 1c0-0.825-0.7875-1.5355-1.75-1.579-1.1001-0.0496-1.2733-0.27043-0.46638-0.59454 0.70599-0.28357 1.9435 0.0321 2.75 0.70139 1.0281 0.85323 1.4664 0.88149 1.4664 0.0945 0-0.61734 0.74385-1.1224 1.653-1.1224 1.3197 0 1.188 0.4033-0.65301 2-2.7633 2.3966-3 2.4361-3 0.5zm12.5 0.5c-0.33992-0.55-0.14148-1 0.44098-1s1.059 0.45 1.059 1c0 1.2814-0.70806 1.2814-1.5 0zm6.0643-0.29313c0.37553-0.98622 0.9347-1.5412 1.2426-1.2333 0.30789 0.30789 6.4e-4 1.1148-0.68278 1.7931-0.98762 0.98026-1.1025 0.8654-0.5598-0.5598zm-26.564-2.3145c0-0.82763 1.9417-1.2956 2.3869-0.57533 0.28881 0.46731-0.13009 0.84965-0.9309 0.84965-0.8008 0-1.456-0.12345-1.456-0.27432zm20-0.39235c0-0.55 0.45-1 1-1s1 0.45 1 1-0.45 1-1 1-1-0.45-1-1zm278-9.25c5e-3 -5.1446 2.795-10.077 6.9024-12.201 4.1508-2.1464 5.4207-2.0278 4.1291 0.38571-1.3214 2.4691-1.3445 8.7565-0.0352 9.5657 0.55 0.33992 1 1.9415 1 3.559 0 2.9279-0.0268 2.941-6 2.941h-6l4e-3 -4.25zm13.996 1.309c0-1.6175 0.45-3.2191 1-3.559 1.4048-0.86821 1.2498-8.8502-0.2-10.3-1.7381-1.7381 0.55753-1.5836 4.1614 0.28002 4.7882 2.4761 7.0386 6.2024 7.0386 11.655v4.8651h-6c-5.9732 0-6-0.0131-6-2.941zm-308-4.059c-1.2421-0.80271-1.1561-0.96937 0.5-0.96937 1.1 0 2.675 0.43621 3.5 0.96937 1.2421 0.80271 1.1561 0.96937-0.5 0.96937-1.1 0-2.675-0.43621-3.5-0.96937zm10 0c0.825-0.53316 2.4-0.96937 3.5-0.96937 1.6561 0 1.7421 0.16666 0.5 0.96937-0.825 0.53316-2.4 0.96937-3.5 0.96937-1.6561 0-1.7421-0.16666-0.5-0.96937zm-15-1c-0.90129-0.58246-1.0246-0.97549-0.30902-0.98469 0.65504-8e-3 1.4691 0.43469 1.809 0.98469 0.7673 1.2415 0.42112 1.2415-1.5 0zm22 0.55902c0-0.24254 0.45-0.7191 1-1.059s1-0.14148 1 0.44098-0.45 1.059-1 1.059-1-0.19844-1-0.44098zm76-1.5201c0-1.5617 3.9769-4.8079 8.4879-6.9283 5.0956-2.3952 13.378-4.5464 23.762-6.1719l7.75-1.2132v-25.726h54v13c0 7.15 0.39105 13 0.86901 13s4.8655 0.68673 9.75 1.5261c15.195 2.6111 25.958 6.9463 28.352 11.42l1.099 2.0535h-67.035c-42.212 0-67.035-0.35588-67.035-0.96104zm-104.5-2.039c-0.33992-0.55-0.16803-1 0.38197-1s1.2781 0.45 1.618 1 0.16803 1-0.38197 1-1.2781-0.45-1.618-1zm35.5-2c-0.5887-1.1-0.84537-2-0.57037-2s0.98167 0.9 1.5704 2 0.84537 2 0.57037 2-0.98167-0.9-1.5704-2zm-20.942-2.1372c-1.1276-1.8495-2.0518-5.0614-2.0539-7.1375-3e-3 -3.0829 0.4433-3.9447 2.4355-4.7021 1.3416-0.51006 2.9324-1.8489 3.5352-2.9752 1.2044-2.2505 6.4483-2.972 5.799-0.79787-0.20532 0.6875-1.0066 3.3875-1.7807 6-1.1069 3.7358-1.8614 4.75-3.5334 4.75-2.9982 0-3.4004 0.71831-2.385 4.259 1.242 4.3307 0.40776 4.5804-2.0167 0.60374zm-13.058 0.63722c0.68469-0.825 1.4699-1.5 1.7449-1.5s-0.0602 0.675-0.74489 1.5-1.4699 1.5-1.7449 1.5 0.0602-0.675 0.74489-1.5zm62.409-50c-1e-3 -9.35 0.14916-13.31 0.33401-8.7991 0.18486 4.5105 0.1858 12.16 2e-3 17-0.1837 4.8395-0.33495 1.1491-0.3361-8.2009zm2.7895-9.75-0.1987-7.75 17.5 0.40709-16.414 0.6724-0.34431 7.2103-0.34431 7.2102zm-19.199-31.191c0-0.24254 0.45-0.7191 1-1.059s1-0.14148 1 0.44098-0.45 1.059-1 1.059-1-0.19844-1-0.44098zm6-0.55902c0-1.2814 0.70806-1.2814 1.5 0 0.33992 0.55 0.14148 1-0.44098 1s-1.059-0.45-1.059-1zm-8.9133-1.3955c-0.97451-1.1742-0.86105-1.3944 0.6075-1.1788 0.9932 0.14577 1.7308 0.59714 1.6391 1.003-0.34296 1.5186-1.0841 1.5766-2.2466 0.1758zm5.9133-3.6045c-0.90129-0.58246-1.0246-0.97549-0.30902-0.98469 0.65504-8e-3 1.4691 0.43469 1.809 0.98469 0.7673 1.2415 0.42112 1.2415-1.5 0zm4.8245-1.6742c0.42673-2.093 0.67819-2.3444 0.96961-0.9696 0.2164 1.0209-0.0429 2.2925-0.57615 2.8258-0.62614 0.62614-0.76551-0.0314-0.39346-1.8562zm-12.093-2.2457c-0.43497-1.6634-0.30483-2.0538 0.43724-1.3117 0.5811 0.5811 0.85979 1.6468 0.61931 2.3683-0.24965 0.74895-0.70294 0.29565-1.0566-1.0566zm18.464-1.5802c-0.0204-1.65 0.18706-2.4461 0.46099-1.769 0.27392 0.67703 0.29059 2.027 0.037 3-0.25354 0.97297-0.47766 0.41903-0.49804-1.231zm-7.079-0.0972c-0.0638-0.60345-1.1285-1.5618-2.366-2.1296-2.0428-0.9373-1.9488-1.0109 1.0206-0.79893 1.7988 0.12839 3.5988 0.59634 4 1.0399 0.4012 0.44354 0.20101 0.50378-0.44487 0.13387-0.6693-0.38333-1.372 0.0853-1.634 1.0897-0.25282 0.96923-0.51188 1.2685-0.57568 0.66505zm-63.866-1.1483c5.3625-0.17981 14.138-0.17981 19.5 0s0.975 0.32692-9.75 0.32692-15.112-0.14711-9.75-0.32692zm331.75-2.2545c0-1.3333 0.66667-2 2-2s2 0.66667 2 2-0.66667 2-2 2-2-0.66667-2-2zm3 0c0-0.55-0.45-1-1-1s-1 0.45-1 1 0.45 1 1 1 1-0.45 1-1zm2.5 1c-0.89913-1.4548 0.35257-3.0182 2.309-2.884 1.5245 0.10458 1.5187 0.16103-0.059 0.57333-2.2515 0.58838-2.2515 2.033 0 2.6213 1.5777 0.4123 1.5835 0.46875 0.059 0.57333-0.93004 0.0638-1.9691-0.334-2.309-0.884zm7.7106-0.39914c0.70919-0.76953 1.447-1.2495 1.6396-1.0665 0.59314 0.56346-0.91014 2.4657-1.9486 2.4657-0.53923 0-0.40017-0.62961 0.30901-1.3991zm-10.132-5.0175c-0.0434-1.0542 0.19293-1.6448 0.52522-1.3125 0.33229 0.3323 0.36781 1.1948 0.0789 1.9167-0.31922 0.79773-0.55618 0.56078-0.60416-0.60417zm2 0c-0.0434-1.0542 0.19293-1.6448 0.52522-1.3125 0.33229 0.3323 0.36781 1.1948 0.0789 1.9167-0.31922 0.79773-0.55618 0.56078-0.60416-0.60417zm-354-1c-0.0434-1.0542 0.19293-1.6448 0.52522-1.3125 0.33229 0.3323 0.36782 1.1948 0.0789 1.9167-0.31923 0.79773-0.55619 0.56078-0.60417-0.60417zm20.613 0.67014c6.7055-0.17275 17.955-0.17325 25-1e-3 7.0445 0.17214 1.5582 0.31348-12.192 0.31409s-19.514-0.14023-12.808-0.31298zm72.975-1.9201c-0.36667-0.36666-0.66667-11.392-0.66667-24.5v-23.833l209.5 0.49064-208.57 0.51863 0.2846 23.996c0.15654 13.198 0.24711 23.996 0.20128 23.995-0.0458-4.3e-4 -0.38334-0.30079-0.75-0.66746zm267.33-0.33333c-1.2819-0.82843-1.2456-0.9716 0.25-0.98469 0.9625-8e-3 1.75 0.43469 1.75 0.98469 0 1.2196-0.11279 1.2196-2 0zm-6.5-1c-0.89913-1.4548 0.35257-3.0182 2.309-2.884 1.5245 0.10458 1.5187 0.16103-0.059 0.57333-2.2515 0.58838-2.2515 2.033 0 2.6213 1.5777 0.4123 1.5835 0.46875 0.059 0.57333-0.93004 0.0638-1.9691-0.334-2.309-0.884zm-3.2894-1.6009c-0.70918-0.76953-0.84824-1.3991-0.30901-1.3991 1.0384 0 2.5417 1.9022 1.9486 2.4657-0.19258 0.18294-0.93038-0.297-1.6396-1.0665zm-261.45-15.648c0.48201-30.432 0.83097-33.293 1.037-8.5014 0.1131 13.612-0.13186 24.751-0.54436 24.751-0.4125 7.7e-4 -0.63417-7.3117-0.49259-16.25zm270.51 14.644c0.33229-0.33229 1.1948-0.36781 1.9167-0.0789 0.79773 0.31922 0.56078 0.55618-0.60417 0.60416-1.0542 0.0434-1.6448-0.19292-1.3125-0.52522zm-162.03-2.0829c0.95609-0.25029 2.7561-0.25937 4-0.0202 1.2439 0.23919 0.46166 0.44398-1.7383 0.45508s-3.2178-0.18461-2.2617-0.4349zm11.951-0.0285c2.0003-0.29905 2.806-1.0915 3.1448-3.0932 0.41474-2.4504 0.44254-2.4228 0.31074 0.30883-0.12601 2.6117-0.53304 3.0121-3.1447 3.0932-2.7031 0.084-2.7338 0.0534-0.31075-0.30883zm-132.92-2.8886c0.3323-0.33229 1.1948-0.36781 1.9167-0.0789 0.79773 0.31922 0.56078 0.55618-0.60417 0.60416-1.0542 0.0434-1.6448-0.19292-1.3125-0.52522zm264.89-1.3958c0-1.375 0.22698-1.9375 0.50439-1.25s0.27741 1.8125 0 2.5-0.50439 0.125-0.50439-1.25zm10.592-2.7322c2.3375-0.21053 6.1625-0.21053 8.5 0 2.3375 0.21054 0.425 0.3828-4.25 0.3828s-6.5875-0.17226-4.25-0.3828zm-7.3646-21.268c0-6.875 0.15977-9.6875 0.35504-6.25s0.19527 9.0625 0 12.5-0.35504 0.625-0.35504-6.25zm-40.523-9.75c-0.0756-3.1625-0.18815-7.55-0.25-9.75-0.0919-3.267 1.716-7.425 9.8649-22.689 5.4875-10.279 10.087-18.58 10.22-18.446 0.13368 0.13369-1.5315 4.7189-3.7003 10.189-4.01 10.114-5.015 17.029-2.7974 19.246 0.82071 0.82071 5.6903 1.2 15.406 1.2 13.431 0 14.179 0.10302 13.713 1.8871-0.7026 2.6868 1.1688 3.4369 5.2302 2.0966 2.5108-0.82864 4.364-0.8609 6.5086-0.1133 3.7983 1.3241 6.2576 0.44467 5.6161-2.0083-0.45921-1.756 0.38188-1.8621 14.764-1.8621 13.505 0 15.441-0.20937 16.906-1.8287 2.5075-2.7707 1.9845-6.7038-2.3424-17.618-2.1689-5.4704-3.8083-10.081-3.6433-10.246 0.16505-0.16506 4.8032 8.1358 10.307 18.446l10.007 18.746-1.9587 18.5h-7.7144v-17.834l-22.25-0.33317c-12.238-0.18324-31.812-0.18809-43.5-0.0108l-21.25 0.32241v17.855h-9l-0.13753-5.75zm64.39-0.75c-0.0111-2.2 0.18461-3.2178 0.4349-2.2617s0.25937 2.7561 0.0202 4c-0.23919 1.2439-0.44398 0.46166-0.45508-1.7383zm-369.17-19.917c-0.0434-1.0542 0.19293-1.6448 0.52522-1.3125 0.33229 0.3323 0.36782 1.1948 0.0789 1.9167-0.31923 0.79773-0.55619 0.56078-0.60417-0.60417zm71.573-1.3333c-0.25618-0.4125 5.8343-0.61328 13.534-0.44617 16.08 0.34896 17.735-0.21648 20.875-7.1318 1.6402-3.6126 1.8972-6.6863 1.9162-22.922l0.022-18.75h-56.117l0.30828 19.906c0.16956 10.948-0.0292 19.697-0.44171 19.441-0.4125-0.25581-0.75-9.4386-0.75-20.406v-19.941h18c11.333 0 18-0.37037 18-1s-6.6667-1-18-1h-18l0.1681-4.25 0.16811-4.25 0.78452 7.5h56.158l-0.60533-5.1111c-0.979-8.2661-8.6485-16.333-8.6886-9.1389-0.0215 3.8653-1.3221 5.48-4.0978 5.0875-2.0285-0.28681-2.4331-0.97569-2.6944-4.5875l-0.3075-4.25h-23.77l-0.3075 4.25c-0.26132 3.6118-0.66593 4.3007-2.6944 4.5875-2.7757 0.39247-4.0762-1.2222-4.0978-5.0875-0.0204-3.6671-2.175-3.5374-5.4264 0.32672-1.4239 1.6922-2.5889 2.6388-2.5889 2.1036 0-1.1945 6.6982-7.1803 8.0348-7.1803 0.53086 0 0.9652 1.0882 0.9652 2.4182 0 3.3802 0.98604 5.5818 2.5 5.5818 1.6454 0 2.4795-2.2094 2.579-6.8318 0.0434-2.0175 0.30592-3.1057 0.58333-2.4182 0.35339 0.8758 3.3234 1.25 9.921 1.25h9.4167v-23h11v8.5c0 7.8333 0.15686 8.5 2 8.5s2-0.66667 2-8.5v-8.5h10v17.072l19.26-0.57242 8.1198-14.212c4.4659-7.8167 8.4116-14.229 8.7682-14.25 0.35665-0.0208 4.5192 6.7353 9.25 15.014l8.6015 15.051-0.116 17.699c-0.0638 9.7342-0.33723 16.799-0.60761 15.699-0.79506-3.2345-2.3516-4.5192-4.7471-3.918-1.3541 0.33987-2.8644-0.0599-3.8142-1.0097-2.1229-2.123-2.967-1.995-6.1207 0.92767-1.4836 1.375-3.2369 2.4863-3.896 2.4696-0.65916-0.0167-0.41098-0.48908 0.55152-1.0497 0.9625-0.5606 1.75-1.6719 1.75-2.4696s0.42849-1.4503 0.95219-1.4503c1.6967 0 0.41156-6.6362-1.6927-8.7405-4.9706-4.9706-12.48-0.13483-11.774 7.5816 0.40227 4.3948-0.25623 4.9375-3.5295 2.9089-1.5473-0.95896-2.1892-0.97352-2.7568-0.0626-0.40692 0.65309-1.9682 1.6544-3.4695 2.2252-2.1425 0.81458-2.7296 1.6884-2.7296 4.0626 0 1.6636-0.45 3.0248-1 3.0248-1.5442 0-1.1818 3.7163 0.42244 4.3319 0.78234 0.30021 1.5698 1.5859 1.75 2.857 0.25394 1.7917 1.058 2.3816 3.5776 2.6245 1.7875 0.17235 3.25 0.72072 3.25 1.2186 0 1.1224 3.0406 0.0339 4.8214-1.726 0.72678-0.71827 1.9643-1.306 2.75-1.306 0.78571 0 1.4355-0.5625 1.4439-1.25 0.0102-0.83333 0.33844-0.75 0.98469 0.25 0.53316 0.825 0.99221 1.05 1.0201 0.5 0.0839-1.6527 2.9062 3.8587 2.9444 5.75 0.0325 1.6049-1.4987 1.75-18.465 1.75h-18.5l-6e-3 5.75c-8e-3 8.2215-1.5214 12.628-5.5535 16.168l-3.5105 3.0823h-13.906c-7.6484 0-14.116-0.3375-14.372-0.75zm25.741-65.832c0.78221-2.0384 0.78221-7.798 0-9.8364-0.78225-2.0385-3.0038-2.0385-3.786 0-0.817 2.1291-0.77377 9.9181 0.0597 10.752 1.1821 1.1821 3.1026 0.71044 3.7263-0.91512zm-87.129 58.864c1.5201-0.22986 3.7701-0.22371 5 0.0136 1.2299 0.23736-0.0138 0.42542-2.7638 0.41792-2.75-8e-3 -3.7563-0.20172-2.2362-0.43157zm47 0c1.5201-0.22986 3.7701-0.22371 5 0.0136 1.2299 0.23736-0.0138 0.42542-2.7638 0.41792-2.75-8e-3 -3.7563-0.20172-2.2362-0.43157zm18.736-2.7824c0.68469-0.825 1.4699-1.5 1.7449-1.5s-0.0602 0.675-0.74489 1.5-1.4699 1.5-1.7449 1.5 0.0602-0.675 0.74489-1.5zm-0.92105-4.9167c-0.0434-1.0542 0.19293-1.6448 0.52522-1.3125 0.33229 0.3323 0.36782 1.1948 0.0789 1.9167-0.31923 0.79773-0.55619 0.56078-0.60417-0.60417zm256.92-1.5833c0-1.5556 0.66667-2 3-2s3 0.44444 3 2-0.66667 2-3 2-3-0.44444-3-2zm9 0c0-1.5556 0.66667-2 3-2s3 0.44444 3 2-0.66667 2-3 2-3-0.44444-3-2zm18.015 1.25c0.0706-3.4587 6.1585-4.3543 6.7978-1 0.26729 1.4024-0.37622 1.75-3.2398 1.75-1.9653 0-3.5664-0.3375-3.558-0.75zm9.9847-1.25c0-1.5556 0.66667-2 3-2s3 0.44444 3 2-0.66667 2-3 2-3-0.44444-3-2zm9.7243-0.0538c0.67981-2.5996 5.5863-2.3548 6.0904 0.30381 0.26455 1.395-0.37406 1.75-3.1478 1.75-3.0178 0-3.4084-0.27265-2.9426-2.0538zm-303.65-3.3629c-0.0434-1.0542 0.19293-1.6448 0.52522-1.3125 0.33229 0.3323 0.36782 1.1948 0.0789 1.9167-0.31923 0.79773-0.55619 0.56078-0.60417-0.60417zm236.92-0.0833c0.68469-0.825 1.4699-1.5 1.7449-1.5s-0.0602 0.675-0.74489 1.5-1.4699 1.5-1.7449 1.5 0.0602-0.675 0.74489-1.5zm22-1.5c0-0.55 1.125-1 2.5-1s2.5 0.45 2.5 1-1.125 1-2.5 1-2.5-0.45-2.5-1zm8 0c0-0.55 1.125-1 2.5-1s2.5 0.45 2.5 1-1.125 1-2.5 1-2.5-0.45-2.5-1zm18 0c0-0.55 1.125-1 2.5-1s2.5 0.45 2.5 1-1.125 1-2.5 1-2.5-0.45-2.5-1zm8 0c0-0.55 1.125-1 2.5-1s2.5 0.45 2.5 1-1.125 1-2.5 1-2.5-0.45-2.5-1zm8.5 0c0.80384-1.3006 4.5-1.3006 4.5 0 0 0.55-1.1516 1-2.559 1-1.4514 0-2.2915-0.43284-1.941-1zm-216-4c0.33992-0.55 1.743-1 3.118-1 1.412 0 2.231 0.43519 1.882 1-0.33992 0.55-1.743 1-3.118 1-1.412 0-2.231-0.43519-1.882-1zm175.5 0c0-1.2984 2.6976-1.2984 3.5 0 0.33992 0.55-0.30852 1-1.441 1s-2.059-0.45-2.059-1zm6.75 0.33772c0.6875-0.27741 1.8125-0.27741 2.5 0s0.125 0.50439-1.25 0.50439-1.9375-0.22698-1.25-0.50439zm19 0c0.6875-0.27741 1.8125-0.27741 2.5 0s0.125 0.50439-1.25 0.50439-1.9375-0.22698-1.25-0.50439zm6 0c0.6875-0.27741 1.8125-0.27741 2.5 0s0.125 0.50439-1.25 0.50439-1.9375-0.22698-1.25-0.50439zm8 0c0.6875-0.27741 1.8125-0.27741 2.5 0s0.125 0.50439-1.25 0.50439-1.9375-0.22698-1.25-0.50439zm-82.555-2.8377c-0.0204-1.65 0.18706-2.4461 0.46099-1.769 0.27392 0.67703 0.29059 2.027 0.0371 3-0.25354 0.97297-0.47766 0.41903-0.49804-1.231zm-141.84 0.50842c-5.8506-2.361-7.1437-10.376-2.4339-15.085 6.0839-6.0839 15.077-2.4404 15.077 6.1084 0 7.1487-6.2234 11.568-12.643 8.977zm8.5292-2.7584c5.3833-4.4695 2.4286-13.25-4.4588-13.25-4.5221 0-7.4274 2.9337-7.4274 7.5 0 6.493 6.9449 9.8526 11.886 5.75zm-7.3214-3.1783c-2.1096-2.331-1.328-5.6947 1.5343-6.6031 4.292-1.3622 6.9533 5.3626 2.9666 7.4963-2.515 1.346-2.4656 1.3558-4.5009-0.89316zm88.514 5.5117c-0.0434-1.0542 0.19293-1.6448 0.52522-1.3125 0.33229 0.3323 0.36781 1.1948 0.0789 1.9167-0.31922 0.79773-0.55618 0.56078-0.60416-0.60417zm65.48-3.1151c-1.0676-0.80751-1.4602-1.4682-0.87244-1.4682 0.58777 0 1.6289 0.675 2.3136 1.5 1.5572 1.8763 1.0673 1.8655-1.4411-0.0318zm-239.99-1.7614c0.37553-0.98622 0.9347-1.5412 1.2426-1.2333 0.30789 0.30789 6.4e-4 1.1148-0.68278 1.7931-0.98762 0.98026-1.1025 0.8654-0.5598-0.5598zm61.436-0.70687c-3.7618-3.7618-1.9357-11.138 3-12.117 3.1765-0.63024 6.7707 1.1493 7.9186 3.9205 2.9616 7.1498-5.5647 13.55-10.919 8.1966zm7.4286-2.5714c3.0307-3.0307 0.79951-6.8824-3.6235-6.2553-1.7016 0.24122-2.3914 1.0837-2.6351 3.2182-0.49165 4.3069 3.1982 6.0975 6.2586 3.0371zm-72.35 1.1548c-0.0434-1.0542 0.19293-1.6448 0.52522-1.3125 0.33229 0.3323 0.36782 1.1948 0.0789 1.9167-0.31923 0.79773-0.55619 0.56078-0.60417-0.60417zm292.92 0.41667c0-0.59649 3.8333-1 9.5-1s9.5 0.40351 9.5 1-3.8333 1-9.5 1-9.5-0.40351-9.5-1zm-103.13-1.75c-1.2439-1.5861-1.2085-1.6214 0.37756-0.37756 1.6658 1.3064 2.1955 2.1276 1.3724 2.1276-0.20765 0-0.99515-0.7875-1.75-1.75zm-110.26-3.0564c0.42319-2.116 0.14728-3.0723-1.0151-3.5183-2.4798-0.95158-1.8783-3.1589 0.90449-3.3195 2.4266-0.14002 3.3549 0.99736 1.666 2.0412-0.4583 0.28325-0.64004 1.8315-0.40388 3.4406s-0.0571 3.2263-0.65167 3.5937c-0.72476 0.44793-0.88952-0.28957-0.4999-2.2377zm185.39-5.3013c0-7.1138 0.72025-9.1468 1.1664-3.2921 0.20368 2.6731 0.52988 2.9512 3.0309 2.5841 2.5762-0.37811 2.8027-0.1506 2.8027 2.8156 0 3.0039-0.20377 3.1971-2.9472 2.7944-1.621-0.2379-2.7386-0.0951-2.4837 0.31741 0.25493 0.41247 6e-3 1.0326-0.55281 1.3781-0.6526 0.40333-1.0163-1.9578-1.0163-6.5976zm-261.67 4.6516c0-0.80081 0.38234-1.2197 0.84965-0.9309 0.4673 0.28881 0.59075 0.94401 0.27432 1.456-0.80863 1.3084-1.124 1.1611-1.124-0.52511zm237.4 0.80007c0.67703-0.27392 2.027-0.29059 3-0.037 0.97297 0.25354 0.41903 0.47766-1.231 0.49804-1.65 0.0204-2.4461-0.18706-1.769-0.46099zm70.269-3.8065c0-2.4154-0.17693-2.4688-9.25-2.7925l-9.25-0.32999 19.5-0.41508v3c0 1.65-0.225 3-0.5 3s-0.5-1.1081-0.5-2.4625zm-234.55-7.9705c-1.825-2.7853-0.81319-5.7682 2.5709-7.5793 4.4096-2.3599 8.4354 3.1377 5.537 7.5612-2.1118 3.223-6.0022 3.2317-8.1079 0.0181zm6.548-2.5984c0-2.3586-2.6446-3.7241-4.2-2.1686s-0.18998 4.2 2.1686 4.2c1.3752 0 2.0314-0.65621 2.0314-2.0314zm98.75 1.2315c-9.205-0.48011-6.6642-2.2001 3.25-2.2001 4.95 0 9 0.40077 9 0.89059 0 1.1524-5.0047 1.6874-12.25 1.3095zm38.5-0.0135c-6.6574-0.64185-2.9486-2.1866 5.25-2.1866 4.675 0 8.5 0.40835 8.5 0.90745 0 0.98783-8.5358 1.7819-13.75 1.2792zm-69.583-14.853c-0.36667-0.36667-0.66667-1.1317-0.66667-1.7 0-0.6266 0.46577-0.56756 1.1833 0.15 0.65084 0.65083 0.95084 1.4158 0.66667 1.7-0.28417 0.28417-0.81667 0.21667-1.1833-0.15zm-6.7942-6.0833c-1.2439-1.5861-1.2085-1.6214 0.37756-0.37756 1.6658 1.3064 2.1955 2.1276 1.3724 2.1276-0.20765 0-0.99515-0.7875-1.75-1.75zm50.128 0.75c0-0.55 0.9-1 2-1s2 0.45 2 1-0.9 1-2 1-2-0.45-2-1zm19 0c0-0.55 0.9-1 2-1s2 0.45 2 1-0.9 1-2 1-2-0.45-2-1zm-213.62-4.15c0.32587-1.5526 3.8661-1.8535 4.1167-0.34998 0.0917 0.55-0.0208 0.6625-0.25 0.25-0.62806-1.1305-3.0106-0.89994-3.6167 0.34998-0.29334 0.60499-0.40584 0.49249-0.25-0.25zm112.86-4.5371c0.95609-0.25029 2.7561-0.25937 4-0.02018 1.2439 0.23919 0.46166 0.44398-1.7383 0.45508s-3.2178-0.1846-2.2617-0.4349zm24.262-9.3129c0.99549-1.1 2.035-2 2.31-2s-0.31449 0.9-1.31 2-2.035 2-2.31 2 0.31449-0.9 1.31-2z" fill="#5f5f5e"/>
 <path d="m322.13 411.46c-3.2576-0.6476-6-3.1476-6-5.4696 0-2.6424 2.7983-2.2861 3.1804 0.40499 0.27472 1.9344 1.0117 2.2938 5.2533 2.5623 9.8876 0.62587 9.5663 1.1222 9.5663-14.775 0-16.373 0.3901-17.038 10-17.038 9.6001 0 10 0.67749 10 16.94 0 15.37-0.16844 15.033 7.5 15.033 7.6975 0 7.5 0.41055 7.5-15.589 0-8.9222 0.37968-14.383 1-14.383 0.62174 0 1 5.6132 1 14.839v14.839l-2.547 1.1605c-3.2735 1.4915-10.632 1.4915-13.906 0l-2.547-1.1605v-13.804c0-15.706-0.0885-15.875-8.3525-15.875-7.9078 0-7.6475-0.52987-7.6475 15.572 0 13.015-0.17538 14.452-1.8748 15.361-2.3983 1.2835-8.895 2.0238-12.125 1.3817zm-232.67-41.565c0.30415-1.7875 1.103-5.5428 1.7752-8.3451 1.0407-4.3388 0.97489-5.8511-0.44359-10.188-3.0302-9.2643-1.2701-12.967 2.3612-4.967 2.6244 5.7818 2.6244 16.718 0 22.5-2.3274 5.1273-4.4949 5.7142-3.6927 1zm-25.989-10.293c-0.72469-1.8885-0.59169-2.0085 3.1549-2.8466 1.9882-0.44473 2.5293-0.35758 1.6043 0.2584-0.76764 0.5112-1.1193 1.6499-0.78138 2.5304 0.43709 1.139 0.0373 1.6009-1.3857 1.6009-1.1 0-2.2665-0.69441-2.5922-1.5431zm12.034-0.70687c0.28242-1.7318 0.97196-2.2066 2.9937-2.0617 1.4447 0.10355 2.6268-0.23395 2.6268-0.75 0-0.51604 0.65917-0.93826 1.4648-0.93826 1.6303 0 3.8222 3.3796 2.8333 4.3685-1.0103 1.0103-4.2982 0.7284-4.2982-0.36852 0-0.55-0.49815-1-1.107-1s-0.84797 0.675-0.53138 1.5c0.41561 1.0831-0.10884 1.5-1.8867 1.5-1.9956 0-2.3928-0.42649-2.0954-2.25zm-19.911-0.25c-0.25773-0.825-0.6617-2.1286-0.89769-2.897-0.26354-0.85801 0.49463-1.5736 1.9651-1.8547 2.6422-0.50508 3.3277 0.51343 2.6681 3.9639-0.49021 2.5644-3.0142 3.0967-3.7356 0.78774zm14.531-0.5c0-0.55 0.675-1 1.5-1s1.5 0.45 1.5 1-0.675 1-1.5 1-1.5-0.45-1.5-1zm-1.25-13.662c0.6875-0.27741 1.8125-0.27741 2.5 0s0.125 0.50439-1.25 0.50439-1.9375-0.22698-1.25-0.50439zm17.556-4.1234c0.93166-1.0295 1.6939-2.1991 1.6939-2.5993 0-1.0866-7.9631-4.2916-12.25-4.9305l-3.75-0.55883v3.9058c0 3.0598-0.32467 3.7812-1.499 3.3305-1.5027-0.57664-3.569-6.2039-2.7951-7.612 1.2759-2.3215 17.757 0.69302 20.257 3.7052 1.483 1.7868 0.53515 5.1398-1.6948 5.9955-1.5124 0.58037-1.5091 0.47326 0.0381-1.2364zm-35.136-2.7143c0.33347-2.0239 4.9721-4.7437 10.08-5.9101 4.9563-1.1318 2.8766 0.99956-2.2598 2.316-2.8691 0.73533-5.6805 2.2048-6.5795 3.439-1.4919 2.0482-1.5534 2.0559-1.2402 0.15508zm64.603-51.377-0.2736-16.623-45.587-0.53777 0.29348-17.982 0.29348-17.982-19.527 1e-3c-21.947 1e-3 -23.135-0.3216-24.928-6.7783-1.371-4.9364-1.371-62.505 0-67.441 1.427-5.1383 4.205-6.8173 10.928-6.6048 5.0043 0.15817 5.1252 0.21093 1.2775 0.5575l-4.25 0.38298v73.885h24.05c19.602 0 24.595-0.28218 27-1.5257l2.9503-1.5257v-70.834l-4.25-0.38279c-3.6325-0.32718-3.4034-0.40818 1.5769-0.5575 5.2231-0.15661 6.1298 0.12818 8.75 2.7484l2.9231 2.9231v30.184c0 28.36 0.10574 30.139 1.75 29.448 4.3816-1.8417 6.3384-1.5956 11.227 1.4123 2.7793 1.7101 5.2715 3.1093 5.5382 3.1093 0.26674 0 0.48498-11.027 0.48498-24.505v-24.505l213.5 0.50905 0.27159 19.25c0.2354 16.685 0.0688 19.25-1.25 19.25-1.3058 0-1.5216-2.5531-1.5216-18v-18h-209v47.828l6.75 3.7381c3.7125 2.056 7.9982 4.608 9.5238 5.6711l2.7738 1.933-0.2738 16.665-0.27379 16.665-18.5 0.57505v14.925h209v-7c0-5.5556 0.30952-7 1.5-7 1.2723 0 1.5 2.4859 1.5 16.373v16.373h-213.95zm18.226-34.198v-14.075l-9.7347 6.7871c-5.3541 3.7329-12.294 8.5533-15.422 10.712l-5.6878 3.9249-14.507-10.137c-7.9789-5.5756-14.764-10.137-15.078-10.137s-0.57042 6.075-0.57042 13.5v13.5h61zm-10.181-10.394c4.5753-3.1869 7.9503-6.1556 7.5-6.5971-0.45026-0.44153-6.9614-4.3753-14.469-8.7417l-13.651-7.9389-13.987 8.123c-7.6929 4.4677-14.15 8.437-14.349 8.8208-0.19931 0.38381 6.117 5.213 14.036 10.732l14.399 10.034 6.1012-4.3186c3.3557-2.3752 9.8446-6.9261 14.42-10.113zm-22.069 3.8061c0.6875-0.27741 1.8125-0.27741 2.5 0s0.125 0.50439-1.25 0.50439-1.9375-0.22698-1.25-0.50439zm-4.9767-2.0877c-3.6576-4.1652-2.796-12.131 1.5568-14.393l2.1699-1.128-2.1351 2.3857c-1.1743 1.3122-2.4232 3.3388-2.7755 4.5036-0.77714 2.5701 0.8947 7.422 3.1467 9.1321 0.90535 0.6875 1.1798 1.25 0.60996 1.25-0.56988 0-1.7277-0.7875-2.5728-1.75zm2.2022-3.7796c-1.7793-2.1439 0.2102-6.2103 3.6847-7.5313 4.3239-1.6439 5.6198-0.55589 4.8395 4.0631-0.51831 3.0678-0.35258 3.9978 0.71247 3.9978 2.3024 0 3.7879-2.2132 3.7879-5.6433 0-3.9406-2.8931-6.2968-7.9725-6.4929-2.522-0.0974-2.8571-0.26351-1.1758-0.58288 5.7467-1.0916 10.148 2.0395 10.148 7.2191 0 4.7768-4.5627 8.6347-6.5017 5.4973-0.41425-0.67028-1.2409-0.67028-2.4933 0-2.5554 1.3676-3.5432 1.2642-5.0296-0.52691zm5.2787-0.72039c2.2504-1.719 3.4256-6.75 1.5768-6.75-2.2742 0-5.8309 2.9828-5.8309 4.89 0 3.1732 1.6122 3.8781 4.2541 1.86zm53.746-8.75v-51h131v102h-131zm127 0v-47h-123v94h123zm-63-14.563c0-2.2896 0.34708-2.5299 3.25-2.25 2.491 0.24017 3.3246 0.83886 3.5696 2.5634 0.28018 1.9728-0.12023 2.25-3.25 2.25-3.1644 0-3.5696-0.29096-3.5696-2.5634zm10 0.0634c0-2.1111 0.46667-2.5 3-2.5s3 0.38889 3 2.5-0.46667 2.5-3 2.5-3-0.38889-3-2.5zm-10-22.5c0-0.63946 8.8333-1 24.5-1s24.5 0.36054 24.5 1-8.8333 1-24.5 1-24.5-0.36054-24.5-1zm150.18 41.489c-0.6474-1.4209-1.1771-5.1621-1.1771-8.3138 0-3.849-0.57457-6.5422-1.75-8.2029-1.4876-2.1018-1.8014-5.3639-2.0926-21.758-0.25044-14.099-0.0158-19.68 0.87245-20.75 0.92944-1.1199 3.7524-1.464 12.011-1.464 5.9377 0 11.508 0.27314 12.378 0.60699 1.37 0.52573 1.5818 3.3071 1.5818 20.777 0 16.048-0.29784 20.596-1.4573 22.251-0.92116 1.3151-1.565 5.1678-1.75 10.473l-0.29274 8.392-8.5729 0.28635c-8.3683 0.27952-8.601 0.2247-9.75-2.297zm5.8229-3.4893c0-1.3333-0.66667-2-2-2s-2 0.66667-2 2 0.66667 2 2 2 2-0.66667 2-2zm5 0c0-2.0703-2.4125-2.7596-3.5-1-0.83704 1.3544 0.29243 3 2.059 3 0.79254 0 1.441-0.9 1.441-2zm5.5-0.0696c0-0.77163-0.7875-1.5546-1.75-1.74-1.7237-0.33196-2.4363 1.79-1.0625 3.1638 1.0482 1.0482 2.8125 0.15505 2.8125-1.4238zm-10.5-4.4304c0-0.83333-0.88889-1.5-2-1.5s-2 0.66667-2 1.5 0.88889 1.5 2 1.5 2-0.66667 2-1.5zm5 0c0-0.83333-0.88889-1.5-2-1.5s-2 0.66667-2 1.5 0.88889 1.5 2 1.5 2-0.66667 2-1.5zm5.25 0.2363c-0.1375-0.40496-0.25-2.0863-0.25-3.7363 0-2-0.5-3-1.5-3-1.8087 0-2.0176 3.6245-0.25 4.3377 1 0.40351 1 0.52017 0 0.58333-0.6875 0.0434-1.25 0.78695-1.25 1.6523 0 0.96013 0.68206 1.442 1.75 1.2363 0.9625-0.18536 1.6375-0.66836 1.5-1.0733zm-10.75-4.75c0-2.1435-2.9057-1.8339-3.3271 0.35451-0.25736 1.3364 0.14991 1.7437 1.4863 1.4863 1.0124-0.19498 1.8408-1.0234 1.8408-1.8408zm5.5 0.0137c0-2.0703-2.4125-2.7596-3.5-1-0.83704 1.3544 0.29243 3 2.059 3 0.79254 0 1.441-0.9 1.441-2zm-1-8c0-0.55-0.45-1-1-1s-1 0.45-1 1 0.45 1 1 1 1-0.45 1-1zm8.7742-19.25 0.27418-16.75h-21.048v16.43c0 19.048-1.1774 17.428 12.5 17.202l8-0.13215zm-300.32-46.205c-2.5659-2.5659-3.3624-7.8663-1.3674-9.0993 2.097-1.296 3.3714 1.3286 1.9419 3.9996-1.7136 3.202-4e-3 5.5543 4.0367 5.5543 3.5499 0 5.9343-3.2143 5.9343-8 0-4.859-2.378-8-6.0567-8-1.6188 0-2.9433-0.45-2.9433-1 0-2.2717 6.1946-0.95926 9.0769 1.9231 4.1162 4.1162 4.1162 10.038 0 14.154-3.6072 3.6072-7.3199 3.771-10.622 0.46853zm19.545 0.45455c0-0.55 1.125-1 2.5-1h2.5v-26h-3c-1.65 0-3-0.45-3-1s0.69735-1 1.5497-1 2.8773-0.68656 4.5-1.5257l2.9503-1.5257v31.051h2.5c1.375 0 2.5 0.45 2.5 1 0 0.5641-2.8333 1-6.5 1s-6.5-0.4359-6.5-1zm156.38-8.4369c-4.0523-1.7637-6.3783-5.1738-6.3783-9.3513 0-6.841 4.1835-11.155 10.85-11.19 3.6292-0.0186 4.9134 0.54116 7.75 3.3778 2.4274 2.4274 3.4 4.301 3.4 6.5497 0 4.664-2.676 9.017-6.5343 10.629-4.129 1.7252-5.0912 1.7235-9.0874-0.0157zm8.2439-8.1095c1.1497-1.7409 1.121-2.3753-0.1921-4.25-1.81-2.5841-4.6454-2.8454-6.8586-0.63219-2.0093 2.0093-1.9926 3.8646 0.0532 5.9104 2.0712 2.0713 5.2602 1.6027 6.9975-1.0282zm50.756 8.1214c-4.3206-1.897-6.3783-5.2439-6.3783-10.374 0-6.152 4.0485-10.201 10.201-10.201 5.2167 0 8.5205 2.0882 10.392 6.5685 3.7022 8.8606-5.4332 17.862-14.215 14.007zm7.4217-6.7751c1.6578-1.6578 1.5037-5.3031-0.28701-6.7892-3.7772-3.1348-9.637 2.725-6.5022 6.5022 1.4861 1.7907 5.1315 1.9448 6.7892 0.28701zm-234-4c1.6862-1.6862 1.5168-9.2922-0.23953-10.75-0.79174-0.65709-2.7042-1.0497-4.25-0.87245-2.4839 0.28482-2.8105 0.72893-2.8105 3.8223 0 3.7339-1.736 5.7284-2.3249 2.6709-0.6303-3.2729 0.72255-6.3033 3.3479-7.4995 3.747-1.7072 5.2767-1.4626 8.0224 1.2831 3.0058 3.0058 3.3188 8.4534 0.6258 10.89-2.08 1.8824-4.2067 2.2905-2.3713 0.45499zm287.45-8.535c2.6125-0.206 6.8875-0.206 9.5 0s0.475 0.37454-4.75 0.37454-7.3625-0.16854-4.75-0.37454zm-29.5-0.98836c3.048-0.37825 3.25-0.64802 3.25-4.34 0-3.7477-0.15601-3.943-3.25-4.0683l-3.25-0.13164 7-1.4734-7-0.52656 7-1.3902-7-1.0264 7.5-0.32007v14l-3.75-0.16004c-3.6921-0.15756-3.6998-0.16626-0.5-0.56336zm24.25-4.7766c0-2.4815 0.0667-2.5 9-2.5 8.9333 0 9 0.0185 9 2.5 0 2.4815-0.0667 2.5-9 2.5-8.9333 0-9-0.0185-9-2.5zm-109.25-9.1623c0.6875-0.27741 1.8125-0.27741 2.5 0s0.125 0.50439-1.25 0.50439-1.9375-0.22698-1.25-0.50439zm21 0c0.6875-0.27741 1.8125-0.27741 2.5 0s0.125 0.50439-1.25 0.50439-1.9375-0.22698-1.25-0.50439zm20 0c0.6875-0.27741 1.8125-0.27741 2.5 0s0.125 0.50439-1.25 0.50439-1.9375-0.22698-1.25-0.50439zm-24.03-2.0684c2.3209-0.20972 6.3709-0.21222 9-6e-3 2.6291 0.20667 0.73017 0.37827-4.2198 0.38131-4.95 3e-3 -7.1011-0.16605-4.7802-0.37577zm52.03-0.93155c0.6875-0.27741 1.8125-0.27741 2.5 0s0.125 0.50439-1.25 0.50439-1.9375-0.22698-1.25-0.50439zm-121.31-6.736c-0.90054-3.588-0.1575-6.7626 1.8724-7.9996 1.4446-0.88033 2.0987-0.71148 3.25 0.839 1.7522 2.3596 1.8782 6.7221 0.24143 8.3589-1.9982 1.9982-4.7138 1.3915-5.3638-1.1983zm-10.1-4.1689c-0.33077-0.86197-0.12189-2.0467 0.46417-2.6328 1.5554-1.5555 4.2-0.18998 4.2 2.1686 0 2.4662-3.7526 2.8397-4.6642 0.46417zm21.914 0.90055c-1.6653-0.66613-1.6004-3.9849 0.0907-4.6338 1.9892-0.76333 3.9053 0.78659 3.5077 2.8375-0.37859 1.9531-1.6366 2.5811-3.5984 1.7964zm-1.5716-10.694c-4.689-4.4808-7.6784-8.1358-7.6784-9.3879 0-2.0459 10.744-12.84 11.765-11.819 0.60934 0.60934-4.2147 7.1236-7.6376 10.314l-2.4092 2.2452 2.4596 1.9347c3.2088 2.5241 12.188 13.042 11.619 13.611-0.24202 0.24203-3.8953-2.8618-8.1185-6.8974zm-28.293 2.9222c-0.79084-2.0609 1.3372-4.605 3.2409-3.8745 1.9954 0.7657 1.3195 4.7079-0.87901 5.127-0.96417 0.18377-2.027-0.37987-2.3619-1.2525zm36.573-1.1114c-1.0628-1.2806-0.99712-1.8396 0.37755-3.2143 1.5521-1.5521 1.7761-1.5521 3.3282 0 1.3747 1.3747 1.4403 1.9337 0.37755 3.2143-1.6187 1.9504-2.4646 1.9504-4.0833 0zm40.761-0.18054c2.3209-0.20972 6.3709-0.21222 9-0.0055 2.6291 0.20668 0.73017 0.37827-4.2198 0.38132-4.95 3e-3 -7.1011-0.16605-4.7802-0.37578zm20 0c2.3209-0.20972 6.3709-0.21222 9-0.0055 2.6291 0.20668 0.73017 0.37827-4.2198 0.38132-4.95 3e-3 -7.1011-0.16605-4.7802-0.37578zm-101.36-8.7693c-1.1241-2.9293 0.44124-4.5 4.4845-4.5 4.1946 0 6.7577 1.984 5.7971 4.4873-0.80612 2.1007-9.4763 2.1115-10.282 0.01274zm39.569-0.08382c-2.7405-3.3021 2.0265-6.3968 7.6713-4.98 2.5898 0.64999 3.1965 3.3657 1.1983 5.3638-1.722 1.7219-7.3231 1.4796-8.8696-0.38382zm-35.972-10.966c-1.0628-1.2806-0.99712-1.8396 0.37755-3.2143 1.5521-1.5521 1.7761-1.5521 3.3282 0 1.3747 1.3747 1.4403 1.9337 0.37755 3.2143-1.6187 1.9504-2.4646 1.9504-4.0833 0zm37.103-0.41216c-1.9101-1.1805-0.83529-4.5377 1.4528-4.5377 1.2628 0 2.0966 0.7732 2.2892 2.1227 0.33033 2.3152-1.7407 3.6518-3.742 2.4149zm-18.491-5.6111c-2.0193-2.0193-2.0183-6.8349 2e-3 -8.8552 0.86428-0.86429 1.8993-1.5714 2.3-1.5714 3.4223 0 4.4312 9.2325 1.198 10.963-1.4573 0.7799-2.3153 0.64844-3.5-0.53624zm-10.319-1.1572c-1.7876-0.62355-1.5456-3.9419 0.34024-4.6656 2.1043-0.80748 3.4098 0.09161 3.4098 2.3483 0 1.9658-1.7166 3.0266-3.75 2.3173zm20.451-0.90146c-0.38568-0.38568-0.70124-1.5262-0.70124-2.5346 0-1.3021 0.74453-1.8333 2.5696-1.8333 2.0897 0 2.5099 0.41827 2.25 2.2398-0.31628 2.2169-2.7645 3.482-4.1183 2.1281z" fill="#0d0f10"/>
 <g transform="translate(-499.61 74.784)" shape-rendering="auto">
  <path d="m538.52 293.45c-361.03-202.93-180.51-101.47 0 0zm268.69-111.34c-3.5356-1.7829-4.7388-3.0804-5.796-6.25-2.593-7.7748 0.85752-20.223 7.3501-26.516 3.291-3.1898 3.3417-3.359 1.8612-6.222-2.5238-4.8805-1.564-5.4681 9.2889-5.6869 12.911-0.26028 13.492-0.25135 13.958 0.21479 0.2187 0.2187-0.24638 2.223-1.0335 4.454-1.3753 3.8982-1.3361 4.1457 1.0064 6.3463 1.3407 1.2595 3.7799 4.9762 5.4205 8.2593 2.4425 4.8879 2.9829 7.215 2.9829 12.845 0 11.848-4.1565 14.805-20.808 14.805-8.1409 0-10.511-0.37476-14.23-2.25zm9.7825-9.8944c0.85915-0.85915 1.9011-0.83092 4.1806 0.11328 3.7596 1.5573 7.6606 0.6741 9.1272-2.0664 1.416-2.6459 0.3435-3.8259-1.36-1.4962-1.0208 1.396-2.0659 1.6142-5.0496 1.0545-2.7291-0.51198-3.6087-1.1066-3.2025-2.1651 0.30799-0.80258 0.55997-2.2953 0.55997-3.3171 0-1.4104 0.90307-1.9523 3.75-2.2501l3.75-0.39226-4.0895-0.16811c-3.3281-0.1368-4.3056-0.64234-5.25-2.7152-1.7306-3.7982-1.4261-5.3748 1.2757-6.6058 3.5624-1.6231 5.7567-0.46384 4.9799 2.6309-0.52893 2.1074-0.28125 2.522 1.5068 2.522 2.9036 0 3.7126-2.6403 1.5433-5.0372-3.1516-3.4825-12.703-1.944-14.037 2.2612-0.33524 1.0562-0.34284 2.983-0.0169 4.2816 0.50097 1.996 0.16698 2.4256-2.1597 2.778-2.5454 0.38549-2.5062 0.42808 0.52243 0.56665 2.5241 0.11549 3.4983 0.7378 4.25 2.7149 0.53639 1.4108 0.97525 2.718 0.97525 2.9048s-1.7062 0.1109-3.7915-0.1688c-4.5565-0.61115-7.3389 1.6319-5.2085 4.1989 1.4703 1.7716 6.1151 1.9849 7.7444 0.35563zm-6.2487-0.86269c-0.79429-1.2852 2.0146-2.3949 4.0678-1.607 0.85986 0.32996 1.2833 1.0531 0.94099 1.607-0.80528 1.303-4.2035 1.303-5.0087 0z" color="#000000" color-rendering="auto" dominant-baseline="auto" fill="#da5628" image-rendering="auto" solid-color="#000000" stop-color="#000000" style="font-feature-settings:normal;font-variant-alternates:normal;font-variant-caps:normal;font-variant-east-asian:normal;font-variant-ligatures:normal;font-variant-numeric:normal;font-variant-position:normal;font-variation-settings:normal;inline-size:0;isolation:auto;mix-blend-mode:normal;shape-margin:0;shape-padding:0;text-decoration-color:#000000;text-decoration-line:none;text-decoration-style:solid;text-indent:0;text-orientation:mixed;text-transform:none;white-space:normal"/>
  <path d="m831.57 136.77c-1.8383-0.0283-5.2083 0.0359-11.664 0.16601-2.7176 0.0548-4.8204 0.13182-6.4258 0.29688-1.6054 0.16506-2.7161 0.39956-3.4863 0.87109s-1.1136 1.292-1.002 2.1641c0.11165 0.87209 0.55264 1.8487 1.1914 3.084 0.36867 0.71292 0.63283 1.2472 0.76563 1.6562 0.13279 0.40906 0.14602 0.66671 0.0586 0.95898-0.17486 0.58456-0.94658 1.4249-2.5898 3.0176-3.3328 3.2303-5.8446 7.9846-7.2148 12.928-1.3702 4.9431-1.6046 10.079-0.26172 14.105 1.0802 3.2388 2.463 4.7328 6.0449 6.5391 3.7711 1.9016 6.2988 2.3027 14.455 2.3027 8.3556 0 13.648-0.71066 16.939-3.0527 1.6459-1.171 2.7571-2.7601 3.4336-4.7832 0.67651-2.0231 0.93555-4.4776 0.93555-7.4688 0-5.6619-0.57745-8.15-3.0352-13.068-1.6617-3.3254-4.0475-7.012-5.5254-8.4004-1.1654-1.0949-1.6462-1.6199-1.7461-2.25-0.0999-0.63005 0.18307-1.6219 0.86914-3.5664 0.39892-1.1307 0.71491-2.2022 0.9082-3.0352 0.0966-0.4165 0.16261-0.77019 0.19141-1.0606 0.0144-0.14517 0.0225-0.27262 0.0117-0.40234s-2e-3 -0.28094-0.19532-0.47461c-0.15266-0.15267-0.4378-0.32982-0.82226-0.4043-0.38446-0.0745-0.91678-0.1089-1.8359-0.12304zm-0.0156 1c0.89812 0.0138 1.4032 0.0533 1.6621 0.10351 0.1752 0.0339 0.17249 0.0598 0.20508 0.0879-1e-3 0.0383 2e-3 0.0577-4e-3 0.11328-0.0215 0.21669-0.0793 0.54476-0.16993 0.93555-0.18136 0.78158-0.49068 1.8274-0.8789 2.9277-0.68927 1.9536-1.0756 3.0363-0.91407 4.0547 0.1615 1.0184 0.87179 1.7165 2.0488 2.8223 1.2035 1.1306 3.6969 4.8783 5.3164 8.1191 2.4274 4.8576 2.9297 7.0232 2.9297 12.621 0 2.9327-0.25962 5.2887-0.88282 7.1524-0.62319 1.8636-1.5917 3.2359-3.0664 4.2852-2.9494 2.0985-8.063 2.8672-16.359 2.8672-8.1256 0-10.338-0.34842-14.004-2.1973-3.4892-1.7595-4.5128-2.8605-5.5469-5.9609-1.2501-3.7483-1.0545-8.7238 0.27539-13.521 1.3299-4.7977 3.7895-9.414 6.9492-12.477 1.6478-1.5971 2.5465-2.436 2.8496-3.4492 0.15155-0.50663 0.1068-1.0271-0.0644-1.5547-0.17126-0.52755-0.45655-1.0881-0.82813-1.8066-0.62313-1.205-1.0088-2.1344-1.0879-2.752-0.0791-0.61757 0.0223-0.87081 0.5332-1.1836 0.5109-0.31279 1.5164-0.5713 3.0645-0.73047s3.6349-0.2364 6.3438-0.29102c6.4552-0.13013 9.8327-0.19365 11.629-0.16601zm-10.617 12.307c-3.0571 0.49244-5.9683 1.9418-6.7344 4.3555-0.38762 1.2213-0.3802 3.141-0.0254 4.5547 0.12102 0.48218 0.18337 0.854 0.18555 1.1094 2e-3 0.25538-0.041 0.37129-0.11524 0.4668-0.1485 0.19101-0.68321 0.41373-1.8203 0.58593-0.63789 0.0966-1.1136 0.17224-1.4394 0.23633-0.16294 0.032-0.28257 0.057-0.40039 0.0977-0.0589 0.0203-0.11307 0.0275-0.22461 0.11914-0.0558 0.0458-0.14776 0.12848-0.1836 0.30078-0.0358 0.1723 0.0499 0.37148 0.12696 0.45508 0.15415 0.1672 0.22664 0.15173 0.29101 0.16992 0.0644 0.0182 0.12089 0.0273 0.18555 0.0371 0.12931 0.0197 0.28527 0.0356 0.48633 0.0508 0.40212 0.0304 0.97415 0.0591 1.7324 0.0938 1.224 0.056 2.0043 0.23791 2.543 0.58203 0.53869 0.34412 0.90713 0.87276 1.2637 1.8106 0.26606 0.69979 0.50772 1.3745 0.68164 1.8926 0.058 0.17284 0.0938 0.29583 0.13477 0.42773-0.14455 2e-3 -0.26104 7e-3 -0.4668-2e-3 -0.66462-0.0296-1.602-0.11761-2.6328-0.25586-2.3714-0.31807-4.3247 0.0744-5.4922 1.0156-0.58376 0.47061-0.96643 1.1101-1.0078 1.8262-0.0414 0.71609 0.25023 1.4614 0.83984 2.1719 0.89411 1.0773 2.5338 1.5594 4.1738 1.6348 1.64 0.0753 3.3182-0.2538 4.3086-1.2441 0.35618-0.35618 0.65112-0.4873 1.1914-0.47266 0.54029 0.0146 1.3288 0.23284 2.4453 0.69531 3.9343 1.6296 8.1402 0.73329 9.7598-2.293 0.37369-0.69826 0.59146-1.3111 0.67578-1.834 0.0843-0.52291 0.0695-0.99145-0.25781-1.3516-0.16366-0.18006-0.42023-0.29117-0.66016-0.29493-0.23993-4e-3 -0.46029 0.0726-0.67188 0.18946-0.42316 0.23374-0.83851 0.64484-1.291 1.2637-0.46971 0.64237-0.84779 0.93266-1.4883 1.0664-0.64049 0.13374-1.5965 0.0668-3.0664-0.20899-1.3396-0.25132-2.2014-0.5395-2.5879-0.80078-0.19324-0.13064-0.25899-0.2307-0.28515-0.3125-0.0262-0.0818-0.0294-0.18722 0.0449-0.38086 0.3496-0.91102 0.59375-2.3921 0.59375-3.4961 0-0.59852 0.11023-0.84074 0.56445-1.1133 0.45422-0.27255 1.3406-0.49247 2.7383-0.63868l3.75-0.39257-0.0312-0.99805-4.0898-0.16797c-1.6408-0.0674-2.651-0.23506-3.3106-0.57617-0.65957-0.34112-1.0543-0.85457-1.5059-1.8457-0.84988-1.8653-1.1491-3.1321-0.98828-3.9648s0.7335-1.3934 2.0176-1.9785c1.705-0.77688 3.0042-0.82163 3.6758-0.4668 0.33581 0.17741 0.5472 0.43297 0.66602 0.83789 0.11881 0.40492 0.12416 0.96901-0.0547 1.6816-0.27084 1.0791-0.4333 1.8058-0.0606 2.4297 0.18637 0.31193 0.51374 0.50699 0.85742 0.59961 0.34368 0.0926 0.72898 0.11523 1.1953 0.11523 1.6034 0 2.7908-0.79258 3.1523-1.9727 0.36155-1.1801-0.0716-2.6112-1.2383-3.9004-1.769-1.9547-5.0933-2.4026-8.1504-1.9102zm0.1582 0.98633c0.55511-0.0894 1.0751 0.0358 1.6309 0.0215-0.69412 0.10691-1.4309 0.29567-2.248 0.66797-1.4178 0.64597-2.3478 1.4864-2.582 2.6992s0.17789 2.6354 1.0586 4.5684c0.49285 1.0817 1.0597 1.8562 1.957 2.3203 0.69566 0.35978 1.7603 0.44122 2.8906 0.5332-0.72372 0.13354-1.5511 0.22363-2.002 0.49414-0.70904 0.42545-1.0508 1.1588-1.0508 1.9707 0 0.93961-0.26097 2.4445-0.52735 3.1387-0.12877 0.33559-0.17231 0.69958-0.0625 1.043 0.10982 0.34338 0.35876 0.62356 0.67578 0.83789 0.63405 0.42865 1.5754 0.69246 2.9648 0.95312 1.5138 0.284 2.5719 0.38951 3.4551 0.20508 0.8832-0.18443 1.5388-0.70148 2.0898-1.4551 0.39925-0.546 0.75596-0.86097 0.96875-0.97851 0.0677-0.0374 0.0811-0.0343 0.10938-0.041-8.3e-4 0.0164 0.0629 0.13351 0.01 0.46289-0.0596 0.36971-0.23794 0.89679-0.57226 1.5215-1.3137 2.4547-4.9093 3.3267-8.4942 1.8418-1.163-0.48173-2.0354-0.75074-2.8008-0.77148-0.76533-0.0207-1.4228 0.26265-1.9258 0.76562-0.51887 0.51888-1.6111 0.79452-2.7715 0.8711 0.93907-0.0976 1.8469-0.36698 2.3105-1.1172 0.27079-0.43815 0.22866-0.98851-0.0137-1.4023-0.24232-0.41384-0.65546-0.73468-1.1738-0.9336-1.1711-0.44939-2.4786-0.3615-3.4629 0.0274-0.49214 0.19442-0.91595 0.46152-1.1855 0.86133-0.26959 0.3998-0.30822 0.98648-0.0234 1.4473 0.26404 0.42723 0.68736 0.69412 1.1582 0.88477-0.79425-0.22818-1.4927-0.53795-1.8438-0.96094-0.47558-0.57304-0.63487-1.0692-0.61133-1.4766 0.0235-0.40734 0.22162-0.77084 0.63672-1.1055 0.83021-0.66927 2.5474-1.0939 4.7324-0.80078 1.0546 0.14144 2.0129 0.23207 2.7227 0.26367 0.3549 0.0158 0.64454 0.0177 0.875 0 0.11523-9e-3 0.21064-0.0199 0.32617-0.0547 0.0578-0.0174 0.12398-0.0357 0.21289-0.10156 0.0889-0.0659 0.22071-0.23169 0.22071-0.4336 0-0.12121-0.0169-0.16378-0.0332-0.23437-0.0163-0.0706-0.0361-0.14926-0.0625-0.24023-0.0527-0.18195-0.12699-0.41221-0.21679-0.67969-0.17961-0.53496-0.42499-1.2187-0.69532-1.9297-0.39515-1.0393-0.89085-1.8086-1.6582-2.2988-0.5866-0.37472-1.4403-0.46343-2.3203-0.5625 0.53738-0.14641 0.98644-0.33787 1.2734-0.70703 0.23746-0.30544 0.32956-0.69228 0.32617-1.0898-3e-3 -0.39757-0.0873-0.82987-0.2168-1.3457-0.29707-1.1836-0.27309-3.1166 0.01-4.0078 0.56862-1.7916 3.0994-3.2144 5.9394-3.6719zm2.5859 0.0332c1.9185 0.10557 3.7099 0.50821 4.6641 1.5625 1.0026 1.1078 1.25 2.1962 1.0234 2.9356-0.22651 0.7393-0.89505 1.2656-2.1953 1.2656-0.4277 0-0.74643-0.0291-0.93555-0.0801-0.18913-0.051-0.22488-0.0914-0.25781-0.14648-0.0659-0.11026-0.0862-0.6455 0.17187-1.6738 0.20951-0.83476 0.23041-1.5749 0.0449-2.207-0.18548-0.63213-0.59919-1.145-1.1602-1.4414-0.37943-0.20045-0.87845-0.18813-1.3555-0.21484zm-10.471 18.893c0.48259-0.0121 0.98279 0.0554 1.4238 0.22461 0.3415 0.13104 0.56919 0.3352 0.66797 0.5039 0.0988 0.1687 0.0989 0.25731 0.0273 0.37305-0.23727 0.38392-1.1325 0.74023-2.0801 0.74023s-1.8408-0.35631-2.0781-0.74023c-0.11237-0.18182-0.0978-0.21623 0-0.36133s0.35718-0.34703 0.72461-0.49219c0.36743-0.14515 0.83187-0.23594 1.3144-0.24804zm-0.33789 2.7832c0.0839 5e-3 0.16029 0.0354 0.24414 0.0371-0.0109-4.5e-4 -0.0203 4e-3 -0.0312 4e-3 -0.0754-3e-3 -0.13782-0.0352-0.21289-0.041z" color="#000000" color-rendering="auto" dominant-baseline="auto" image-rendering="auto" solid-color="#000000" stop-color="#000000" style="font-feature-settings:normal;font-variant-alternates:normal;font-variant-caps:normal;font-variant-east-asian:normal;font-variant-ligatures:normal;font-variant-numeric:normal;font-variant-position:normal;font-variation-settings:normal;inline-size:0;isolation:auto;mix-blend-mode:normal;shape-margin:0;shape-padding:0;text-decoration-color:#000000;text-decoration-line:none;text-decoration-style:solid;text-indent:0;text-orientation:mixed;text-transform:none;white-space:normal"/>
 </g>
</svg>
