<?xml version="1.0" encoding="UTF-8" standalone="no"?>
<svg
   xmlns:dc="http://purl.org/dc/elements/1.1/"
   xmlns:cc="http://creativecommons.org/ns#"
   xmlns:rdf="http://www.w3.org/1999/02/22-rdf-syntax-ns#"
   xmlns:svg="http://www.w3.org/2000/svg"
   xmlns="http://www.w3.org/2000/svg"
   xmlns:sodipodi="http://sodipodi.sourceforge.net/DTD/sodipodi-0.dtd"
   xmlns:inkscape="http://www.inkscape.org/namespaces/inkscape"
   width="82"
   height="82"
   version="1.1"
   viewBox="0 0 82 82"
   id="svg6"
   sodipodi:docname="md.svg"
   inkscape:version="1.0 (4035a4fb49, 2020-05-01)">
  <defs
     id="defs10" />
  <sodipodi:namedview
     inkscape:document-rotation="0"
     pagecolor="#ffffff"
     bordercolor="#666666"
     borderopacity="1"
     objecttolerance="10"
     gridtolerance="10"
     guidetolerance="10"
     inkscape:pageopacity="0"
     inkscape:pageshadow="2"
     inkscape:window-width="1366"
     inkscape:window-height="746"
     id="namedview8"
     showgrid="false"
     inkscape:zoom="4.9842405"
     inkscape:cx="10.327266"
     inkscape:cy="45.765319"
     inkscape:window-x="-8"
     inkscape:window-y="-8"
     inkscape:window-maximized="1"
     inkscape:current-layer="layer1" />
  <metadata
     id="metadata2">
    <rdf:RDF>
      <cc:Work
         rdf:about="">
        <dc:format>image/svg+xml</dc:format>
        <dc:type
           rdf:resource="http://purl.org/dc/dcmitype/StillImage" />
        <dc:title />
      </cc:Work>
    </rdf:RDF>
  </metadata>
  <g
     style="display:inline"
     inkscape:label="Layer 1"
     id="layer1"
     inkscape:groupmode="layer">
    <ellipse
       ry="29.94758"
       rx="29.947578"
       cy="39.323948"
       cx="39.323944"
       id="path874"
       style="fill:#ff4a27;fill-opacity:1;stroke:#ff0000;stroke-width:0.805;stroke-miterlimit:4;stroke-dasharray:none" />
  </g>
  <g
     style="display:inline"
     inkscape:label="Layer 2"
     id="layer2"
     inkscape:groupmode="layer">
    <path
       sodipodi:nodetypes="ssssssscccccccccccccccccccssscscccs"
       id="path20"
       d="m 28.308808,56.310392 c 0,-0.836876 0.02218,-0.856124 0.986284,-0.856124 1.237139,0 2.562179,-0.540567 2.907737,-1.186245 0.145362,-0.271611 0.264295,-0.931585 0.264295,-1.466605 0,-0.771922 -0.145685,-1.09535 -0.705614,-1.5665 -0.665084,-0.559631 -0.941305,-0.603029 -4.8089,-0.755564 -2.256807,-0.089 -5.406583,-0.161829 -6.999501,-0.161829 H 17.056893 V 37.597969 24.878414 h 18.712423 18.712423 v 3.057585 6.468335 l -1.956854,-0.601897 v 0 -5.010314 -2.201461 H 35.89162 19.258355 v 10.640397 10.640397 h 13.820286 13.820286 l 2.808853,0.01924 -0.401265,2.426829 -4.547898,0.01458 c -4.343205,0.01392 -5.687109,0.630317 -5.687109,2.542005 0,0.552016 0.168355,1.244026 0.374122,1.537799 0.405818,0.579386 1.725105,1.038827 2.989223,1.040995 0.745209,0.0012 0.794972,0.05496 0.794972,0.857489 v 0.856124 h -7.460509 -7.460508 z"
       style="fill:#ffffff;fill-opacity:1;stroke-width:0.244606" />
    <path
       id="path24"
       d="m 49.920566,54.973324 c -0.479149,-0.199323 -0.540943,-0.471075 -0.705313,-3.101722 -0.09908,-1.585793 -0.127938,-6.232795 -0.06412,-10.326671 0.108629,-6.968306 0.145839,-7.465269 0.583011,-7.785855 0.704908,-0.516921 11.75577,-0.361741 12.091303,0.169791 0.308584,0.488841 0.308593,20.302723 9e-6,20.791581 -0.193172,0.306021 -1.156618,0.375576 -5.805668,0.419126 -3.065732,0.02872 -5.810381,-0.0461 -6.09922,-0.16625 z m 6.134343,-0.577273 c 0.684483,-0.500506 0.2962,-1.439324 -0.554588,-1.340921 -0.98516,0.113944 -1.008732,1.634639 -0.02575,1.661572 0.07519,0.0021 0.336341,-0.142232 0.580341,-0.320651 z M 60.841517,43.468533 V 34.662687 H 55.704774 50.56803 v 8.805846 8.805846 h 5.136744 5.136743 z"
       style="fill:#ffffff;fill-opacity:1;stroke-width:0.244606" />
  </g>
</svg>
