<?xml version="1.0" encoding="UTF-8" standalone="no"?>
<svg
   xmlns:dc="http://purl.org/dc/elements/1.1/"
   xmlns:cc="http://creativecommons.org/ns#"
   xmlns:rdf="http://www.w3.org/1999/02/22-rdf-syntax-ns#"
   xmlns:svg="http://www.w3.org/2000/svg"
   xmlns="http://www.w3.org/2000/svg"
   xmlns:sodipodi="http://sodipodi.sourceforge.net/DTD/sodipodi-0.dtd"
   xmlns:inkscape="http://www.inkscape.org/namespaces/inkscape"
   inkscape:version="1.0 (4035a4fb49, 2020-05-01)"
   sodipodi:docname="md.svg"
   id="svg6"
   viewBox="0 0 82 82"
   version="1.1"
   height="82"
   width="82">
  <defs
     id="defs10" />
  <sodipodi:namedview
     inkscape:current-layer="svg6"
     inkscape:window-maximized="1"
     inkscape:window-y="-8"
     inkscape:window-x="-8"
     inkscape:cy="42.525909"
     inkscape:cx="15.106908"
     inkscape:zoom="4.9842405"
     showgrid="false"
     id="namedview8"
     inkscape:window-height="746"
     inkscape:window-width="1366"
     inkscape:pageshadow="2"
     inkscape:pageopacity="0"
     guidetolerance="10"
     gridtolerance="10"
     objecttolerance="10"
     borderopacity="1"
     bordercolor="#666666"
     pagecolor="#ffffff" />
  <metadata
     id="metadata2">
    <rdf:RDF>
      <cc:Work
         rdf:about="">
        <dc:format>image/svg+xml</dc:format>
        <dc:type
           rdf:resource="http://purl.org/dc/dcmitype/StillImage" />
        <dc:title />
      </cc:Work>
    </rdf:RDF>
  </metadata>
  <g
     transform="translate(-0.20063237,-0.20063238)"
     style="opacity:1;fill:#ffffff;stroke:#ff0000;stroke-width:0.1;stroke-miterlimit:4;stroke-dasharray:none;fill-opacity:0"
     id="g14">
    <path
       id="path16"
       d="M 38.218,80.855 C 32.7698,80.3251 28.023,78.9714 23.43,76.6379 12.103,70.8831 4.278,60.3069 2.027,47.7099 1.54615,45.0187 1.36475,39.9523 1.64876,37.1459 c 0.51374,-5.0755 1.776,-9.468 4.0219,-13.995 4.3539,-8.7769 11.684,-15.581 20.78,-19.29 10.569,-4.3089 22.682,-3.8373 32.885,1.2802 4.084,2.0485 6.7142,3.9276 10.105,7.2192 3.5773,3.4725 6.2337,7.2019 8.3998,11.793 0.92367,1.9576 2.3425,6.1465 2.7854,8.2234 1.5868,7.4407 1.0371,15.302 -1.568,22.424 -3.7615,10.284 -11.842,18.737 -22.028,23.046 -3.0853,1.3051 -7.2315,2.4141 -10.636,2.8448 -1.8302,0.23153 -6.514,0.32532 -8.1755,0.16371 z m 6.455,-27.348 v -0.91814 l -1.2529,-0.0725 c -1.423,-0.0824 -1.9165,-0.38538 -2.1797,-1.3385 -0.24292,-0.87954 0.0893,-1.6094 0.92406,-2.0303 0.63296,-0.3191 0.92039,-0.35184 3.0892,-0.35184 h 2.3913 v -2.3456 h -22.68 v -17.201 h 26.903 v 3.5966 h 2.0188 l 0.0464,-2.5822 c 0.0255,-1.4202 0.0288,-2.6341 0.007,-2.6974 -0.0215,-0.06336 -7.0249,-0.09832 -15.563,-0.0777 l -15.524,0.0375 -0.04019,10.635 -0.04019,10.635 5.4364,9.4e-4 c 3.2255,4.7e-4 5.6709,0.066 6.0129,0.16095 1.178,0.3271 1.7047,1.569 1.1337,2.673 -0.31921,0.61712 -1.071,0.91822 -2.2917,0.91787 l -0.98261,-3.2e-4 0.106,1.877 h 12.485 v -0.91814 z m 15.199,-1.0608 c 0.27058,-0.2448 0.28577,-0.72033 0.28107,-8.796 -0.004,-6.851 -0.046,-8.5912 -0.21277,-8.8108 -0.19029,-0.25062 -0.63017,-0.27365 -5.226,-0.27365 -5.0084,0 -5.0187,6.25e-4 -5.2617,0.34754 -0.21305,0.30409 -0.24349,1.3989 -0.24349,8.7569 0,8.2008 0.008,8.4171 0.31282,8.7221 0.29945,0.29937 0.52138,0.31275 5.1884,0.31275 4.3173,0 4.9084,-0.0296 5.1616,-0.2588 z m -5.7616,-0.76841 c -0.14604,-0.3805 0.15294,-0.77108 0.59028,-0.77108 0.31127,0 0.37399,0.0787 0.37399,0.46912 0,0.39576 -0.0674,0.47687 -0.43102,0.51868 -0.2935,0.0337 -0.46364,-0.0354 -0.53325,-0.21672 z m -3.4935,-8.7461 v -6.9586 h 8.1335 v 13.917 h -8.1335 z m 4.2264,1.1337 c 0.0945,-0.36552 0.20232,-0.7864 0.23968,-0.93529 0.0373,-0.14889 0.1083,-0.41277 0.15764,-0.5864 0.068,-0.23924 0.016,-0.31568 -0.21463,-0.31568 -0.24389,0 -0.35472,0.20049 -0.55798,1.0095 -0.31252,1.2438 -0.31669,1.4925 -0.0251,1.4925 0.13773,0 0.29688,-0.26421 0.40034,-0.66459 z m -0.78533,0.12026 c 0,-0.28913 -0.10545,-0.41441 -0.41398,-0.49182 l -0.41398,-0.10388 0.41398,-0.21684 c 0.23398,-0.12257 0.41398,-0.35065 0.41398,-0.5246 0,-0.38603 -0.0855,-0.38406 -1.1592,0.0267 -1.1587,0.44329 -1.1727,0.78628 -0.053,1.2977 1.056,0.48231 1.2122,0.48395 1.2122,0.0127 z m 2.4199,0.006 c 1.1783,-0.52097 1.1779,-0.88541 -0.002,-1.3265 -1.069,-0.39987 -1.1672,-0.40124 -1.1672,-0.0162 0,0.17502 0.18105,0.40259 0.41978,0.52764 0.41219,0.21592 0.4136,0.22186 0.0782,0.32828 -0.18787,0.0596 -0.34158,0.16826 -0.34158,0.24143 0,0.0732 -0.0427,0.24435 -0.0949,0.3804 -0.13022,0.33921 0.0974,0.31146 1.1072,-0.13498 z m -22.988,-0.71228 v -0.39093 l -7.7424,-0.0836 V 43.954 l 7.7424,-0.0836 z m 13.066,0.0753 c 0.82141,-0.42466 0.76978,-1.5915 -0.0877,-1.9821 -0.83062,-0.37836 -1.7773,0.43873 -1.5513,1.3389 0.0554,0.22047 0.30868,0.49011 0.59144,0.62953 0.60488,0.29826 0.49962,0.29689 1.0476,0.0136 z m -7.6697,-0.23172 c 0.97873,-0.97847 -0.49182,-2.4632 -1.5729,-1.5881 -0.43965,0.35592 -0.4749,1.1402 -0.0713,1.5861 0.37593,0.41528 1.2297,0.41633 1.6442,0.002 z m -5.3468,-1.7592 0.0495,-0.43002 h -7.8414 v 0.9437 l 7.7424,-0.0836 z m 6.2852,-1.2901 c 0,-0.1949 -0.30414,-0.23456 -1.7988,-0.23456 -1.4946,0 -1.7988,0.03966 -1.7988,0.23456 0,0.1949 0.30413,0.23456 1.7988,0.23456 1.4946,0 1.7988,-0.03966 1.7988,-0.23456 z m 7.9771,0 c 0,-0.1949 -0.30413,-0.23456 -1.7988,-0.23456 -1.4946,0 -1.7988,0.03966 -1.7988,0.23456 0,0.1949 0.30414,0.23456 1.7988,0.23456 1.4946,0 1.7988,-0.03966 1.7988,-0.23456 z m -14.234,-0.62549 v -0.39093 h -7.8207 v 0.78186 h 7.8207 z m 6.2565,-0.31787 c 0,-0.20366 -0.26255,-0.23304 -1.7469,-0.19547 -1.2258,0.03102 -1.7663,0.10252 -1.8118,0.23968 -0.0494,0.14886 0.36715,0.19547 1.7469,0.19547 1.5234,0 1.8118,-0.03815 1.8118,-0.23968 z m 7.9771,0.0051 c 0,-0.1949 -0.30413,-0.23456 -1.7988,-0.23456 -1.4946,0 -1.7988,0.03966 -1.7988,0.23456 0,0.1949 0.30414,0.23456 1.7988,0.23456 1.4946,0 1.7988,-0.03966 1.7988,-0.23456 z m -7.9771,-0.78186 c 0,-0.1949 -0.30414,-0.23456 -1.7988,-0.23456 -1.4946,0 -1.7988,0.03966 -1.7988,0.23456 0,0.1949 0.30413,0.23456 1.7988,0.23456 1.4946,0 1.7988,-0.03966 1.7988,-0.23456 z m 7.9771,0 c 0,-0.1949 -0.30413,-0.23456 -1.7988,-0.23456 -1.4946,0 -1.7988,0.03966 -1.7988,0.23456 0,0.1949 0.30414,0.23456 1.7988,0.23456 1.4946,0 1.7988,-0.03966 1.7988,-0.23456 z m -14.262,-0.82096 -0.0495,-0.43002 -3.6447,-0.03109 c -2.0046,-0.0171 -3.7466,0.008 -3.8712,0.05582 -0.12461,0.0478 -0.22656,0.25531 -0.22656,0.46112 v 0.3742 h 7.8414 z m 6.2852,-0.11728 c 0,-0.1949 -0.30414,-0.23456 -1.7988,-0.23456 -1.4946,0 -1.7988,0.03966 -1.7988,0.23456 0,0.1949 0.30413,0.23456 1.7988,0.23456 1.4946,0 1.7988,-0.03966 1.7988,-0.23456 z m 7.9771,0 c 0,-0.1949 -0.30413,-0.23456 -1.7988,-0.23456 -1.4946,0 -1.7988,0.03966 -1.7988,0.23456 0,0.1949 0.30414,0.23456 1.7988,0.23456 1.4946,0 1.7988,-0.03966 1.7988,-0.23456 z m 0.31283,-2.111 v -0.46942 h -22.367 v 0.93824 h 22.367 z m -18.457,-2.0328 V 32.846 h -3.9103 v 1.085 l 1.9161,0.04919 c 1.0538,0.02705 1.9337,0.0644 1.9552,0.083 0.0215,0.0186 0.0391,-0.24766 0.0391,-0.59168 z m 21.585,-2.4238 v -1.0167 h -25.495 v 2.0328 h 25.495 z"
       style="color:#000000;font-style:normal;font-variant:normal;font-weight:normal;font-stretch:normal;font-size:medium;line-height:normal;font-family:sans-serif;font-variant-ligatures:normal;font-variant-position:normal;font-variant-caps:normal;font-variant-numeric:normal;font-variant-alternates:normal;font-variant-east-asian:normal;font-feature-settings:normal;font-variation-settings:normal;text-indent:0;text-align:start;text-decoration:none;text-decoration-line:none;text-decoration-style:solid;text-decoration-color:#000000;letter-spacing:normal;word-spacing:normal;text-transform:none;writing-mode:lr-tb;direction:ltr;text-orientation:mixed;dominant-baseline:auto;baseline-shift:baseline;text-anchor:start;white-space:normal;shape-padding:0;shape-margin:0;inline-size:0;clip-rule:nonzero;display:inline;overflow:visible;visibility:visible;isolation:auto;mix-blend-mode:normal;color-interpolation:sRGB;color-interpolation-filters:linearRGB;solid-color:#000000;solid-opacity:1;vector-effect:none;fill:#ffffff;fill-opacity:0;fill-rule:nonzero;stroke:#ff0000;stroke-width:0.1;stroke-linecap:butt;stroke-linejoin:miter;stroke-miterlimit:4;stroke-dasharray:none;stroke-dashoffset:0;stroke-opacity:1;color-rendering:auto;image-rendering:auto;shape-rendering:auto;text-rendering:auto;enable-background:accumulate;stop-color:#000000;stop-opacity:1" />
    <path
       id="path18"
       d="M 43.033203,0.88867188 C 37.397513,0.66927099 31.716969,1.6302935 26.421875,3.7890625 17.308515,7.5051413 9.9638396,14.321447 5.6015625,23.115234 3.3518968,27.649825 2.0848896,32.054901 1.5703125,37.138672 1.2850174,39.95777 1.4659789,45.020034 1.9492188,47.724609 4.2044055,60.345039 12.046005,70.941295 23.394531,76.707031 c 4.595118,2.334576 9.347823,3.690384 14.794922,4.222657 l 0.0039,0.002 0.01758,0.002 c 1.678494,0.163263 6.349288,0.06922 8.193359,-0.164063 3.413239,-0.431805 7.562438,-1.542862 10.65625,-2.851562 C 67.266675,73.600454 75.361698,65.133072 79.130859,54.828125 81.741117,47.692024 82.293037,39.816618 80.703125,32.361328 80.257594,30.272088 78.840962,26.087725 77.912109,24.119141 75.742455,19.520508 73.079589,15.783202 69.496094,12.304688 66.101465,9.0093708 63.460197,7.1213723 59.371094,5.0703125 54.259369,2.5064343 48.668893,1.1080728 43.033203,0.88867188 Z m -0.0059,0.15625002 c 5.61381,0.2185491 11.182162,1.6123938 16.273437,4.1660156 4.078897,2.0459402 6.698966,3.9171948 10.085938,7.2050785 3.571104,3.466486 6.220266,7.187917 8.382812,11.771484 0.918487,1.946615 2.339029,6.140518 2.779297,8.205078 1.583689,7.42611 1.035489,15.272961 -1.564453,22.38086 C 75.230537,65.036491 67.165872,73.474906 57,77.775391 c -3.076788,1.301499 -7.219473,2.408296 -10.615234,2.83789 -1.815894,0.22972 -6.510678,0.32386 -8.15625,0.164063 -3.94e-4,-3.9e-5 -0.0016,3.8e-5 -0.002,0 h -0.002 C 32.784825,80.248262 28.049335,78.897536 23.464844,76.568359 12.15937,70.824496 4.3503288,60.268882 2.1035156,47.695312 1.6250555,45.017488 1.4438376,39.947999 1.7265625,37.154297 2.2394654,32.087067 3.4981,27.704957 5.7402344,23.185547 10.085757,14.425534 17.401829,7.635515 26.480469,3.9335938 31.754375,1.7834628 37.413534,0.82637276 43.027344,1.0449219 Z M 38.376912,27.410156 22.77535,27.447266 22.73433,38.160156 22.69331,48.875 h 5.515625 c 1.612224,2.35e-4 3.029707,0.01664 4.085938,0.04492 0.528115,0.01414 0.966642,0.03136 1.292969,0.05078 0.326326,0.01942 0.548691,0.04457 0.613281,0.0625 1.134626,0.315056 1.63693,1.497183 1.085937,2.5625 -0.15048,0.290919 -0.40055,0.505343 -0.767578,0.652344 -0.367028,0.147001 -0.851162,0.222829 -1.455078,0.222656 h -1.066406 l 0.115234,2.033203 H 44.75 v -0.945312 h 0.002 v -0.05078 -0.992187 L 43.423828,52.4375 c -0.706499,-0.04091 -1.173233,-0.136623 -1.488281,-0.330078 -0.315048,-0.193455 -0.490313,-0.48465 -0.619141,-0.951172 -0.117547,-0.425603 -0.09596,-0.806111 0.05273,-1.132812 0.148697,-0.326702 0.425198,-0.602494 0.830078,-0.806641 0.313191,-0.157892 0.528761,-0.239889 0.943359,-0.287109 0.414598,-0.04722 1.027317,-0.05664 2.111328,-0.05664 h 2.46875 V 46.371094 H 25.042969 V 29.328125 h 26.746093 v 3.595703 h 2.173829 l 0.04883,-2.658203 c 0.01276,-0.710439 0.0202,-1.36988 0.02148,-1.859375 6.45e-4,-0.244748 -0.0015,-0.447972 -0.0039,-0.59375 -0.0012,-0.07289 -0.0019,-0.130402 -0.0039,-0.173828 -0.001,-0.02171 -0.0026,-0.03999 -0.0039,-0.05469 -0.0013,-0.01469 -1.36e-4,-0.02068 -0.0078,-0.04297 -8.4e-5,-2.48e-4 -0.02314,-0.03491 -0.02344,-0.03516 -2.96e-4,-2.46e-4 -0.01321,-0.0096 -0.01758,-0.01172 -0.0087,-0.0042 -0.01483,-0.0046 -0.01953,-0.0059 -0.0094,-0.0025 -0.01665,-0.0047 -0.02539,-0.0059 -0.01749,-0.0024 -0.03823,-0.0039 -0.06641,-0.0059 -0.05636,-0.0039 -0.138558,-0.0082 -0.24414,-0.01172 -0.211165,-0.007 -0.519271,-0.01359 -0.916016,-0.01953 -0.79349,-0.01187 -1.93711,-0.0203 -3.347656,-0.02734 -2.821093,-0.01408 -6.707355,-0.01812 -10.976563,-0.0078 z m 0,0.15625 c 4.268892,-0.01031 8.154102,-0.0063 10.974609,0.0078 1.410254,0.007 2.555147,0.01549 3.347657,0.02734 0.396255,0.0059 0.704762,0.01258 0.914062,0.01953 0.104651,0.0035 0.183563,0.0081 0.236328,0.01172 0.0088,6.02e-4 0.01228,0.0014 0.01953,0.002 2.33e-4,0.0044 -2.25e-4,0.0069 0,0.01172 0.0019,0.04062 0.0027,0.09792 0.0039,0.169922 0.0023,0.144013 0.0045,0.345679 0.0039,0.589844 -0.0013,0.48833 -0.0087,1.145708 -0.02148,1.855469 l -0.04492,2.505859 H 51.945312 V 29.171875 H 24.886719 v 17.355469 h 22.679687 v 2.189453 h -2.3125 c -1.084798,0 -1.699346,0.0077 -2.128906,0.05664 -0.42956,0.04892 -0.676325,0.143479 -0.996094,0.304687 -0.42988,0.216753 -0.736971,0.517521 -0.902344,0.880859 -0.165372,0.363339 -0.187872,0.786297 -0.0625,1.240235 0.134372,0.486598 0.336202,0.824101 0.689454,1.041015 0.353252,0.216915 0.845999,0.312026 1.5625,0.353516 l 1.179687,0.06836 v 0.792969 h -0.002 v 0.892578 H 32.261719 l -0.09766,-1.720703 h 0.900391 c 0.616784,1.77e-4 1.117874,-0.07468 1.511719,-0.232422 0.393844,-0.157741 0.680879,-0.402315 0.849609,-0.728515 0.591007,-1.142683 0.03778,-2.44406 -1.183593,-2.783204 -0.106411,-0.02954 -0.317314,-0.04877 -0.646485,-0.06836 -0.32917,-0.01959 -0.767703,-0.03661 -1.296875,-0.05078 -1.058344,-0.02834 -2.476567,-0.04469 -4.089844,-0.04492 l -5.357422,-0.002 0.03906,-10.554688 0.04102,-10.558593 z m 15.488281,0.02539 h 0.002 c -0.0015,-0.0043 2.19e-4,0.0025 0,0.002 -1.95e-4,-2.76e-4 -0.002,-0.002 -0.002,-0.002 z m -28.195312,2.361328 v 2.189453 h 25.65039 v -1.095703 -1.09375 z m 0.15625,0.15625 h 25.33789 v 0.9375 0.939453 h -25.33789 z m -0.158203,2.658203 v 1.240234 l 1.99414,0.05078 c 0.526536,0.01351 1.009543,0.0299 1.363282,0.04492 0.176869,0.0075 0.32093,0.01501 0.421875,0.02148 0.05047,0.0032 0.09081,0.0051 0.117187,0.0078 0.01319,0.0013 0.02238,0.0031 0.02734,0.0039 -9.85e-4,-2.78e-4 -0.0014,-9.56e-4 -0.0039,-0.002 6.8e-5,3.1e-5 0.0039,0.0015 0.0059,0.002 0.0077,0.0019 0.02317,0.0058 0.02344,0.0059 3.31e-4,1.6e-5 0.03092,-0.0057 0.03125,-0.0059 3.29e-4,-1.2e-4 0.02116,-0.01147 0.02148,-0.01172 3.27e-4,-2.53e-4 0.01335,-0.01133 0.01367,-0.01172 3.25e-4,-3.85e-4 0.0059,-0.0067 0.0078,-0.0098 0.0039,-0.0062 0.006,-0.01116 0.0078,-0.01563 0.0074,-0.01788 0.0089,-0.03234 0.01172,-0.04883 0.0056,-0.03298 0.01004,-0.07587 0.01367,-0.130859 0.0073,-0.109987 0.01172,-0.264156 0.01172,-0.4375 v -0.0625 -0.640625 z m 0.158203,0.15625 h 3.753906 v 0.546875 c 0,0.170677 -0.0048,0.323237 -0.01172,0.427735 -0.0023,0.03542 -0.0051,0.05529 -0.0078,0.07812 -0.0281,-0.0026 -0.0602,-0.005 -0.103516,-0.0078 -0.103014,-0.0066 -0.248263,-0.01395 -0.425781,-0.02148 -0.355036,-0.01507 -0.83797,-0.03139 -1.365234,-0.04492 l -1.839844,-0.04688 z m 28.888672,1.564453 c -2.504204,0 -3.758329,-9.81e-4 -4.423828,0.04297 -0.33275,0.02197 -0.518953,0.0536 -0.648438,0.109375 -0.129485,0.05577 -0.193014,0.141583 -0.253906,0.228516 -0.130825,0.186729 -0.182496,0.541764 -0.216797,1.77539 -0.0343,1.233627 -0.04102,3.346283 -0.04102,7.025391 0,4.100425 0.0027,6.203495 0.04297,7.324219 0.02011,0.560362 0.04774,0.876329 0.09375,1.078125 0.04601,0.201795 0.119868,0.295602 0.199219,0.375 0.07807,0.07805 0.165174,0.148293 0.3125,0.195312 0.147326,0.04702 0.352518,0.07516 0.693359,0.0957 0.681683,0.04109 1.904697,0.04492 4.238282,0.04492 2.158828,0 3.384425,-0.0067 4.107421,-0.04297 0.361498,-0.01812 0.597175,-0.0433 0.763672,-0.08008 0.166497,-0.03678 0.267896,-0.08935 0.341797,-0.15625 0.07672,-0.06941 0.142476,-0.170635 0.183594,-0.384765 0.04112,-0.214131 0.06737,-0.551867 0.08594,-1.132813 0.03713,-1.161891 0.03946,-3.298052 0.03711,-7.335937 -0.002,-3.425656 -0.01304,-5.574063 -0.04492,-6.894532 -0.01594,-0.660234 -0.03669,-1.113438 -0.06445,-1.417968 -0.01388,-0.152265 -0.02874,-0.266641 -0.04688,-0.353516 -0.01814,-0.08687 -0.03686,-0.144779 -0.07227,-0.191406 -0.056,-0.07375 -0.142562,-0.137497 -0.292969,-0.177735 -0.150406,-0.04024 -0.368286,-0.06533 -0.724609,-0.08398 -0.712645,-0.03732 -1.971486,-0.04297 -4.269531,-0.04297 z m 0,0.15625 c 2.297784,0 3.555941,0.0061 4.259765,0.04297 0.351913,0.01843 0.566103,0.04356 0.695313,0.07813 0.129209,0.03457 0.169837,0.06954 0.208984,0.121094 0.0063,0.0083 0.02492,0.05182 0.04102,0.128906 0.01609,0.07709 0.03135,0.187131 0.04492,0.335937 0.02714,0.297614 0.04855,0.749563 0.06445,1.408204 0.03181,1.317281 0.04292,3.465281 0.04492,6.890625 0.0023,4.037785 -1.71e-4,6.17604 -0.03711,7.332031 -0.01847,0.577995 -0.0463,0.911176 -0.08398,1.107422 -0.03768,0.196246 -0.07424,0.245833 -0.132813,0.298828 -0.0527,0.0477 -0.121021,0.0859 -0.271484,0.11914 -0.150462,0.03324 -0.380692,0.05824 -0.738281,0.07617 -0.715179,0.03585 -1.941138,0.04297 -4.099609,0.04297 -2.333436,0 -3.557617,-0.0045 -4.228516,-0.04492 -0.33545,-0.02022 -0.531899,-0.05016 -0.65625,-0.08984 -0.124351,-0.03969 -0.176394,-0.08266 -0.248047,-0.154297 -0.07306,-0.0731 -0.116979,-0.119965 -0.158203,-0.300782 -0.04122,-0.180817 -0.06985,-0.489937 -0.08984,-1.046875 -0.03998,-1.113876 -0.04297,-3.219938 -0.04297,-7.320312 0,-3.678892 0.0088,-5.792183 0.04297,-7.021484 0.03418,-1.229302 0.105275,-1.572093 0.1875,-1.689454 0.06061,-0.08653 0.08825,-0.131916 0.185547,-0.173828 0.0973,-0.04191 0.271406,-0.07611 0.597656,-0.09766 0.652501,-0.04309 1.909866,-0.04297 4.414063,-0.04297 z m -29.044922,0.3125 v 1.09375 H 48.193318 V 35.503905 34.95703 Z m 0.15625,0.15625 h 22.210937 v 0.390625 0.390625 H 25.826172 Z m 24.71289,0.78125 v 7.03711 7.037109 h 8.289063 V 35.894531 Z m 0.15625,0.15625 h 7.976563 V 49.8125 h -7.976563 v -6.880859 z m -20.849609,1.142578 c -1.002819,-0.0086 -1.940074,-0.0062 -2.642578,0.0039 -0.351252,0.0051 -0.64403,0.01262 -0.857422,0.02148 -0.106696,0.0044 -0.192505,0.0083 -0.257812,0.01367 -0.06531,0.0054 -0.09962,0.005 -0.142579,0.02148 -0.09097,0.0349 -0.154507,0.115959 -0.201171,0.210938 -0.04666,0.09498 -0.07422,0.208402 -0.07422,0.324218 v 0.451172 h 8.005859 l -0.05859,-0.517578 -0.05859,-0.498047 z m 8.179688,0.109375 c -0.747992,0 -1.196454,0.0094 -1.46875,0.04492 -0.136148,0.01775 -0.22946,0.04041 -0.298829,0.08203 -0.06937,0.04162 -0.109374,0.11648 -0.109374,0.185546 0,0.06906 0.04001,0.143921 0.109374,0.185547 0.06936,0.04163 0.160732,0.06428 0.296876,0.08203 0.272287,0.03551 0.722676,0.04492 1.470703,0.04492 0.747991,0 1.198407,-0.0094 1.470703,-0.04492 0.136148,-0.01775 0.227507,-0.04041 0.296875,-0.08203 0.06937,-0.04162 0.109375,-0.11648 0.109375,-0.185547 0,-0.06906 -0.04001,-0.14392 -0.109375,-0.185546 -0.06936,-0.04163 -0.160731,-0.06428 -0.296875,-0.08203 -0.272289,-0.03551 -0.722682,-0.04492 -1.470703,-0.04492 z m 7.976562,0 c -0.747992,0 -1.196454,0.0094 -1.46875,0.04492 -0.136148,0.01775 -0.22946,0.04041 -0.298828,0.08203 -0.06937,0.04162 -0.109375,0.11648 -0.109375,0.185546 0,0.06906 0.04001,0.143921 0.109375,0.185547 0.06936,0.04163 0.162684,0.06428 0.298828,0.08203 0.272289,0.03551 0.720729,0.04492 1.46875,0.04492 0.747992,0 1.198407,-0.0094 1.470703,-0.04492 0.136148,-0.01775 0.22946,-0.04041 0.298828,-0.08203 0.06937,-0.04162 0.107422,-0.11648 0.107422,-0.185547 0,-0.06906 -0.03806,-0.14392 -0.107422,-0.185546 -0.06936,-0.04163 -0.162684,-0.06428 -0.298828,-0.08203 -0.272288,-0.03551 -0.722676,-0.04492 -1.470703,-0.04492 z m -16.158203,0.04688 3.576172,0.03125 0.04102,0.361329 0.04102,0.341796 H 25.82614 v -0.294922 c 0,-0.08999 0.02313,-0.18368 0.05859,-0.255859 0.03546,-0.07218 0.08355,-0.11991 0.117187,-0.132812 -0.01181,0.0045 0.03602,-0.0066 0.09766,-0.01172 0.06164,-0.0051 0.148447,-0.0093 0.253907,-0.01367 0.21092,-0.0088 0.501164,-0.01643 0.851562,-0.02148 0.700796,-0.0101 1.636892,-0.01245 2.638672,-0.0039 z m 8.181641,0.109375 c 0.746638,0 1.195772,0.0099 1.449218,0.04297 0.126723,0.01653 0.203912,0.03992 0.238282,0.06055 0.03437,0.02063 0.0332,0.02435 0.0332,0.05273 0,0.02838 0.0012,0.03211 -0.0332,0.05273 -0.03438,0.02063 -0.111555,0.04402 -0.238282,0.06055 -0.253454,0.03305 -0.70261,0.04297 -1.449218,0.04297 -0.746644,0 -1.195774,-0.0099 -1.449219,-0.04297 -0.126722,-0.01653 -0.203913,-0.03992 -0.238281,-0.06055 -0.03437,-0.02063 -0.0332,-0.02435 -0.0332,-0.05273 0,-0.02838 -0.0012,-0.03211 0.0332,-0.05273 0.03438,-0.02063 0.111554,-0.04402 0.238281,-0.06055 0.253454,-0.03305 0.70261,-0.04297 1.449219,-0.04297 z m 7.976562,0 c 0.746644,0 1.197727,0.0099 1.451172,0.04297 0.126722,0.01653 0.203912,0.03992 0.238281,0.06055 0.03437,0.02063 0.03125,0.02435 0.03125,0.05273 0,0.02838 0.0031,0.03211 -0.03125,0.05273 -0.03437,0.02063 -0.111554,0.04402 -0.238281,0.06055 -0.253454,0.03305 -0.704564,0.04297 -1.451172,0.04297 -0.746638,0 -1.195773,-0.0099 -1.449219,-0.04297 -0.126723,-0.01653 -0.203911,-0.03992 -0.238281,-0.06055 -0.03437,-0.02063 -0.0332,-0.02435 -0.0332,-0.05273 0,-0.02838 -0.0012,-0.03211 0.0332,-0.05273 0.03438,-0.02063 0.111554,-0.04402 0.238281,-0.06055 0.253454,-0.03305 0.702611,-0.04297 1.449219,-0.04297 z m -7.976562,0.78125 c -0.747992,0 -1.198408,0.0094 -1.470703,0.04492 -0.136148,0.01775 -0.227507,0.04041 -0.296876,0.08203 -0.06937,0.04162 -0.109374,0.11648 -0.109374,0.185546 0,0.06906 0.04001,0.145874 0.109374,0.1875 0.06936,0.04163 0.160732,0.06428 0.296876,0.08203 0.272287,0.03551 0.722676,0.04492 1.470703,0.04492 0.747991,0 1.198407,-0.0094 1.470703,-0.04492 0.136148,-0.01775 0.227507,-0.04041 0.296875,-0.08203 0.06937,-0.04162 0.109375,-0.118433 0.109375,-0.1875 0,-0.06906 -0.04001,-0.14392 -0.109375,-0.185546 -0.06936,-0.04163 -0.160731,-0.06428 -0.296875,-0.08203 -0.272289,-0.03551 -0.722682,-0.04492 -1.470703,-0.04492 z m 7.976562,0 c -0.747992,0 -1.196454,0.0094 -1.46875,0.04492 -0.136148,0.01775 -0.22946,0.04041 -0.298828,0.08203 -0.06937,0.04162 -0.109375,0.11648 -0.109375,0.185546 0,0.06906 0.04001,0.145874 0.109375,0.1875 0.06936,0.04163 0.162684,0.06428 0.298828,0.08203 0.272289,0.03551 0.720729,0.04492 1.46875,0.04492 0.747992,0 1.198407,-0.0094 1.470703,-0.04492 0.136148,-0.01775 0.22946,-0.04041 0.298828,-0.08203 0.06937,-0.04162 0.107422,-0.118433 0.107422,-0.1875 0,-0.06906 -0.03806,-0.14392 -0.107422,-0.185546 -0.06936,-0.04163 -0.162684,-0.06428 -0.298828,-0.08203 -0.272288,-0.03551 -0.722676,-0.04492 -1.470703,-0.04492 z m -7.976562,0.15625 c 0.746638,0 1.195772,0.01187 1.449218,0.04492 0.126723,0.01653 0.203912,0.03992 0.238282,0.06055 0.03437,0.02063 0.0332,0.02239 0.0332,0.05078 0,0.02838 0.0012,0.03211 -0.0332,0.05273 -0.03438,0.02063 -0.111555,0.04402 -0.238282,0.06055 -0.253454,0.03305 -0.70261,0.04297 -1.449218,0.04297 -0.746644,0 -1.195774,-0.0099 -1.449219,-0.04297 -0.126722,-0.01653 -0.203913,-0.03992 -0.238281,-0.06055 -0.03437,-0.02063 -0.0332,-0.02435 -0.0332,-0.05273 0,-0.02838 -0.0012,-0.03015 0.0332,-0.05078 0.03438,-0.02063 0.111554,-0.04402 0.238281,-0.06055 0.253454,-0.03305 0.70261,-0.04492 1.449219,-0.04492 z m 7.976562,0 c 0.746644,0 1.197727,0.01187 1.451172,0.04492 0.126722,0.01653 0.201959,0.03992 0.236328,0.06055 0.03437,0.02063 0.0332,0.02239 0.0332,0.05078 0,0.02838 0.0012,0.03211 -0.0332,0.05273 -0.03437,0.02063 -0.109601,0.04402 -0.236328,0.06055 -0.253454,0.03305 -0.704564,0.04297 -1.451172,0.04297 -0.746638,0 -1.195773,-0.0099 -1.449219,-0.04297 -0.126723,-0.01653 -0.203911,-0.03992 -0.238281,-0.06055 -0.03437,-0.02063 -0.0332,-0.02435 -0.0332,-0.05273 0,-0.02838 -0.0012,-0.03015 0.0332,-0.05078 0.03438,-0.02063 0.111554,-0.04402 0.238281,-0.06055 0.253454,-0.03305 0.702611,-0.04492 1.449219,-0.04492 z m 0,0.626954 c -0.747992,0 -1.196454,0.0094 -1.46875,0.04492 -0.136148,0.01775 -0.22946,0.04041 -0.298828,0.08203 -0.06937,0.04162 -0.109375,0.11648 -0.109375,0.185547 0,0.06906 0.04001,0.14392 0.109375,0.185546 0.06936,0.04163 0.162684,0.06428 0.298828,0.08203 0.272289,0.03551 0.720729,0.04492 1.46875,0.04492 0.747992,0 1.198407,-0.0094 1.470703,-0.04492 0.136148,-0.01775 0.22946,-0.04041 0.298828,-0.08203 0.06937,-0.04162 0.107422,-0.11648 0.107422,-0.185546 0,-0.06906 -0.03806,-0.143921 -0.107422,-0.185547 -0.06936,-0.04163 -0.162684,-0.06428 -0.298828,-0.08203 -0.272288,-0.03551 -0.722676,-0.04492 -1.470703,-0.04492 z m -7.925781,0.0332 c -0.614128,0.01554 -1.057721,0.04043 -1.357422,0.08008 -0.14985,0.01982 -0.264457,0.04269 -0.349609,0.07227 -0.08515,0.02958 -0.152432,0.06435 -0.177735,0.140625 -0.01154,0.03478 -0.0093,0.08236 0.01172,0.117188 0.02099,0.03482 0.05282,0.05573 0.08789,0.07227 0.07014,0.03307 0.163867,0.05087 0.302734,0.06641 0.277734,0.03108 0.727213,0.04297 1.417969,0.04297 0.762352,0 1.216009,-0.0089 1.488281,-0.04492 0.136136,-0.01801 0.22806,-0.04078 0.296875,-0.08398 0.06882,-0.0432 0.105469,-0.12042 0.105469,-0.189453 0,-0.06772 -0.03273,-0.144403 -0.09961,-0.1875 -0.06688,-0.0431 -0.156333,-0.06349 -0.287109,-0.07813 -0.261553,-0.02927 -0.696646,-0.02661 -1.439453,-0.0078 z m -12.408203,0.123047 v 0.9375 h 7.978515 v -0.46875 -0.46875 z m 20.333984,0 c 0.746644,0 1.197727,0.0099 1.451172,0.04297 0.126722,0.01653 0.201959,0.03992 0.236328,0.06055 0.03437,0.02063 0.0332,0.02435 0.0332,0.05273 0,0.02838 0.0012,0.03015 -0.0332,0.05078 -0.03437,0.02063 -0.109601,0.04402 -0.236328,0.06055 -0.253454,0.03305 -0.704564,0.04492 -1.451172,0.04492 -0.746638,0 -1.195773,-0.01187 -1.449219,-0.04492 -0.126723,-0.01653 -0.203911,-0.03992 -0.238281,-0.06055 -0.03437,-0.02063 -0.0332,-0.02239 -0.0332,-0.05078 0,-0.02838 -0.0012,-0.03211 0.0332,-0.05273 0.03438,-0.02063 0.111554,-0.04402 0.238281,-0.06055 0.253454,-0.03305 0.702611,-0.04297 1.449219,-0.04297 z m -7.921875,0.0332 c 0.741543,-0.01877 1.177159,-0.01913 1.417969,0.0078 0.120405,0.01347 0.190015,0.03422 0.21875,0.05273 0.02873,0.01852 0.0293,0.02253 0.0293,0.05664 0,0.03173 -3.37e-4,0.03601 -0.0332,0.05664 -0.03287,0.02063 -0.107987,0.04383 -0.234375,0.06055 -0.252778,0.03344 -0.70575,0.04492 -1.466797,0.04492 -0.688995,0 -1.137262,-0.01157 -1.400391,-0.04102 -0.131564,-0.01472 -0.216716,-0.03715 -0.253906,-0.05469 -0.0053,-0.0025 -0.0027,-0.0019 -0.0059,-0.0039 0.0031,-10e-4 0.01263,-0.01512 0.07031,-0.03516 0.06729,-0.02337 0.172219,-0.04538 0.316406,-0.06445 0.288375,-0.03815 0.730125,-0.0646 1.341797,-0.08008 z m -12.255859,0.123047 h 7.666015 v 0.3125 0.3125 h -7.666015 z m 12.201172,0.625 c -0.747992,0 -1.196454,0.0094 -1.46875,0.04492 -0.136148,0.01775 -0.22946,0.04041 -0.298829,0.08203 -0.06937,0.04162 -0.109374,0.11648 -0.109374,0.185547 0,0.06906 0.04001,0.14392 0.109374,0.185546 0.06936,0.04163 0.162685,0.06428 0.298829,0.08203 0.272287,0.03551 0.720723,0.04492 1.46875,0.04492 0.747991,0 1.198407,-0.0094 1.470703,-0.04492 0.136148,-0.01775 0.227507,-0.04041 0.296875,-0.08203 0.06937,-0.04162 0.109375,-0.11648 0.109375,-0.185546 0,-0.06906 -0.04001,-0.143921 -0.109375,-0.185547 -0.06936,-0.04163 -0.160731,-0.06428 -0.296875,-0.08203 -0.272289,-0.03551 -0.722682,-0.04492 -1.470703,-0.04492 z m 7.976562,0 c -0.747992,0 -1.196454,0.0094 -1.46875,0.04492 -0.136148,0.01775 -0.22946,0.04041 -0.298828,0.08203 -0.06937,0.04162 -0.109375,0.11648 -0.109375,0.185547 0,0.06906 0.04001,0.14392 0.109375,0.185546 0.06936,0.04163 0.162684,0.06428 0.298828,0.08203 0.272289,0.03551 0.720729,0.04492 1.46875,0.04492 0.747992,0 1.198407,-0.0094 1.470703,-0.04492 0.136148,-0.01775 0.22946,-0.04041 0.298828,-0.08203 0.06937,-0.04162 0.107422,-0.11648 0.107422,-0.185546 0,-0.06906 -0.03806,-0.143921 -0.107422,-0.185547 -0.06936,-0.04163 -0.162684,-0.06428 -0.298828,-0.08203 -0.272288,-0.03551 -0.722676,-0.04492 -1.470703,-0.04492 z m -7.976562,0.15625 c 0.746638,0 1.195772,0.0099 1.449218,0.04297 0.126723,0.01653 0.203912,0.04187 0.238282,0.0625 0.03437,0.02063 0.0332,0.02239 0.0332,0.05078 0,0.02838 0.0012,0.03211 -0.0332,0.05273 -0.03438,0.02063 -0.111555,0.04402 -0.238282,0.06055 -0.253454,0.03305 -0.70261,0.04297 -1.449218,0.04297 -0.746644,0 -1.195774,-0.0099 -1.449219,-0.04297 -0.126722,-0.01653 -0.203913,-0.03992 -0.238281,-0.06055 -0.03437,-0.02063 -0.0332,-0.02435 -0.0332,-0.05273 0,-0.02838 -0.0012,-0.03016 0.0332,-0.05078 0.03438,-0.02063 0.111554,-0.04597 0.238281,-0.0625 0.253454,-0.03305 0.70261,-0.04297 1.449219,-0.04297 z m 7.976562,0 c 0.746644,0 1.197727,0.0099 1.451172,0.04297 0.126722,0.01653 0.203912,0.04187 0.238281,0.0625 0.03437,0.02063 0.03125,0.02239 0.03125,0.05078 0,0.02838 0.0031,0.03211 -0.03125,0.05273 -0.03437,0.02063 -0.111554,0.04402 -0.238281,0.06055 -0.253454,0.03305 -0.704564,0.04297 -1.451172,0.04297 -0.746638,0 -1.195773,-0.0099 -1.449219,-0.04297 -0.126723,-0.01653 -0.203911,-0.03992 -0.238281,-0.06055 -0.03437,-0.02063 -0.03125,-0.02435 -0.03125,-0.05273 0,-0.02838 -0.0031,-0.03016 0.03125,-0.05078 0.03438,-0.02063 0.111554,-0.04597 0.238281,-0.0625 0.253454,-0.03305 0.702611,-0.04297 1.449219,-0.04297 z m -20.332031,0.9375 v 1.101562 l 7.890625,-0.08594 0.05664,-0.498046 0.05859,-0.517578 z m 0.15625,0.158203 h 7.675781 l -0.04102,0.341797 -0.04102,0.361328 L 25.826172,42 Z m 12.332031,0.1875 c -0.294067,-0.03296 -0.609118,0.0424 -0.894531,0.273437 -0.481724,0.389981 -0.515811,1.217818 -0.08008,1.699219 0.207708,0.22945 0.535674,0.337488 0.865234,0.337891 0.32956,4.02e-4 0.66632,-0.105866 0.892578,-0.332032 0.258599,-0.25853 0.360323,-0.561012 0.341797,-0.845703 -0.01853,-0.28469 -0.153515,-0.550002 -0.355469,-0.753906 C 38.72578,41.575393 38.45227,41.433351 38.158203,41.400391 Z M 46.5,41.501953 c -0.889665,-0.405256 -1.899483,0.466705 -1.658203,1.427735 0.06546,0.260487 0.330798,0.532726 0.632812,0.68164 0.300869,0.148355 0.428211,0.230476 0.578125,0.232422 0.0901,0.0012 0.216981,-0.07708 0.324219,-0.130859 l -0.01953,0.0332 0.234375,-0.121094 c 0.01597,-0.0083 0.0081,-0.03027 0.02344,-0.03906 l 0.0078,0.0078 0.132812,-0.230469 -0.01758,0.0078 c 0.252534,-0.237067 0.494742,-0.501872 0.48048,-0.824193 C 47.200106,42.12552 46.954932,41.709184 46.5,41.501953 Z m -8.353516,0.05078 c 0.25513,0.02988 0.491445,0.155738 0.669922,0.335938 0.178477,0.1802 0.294829,0.414706 0.310547,0.65625 0.01572,0.241544 -0.06611,0.491952 -0.296875,0.722656 -0.188241,0.188164 -0.486318,0.28747 -0.78125,0.28711 -0.294932,-3.61e-4 -0.579825,-0.10128 -0.748047,-0.28711 -0.371467,-0.410399 -0.335076,-1.150797 0.0625,-1.472656 0.255127,-0.206517 0.528073,-0.272069 0.783203,-0.242188 z m 8.289063,0.0918 c 0.402548,0.183369 0.612717,0.544276 0.628906,0.910157 0.01619,0.36588 -0.160764,0.731082 -0.544922,0.929687 -0.27585,0.142607 -0.379173,0.204237 -0.464843,0.203125 -0.08567,-0.0011 -0.207708,-0.06689 -0.511719,-0.216797 -0.263506,-0.129926 -0.505437,-0.397673 -0.550781,-0.578125 -0.210721,-0.83931 0.671784,-1.599511 1.443359,-1.248047 z m 8.589844,0.50586 c -0.07169,0 -0.141236,0.01599 -0.203125,0.05664 -0.06189,0.04065 -0.112509,0.100925 -0.158204,0.183594 -0.09139,0.165338 -0.169407,0.421843 -0.271484,0.828125 -0.15654,0.623015 -0.238235,0.995366 -0.242187,1.230469 -0.002,0.117551 0.01551,0.207871 0.07031,0.273437 0.0548,0.06557 0.138643,0.08594 0.222656,0.08594 0.118866,0 0.203508,-0.09489 0.279297,-0.220703 0.07197,-0.119471 0.135732,-0.284631 0.1875,-0.476563 l 0.002,-0.002 0.0078,-0.02344 c 0.09453,-0.365649 0.200744,-0.787904 0.238281,-0.9375 0.01815,-0.07245 0.05014,-0.182939 0.07813,-0.28711 0.0038,0.110182 0.05144,0.218536 0.13086,0.31836 0.08243,0.103613 0.19478,0.197823 0.324218,0.265624 0.102933,0.05392 0.179822,0.09498 0.228516,0.125 0.0056,0.0034 0.0069,0.0047 0.01172,0.0078 -0.03487,0.01407 -0.07851,0.03055 -0.148438,0.05273 -0.101132,0.03208 -0.193372,0.07531 -0.263672,0.125 -0.03515,0.02485 -0.06406,0.05066 -0.08789,0.08008 -0.02383,0.02942 -0.04492,0.06566 -0.04492,0.111328 0,0.04279 -0.04039,0.222674 -0.08984,0.351562 -0.03516,0.09159 -0.06009,0.169773 -0.02148,0.248047 0.01931,0.03914 0.05924,0.06655 0.09961,0.07813 0.04037,0.01157 0.08297,0.0117 0.130859,0.0059 0.189342,-0.02308 0.496275,-0.144358 0.992188,-0.363281 8.61e-4,-3.8e-4 0.0011,3.81e-4 0.002,0 l 0.0098,-0.0039 c 0.29766,-0.131607 0.523551,-0.253761 0.679687,-0.375 0.156136,-0.121239 0.250202,-0.248589 0.25,-0.390625 -2.01e-4,-0.142036 -0.09655,-0.265687 -0.253906,-0.376953 -0.157353,-0.111266 -0.383359,-0.21857 -0.681641,-0.330078 -0.535208,-0.2002 -0.821829,-0.304004 -1.011718,-0.306641 -0.07649,-0.0011 -0.13257,0.042 -0.177735,0.08984 8.17e-4,-0.0029 0.0011,-0.0069 0.002,-0.0098 0.03603,-0.126769 0.05105,-0.228805 -0.0059,-0.3125 -0.02846,-0.04185 -0.07322,-0.06958 -0.121094,-0.08398 -0.04788,-0.0144 -0.102085,-0.01758 -0.164062,-0.01758 z m 0,0.15625 c 0.05334,0 0.09453,0.0043 0.11914,0.01172 0.02461,0.0074 0.03028,0.01432 0.03516,0.02148 0.0097,0.01434 0.0183,0.06917 -0.01367,0.18164 -0.04964,0.174696 -0.120512,0.439391 -0.158204,0.589844 -0.03625,0.14447 -0.141671,0.551397 -0.234374,0.910156 l -0.0059,0.02344 c -0.05034,0.19482 -0.113651,0.356507 -0.177734,0.46289 -0.06408,0.106384 -0.127621,0.144532 -0.146485,0.144532 -0.06178,0 -0.08685,-0.01132 -0.103515,-0.03125 -0.01666,-0.01993 -0.03489,-0.06982 -0.0332,-0.169922 0.0034,-0.200197 0.08035,-0.574528 0.236328,-1.195313 0.101183,-0.402728 0.181998,-0.651902 0.257812,-0.789062 0.03791,-0.06858 0.07359,-0.106682 0.107422,-0.128906 0.03384,-0.02222 0.06693,-0.03125 0.117188,-0.03125 z m -1.146485,0.177734 c -0.187897,0.0043 -0.470354,0.112747 -1.007812,0.318359 -0.292769,0.112007 -0.515764,0.217158 -0.671875,0.326172 -0.156111,0.109015 -0.254102,0.228495 -0.259766,0.367188 -0.0057,0.138693 0.08335,0.26256 0.230469,0.380859 0.147118,0.118299 0.359592,0.237935 0.642578,0.367188 0.529295,0.241746 0.828207,0.368925 1.035156,0.371093 0.103475,0.0011 0.195035,-0.04756 0.238282,-0.128906 0.04325,-0.08134 0.05078,-0.178649 0.05078,-0.300781 0,-0.154071 -0.02895,-0.27945 -0.109375,-0.375 -0.08043,-0.09555 -0.203352,-0.152743 -0.365235,-0.193359 l -0.21289,-0.05273 0.230469,-0.123047 c 0.12735,-0.06672 0.238807,-0.160396 0.320313,-0.263679 0.08151,-0.103282 0.136719,-0.216131 0.136719,-0.330078 0,-0.09939 -0.0015,-0.179664 -0.03906,-0.251953 -0.01879,-0.03614 -0.051,-0.06916 -0.08984,-0.08789 -0.03885,-0.01873 -0.08193,-0.02452 -0.128906,-0.02344 z m 0.0039,0.15625 c 0.03082,-7.1e-4 0.04772,0.0055 0.05664,0.0098 0.0089,0.0043 0.01353,0.006 0.01953,0.01758 0.012,0.02308 0.02148,0.08607 0.02148,0.179687 0,0.06 -0.03653,0.149488 -0.103516,0.234375 -0.06699,0.08489 -0.1629,0.166798 -0.269531,0.222657 l -0.595703,0.310546 0.613281,0.154297 c 0.146647,0.03679 0.231819,0.0819 0.28125,0.140625 0.04943,0.05873 0.07422,0.140332 0.07422,0.275391 0,0.113493 -0.01416,0.1927 -0.0332,0.228515 -0.01904,0.03582 -0.03008,0.04563 -0.09766,0.04492 -0.135151,-0.0014 -0.443998,-0.116858 -0.970703,-0.357422 -0.276864,-0.126457 -0.482364,-0.242002 -0.611328,-0.345703 -0.128963,-0.103701 -0.174586,-0.187513 -0.171875,-0.253906 0.0027,-0.06639 0.05595,-0.148187 0.193359,-0.244141 0.137408,-0.09595 0.350138,-0.198954 0.636719,-0.308593 0.536242,-0.205148 0.833753,-0.305754 0.957031,-0.308594 z m 1.607422,0 c 0.126461,0.0018 0.425193,0.09721 0.958985,0.296875 0.291668,0.109036 0.506783,0.215097 0.644531,0.3125 0.137748,0.0974 0.189355,0.178715 0.189453,0.248047 9.9e-5,0.06933 -0.05309,0.160178 -0.191406,0.267578 -0.13586,0.105495 -0.351062,0.223363 -0.634766,0.349609 -6.7e-4,2.99e-4 -0.0013,-2.98e-4 -0.002,0 l -0.0098,0.0059 c -0.50346,0.222583 -0.816834,0.338139 -0.958984,0.355468 -0.03554,0.0043 -0.05927,0.0026 -0.06836,0 0,0 -0.002,0 -0.002,0 9.99e-4,0.002 -0.0026,-0.04307 0.02734,-0.121093 0.05495,-0.143212 0.09961,-0.304594 0.09961,-0.408203 0,0.0091 -0.0011,0.0017 0.0098,-0.01172 0.01086,-0.0134 0.03183,-0.03186 0.05859,-0.05078 0.05352,-0.03783 0.132012,-0.07795 0.21875,-0.105469 0.08407,-0.02667 0.148149,-0.04745 0.197266,-0.07031 0.02456,-0.01143 0.04546,-0.02135 0.06641,-0.04297 0.02094,-0.02162 0.03795,-0.06522 0.0293,-0.101563 -0.0087,-0.03634 -0.02865,-0.05818 -0.04883,-0.07617 -0.02018,-0.01799 -0.04376,-0.03321 -0.07227,-0.05078 -0.05702,-0.03515 -0.133166,-0.07682 -0.236328,-0.130859 -0.109291,-0.05725 -0.207616,-0.139421 -0.275391,-0.22461 -0.06777,-0.08519 -0.103515,-0.171875 -0.103515,-0.232422 0,-0.09294 0.01078,-0.156357 0.02344,-0.179687 0.01265,-0.02333 0.01685,-0.03017 0.08008,-0.0293 z m -29.820312,0.285156 v 1.107422 l 7.898437,-0.08594 v -0.46875 -0.466797 z m 0.15625,0.158203 7.585937,0.08203 v 0.3125 0.314453 L 25.826172,43.875 Z m 28.875,7.744141 c -0.483896,0 -0.82931,0.446409 -0.664063,0.876953 0.04125,0.107457 0.120607,0.19132 0.226563,0.234375 0.105956,0.04306 0.234203,0.05094 0.388672,0.0332 0.186966,-0.0215 0.318429,-0.05331 0.402344,-0.154297 0.08391,-0.100981 0.09766,-0.24104 0.09766,-0.443359 0,-0.199397 -0.0088,-0.332888 -0.08594,-0.429688 -0.03858,-0.0484 -0.09528,-0.07915 -0.15625,-0.0957 -0.06097,-0.01655 -0.127872,-0.02148 -0.208984,-0.02148 z m 0,0.15625 c 0.07452,0 0.12963,0.0052 0.167969,0.01563 0.03834,0.01041 0.05821,0.02289 0.07422,0.04297 0.03201,0.04016 0.05273,0.141008 0.05273,0.332031 0,0.193441 -0.01986,0.294784 -0.06055,0.34375 -0.04069,0.04897 -0.124127,0.07734 -0.300781,0.09766 -0.139032,0.01596 -0.242609,0.0069 -0.3125,-0.02148 -0.06989,-0.0284 -0.110316,-0.07067 -0.138672,-0.144531 -0.126833,-0.330457 0.126794,-0.666016 0.517578,-0.666016 z"
       style="color:#000000;font-style:normal;font-variant:normal;font-weight:normal;font-stretch:normal;font-size:medium;line-height:normal;font-family:sans-serif;font-variant-ligatures:normal;font-variant-position:normal;font-variant-caps:normal;font-variant-numeric:normal;font-variant-alternates:normal;font-variant-east-asian:normal;font-feature-settings:normal;font-variation-settings:normal;text-indent:0;text-align:start;text-decoration:none;text-decoration-line:none;text-decoration-style:solid;text-decoration-color:#000000;letter-spacing:normal;word-spacing:normal;text-transform:none;writing-mode:lr-tb;direction:ltr;text-orientation:mixed;dominant-baseline:auto;baseline-shift:baseline;text-anchor:start;white-space:normal;shape-padding:0;shape-margin:0;inline-size:0;clip-rule:nonzero;display:inline;overflow:visible;visibility:visible;isolation:auto;mix-blend-mode:normal;color-interpolation:sRGB;color-interpolation-filters:linearRGB;solid-color:#000000;solid-opacity:1;vector-effect:none;fill-opacity:0;fill-rule:nonzero;stroke:#ff0000;stroke-width:0.1;stroke-linecap:butt;stroke-linejoin:miter;stroke-miterlimit:4;stroke-dasharray:none;stroke-dashoffset:0;stroke-opacity:1;color-rendering:auto;image-rendering:auto;shape-rendering:auto;text-rendering:auto;enable-background:accumulate;stop-color:#000000;stop-opacity:1;fill:#ffffff" />
  </g>
  <path
     id="path20"
     d="m 32.060344,53.259741 c 0,-0.686426 0.01819,-0.702213 0.808974,-0.702213 1.014731,0 2.10156,-0.443386 2.384995,-0.972987 0.11923,-0.222782 0.216781,-0.764108 0.216781,-1.202944 0,-0.633149 -0.119494,-0.898433 -0.578761,-1.284881 -0.545518,-0.459023 -0.772081,-0.494619 -3.944375,-0.619732 -1.851087,-0.073 -4.434608,-0.132736 -5.741158,-0.132736 H 22.831255 V 37.911364 27.478481 h 15.348376 15.348377 v 2.507905 2.507904 h -0.802529 -0.80253 V 30.688599 28.882908 H 38.279948 24.636946 v 8.727508 8.727508 h 11.335729 11.335729 v 1.003162 1.003162 l -1.755533,0.01196 c -3.562337,0.02427 -4.664703,0.517001 -4.664703,2.085013 0,0.452777 0.138089,1.02038 0.306864,1.26134 0.332861,0.475226 1.414972,0.85207 2.451832,0.853849 0.611238,10e-4 0.652055,0.04508 0.652055,0.703333 v 0.702213 h -6.119288 -6.119287 z"
     style="fill:#ff4a27;fill-opacity:1;stroke-width:0.200632" />
  <path
     id="path24"
     d="m 49.786825,52.163046 c -0.39301,-0.16349 -0.443695,-0.386387 -0.578515,-2.544107 -0.08127,-1.300705 -0.104938,-5.112287 -0.05259,-8.470182 0.0891,-5.715571 0.11962,-6.123192 0.478199,-6.386144 0.578183,-0.423991 9.642364,-0.296709 9.917576,0.139266 0.253108,0.400959 0.253115,16.652779 7e-6,17.053752 -0.158444,0.251006 -0.948685,0.308056 -4.761947,0.343777 -2.514587,0.02356 -4.765814,-0.03781 -5.002726,-0.136362 z m 5.031534,-0.473493 c 0.56143,-0.410527 0.242951,-1.180568 -0.454886,-1.099856 -0.808052,0.09346 -0.827386,1.34077 -0.02112,1.362861 0.06167,0.0017 0.275875,-0.116662 0.47601,-0.263005 z m 3.926091,-8.963012 v -7.222765 h -4.21328 -4.21328 v 7.222765 7.222766 h 4.21328 4.21328 z"
     style="fill:#ff4a27;fill-opacity:1;stroke-width:0.200632" />
</svg>
