<?xml version="1.0" encoding="UTF-8" standalone="no"?>
<svg
   xmlns:dc="http://purl.org/dc/elements/1.1/"
   xmlns:cc="http://creativecommons.org/ns#"
   xmlns:rdf="http://www.w3.org/1999/02/22-rdf-syntax-ns#"
   xmlns:svg="http://www.w3.org/2000/svg"
   xmlns="http://www.w3.org/2000/svg"
   xmlns:sodipodi="http://sodipodi.sourceforge.net/DTD/sodipodi-0.dtd"
   xmlns:inkscape="http://www.inkscape.org/namespaces/inkscape"
   inkscape:version="1.0 (4035a4fb49, 2020-05-01)"
   sodipodi:docname="md.svg"
   id="svg6"
   viewBox="0 0 82 82"
   version="1.1"
   height="82"
   width="82">
  <defs
     id="defs10" />
  <sodipodi:namedview
     inkscape:current-layer="svg6"
     inkscape:window-maximized="1"
     inkscape:window-y="-8"
     inkscape:window-x="-8"
     inkscape:cy="45.765319"
     inkscape:cx="13.938649"
     inkscape:zoom="4.9842405"
     showgrid="false"
     id="namedview8"
     inkscape:window-height="746"
     inkscape:window-width="1366"
     inkscape:pageshadow="2"
     inkscape:pageopacity="0"
     guidetolerance="10"
     gridtolerance="10"
     objecttolerance="10"
     borderopacity="1"
     bordercolor="#666666"
     pagecolor="#ffffff" />
  <metadata
     id="metadata2">
    <rdf:RDF>
      <cc:Work
         rdf:about="">
        <dc:format>image/svg+xml</dc:format>
        <dc:type
           rdf:resource="http://purl.org/dc/dcmitype/StillImage" />
        <dc:title />
      </cc:Work>
    </rdf:RDF>
  </metadata>
  <path
     id="path20"
     d="m 32.060344,53.259741 c 0,-0.686426 0.01819,-0.702213 0.808974,-0.702213 1.014731,0 2.10156,-0.443386 2.384995,-0.972987 0.11923,-0.222782 0.216781,-0.764108 0.216781,-1.202944 0,-0.633149 -0.119494,-0.898433 -0.578761,-1.284881 -0.545518,-0.459023 -0.772081,-0.494619 -3.944375,-0.619732 -1.851087,-0.073 -4.434608,-0.132736 -5.741158,-0.132736 H 22.831255 V 37.911364 27.478481 h 15.348376 15.348377 v 2.507905 2.507904 h -0.802529 -0.80253 V 30.688599 28.882908 H 38.279948 24.636946 v 8.727508 8.727508 h 11.335729 11.335729 v 1.003162 1.003162 l -1.755533,0.01196 c -3.562337,0.02427 -4.664703,0.517001 -4.664703,2.085013 0,0.452777 0.138089,1.02038 0.306864,1.26134 0.332861,0.475226 1.414972,0.85207 2.451832,0.853849 0.611238,10e-4 0.652055,0.04508 0.652055,0.703333 v 0.702213 h -6.119288 -6.119287 z"
     style="fill:#ff4a27;fill-opacity:1;stroke-width:0.200632" />
  <path
     id="path24"
     d="m 49.786825,52.163046 c -0.39301,-0.16349 -0.443695,-0.386387 -0.578515,-2.544107 -0.08127,-1.300705 -0.104938,-5.112287 -0.05259,-8.470182 0.0891,-5.715571 0.11962,-6.123192 0.478199,-6.386144 0.578183,-0.423991 9.642364,-0.296709 9.917576,0.139266 0.253108,0.400959 0.253115,16.652779 7e-6,17.053752 -0.158444,0.251006 -0.948685,0.308056 -4.761947,0.343777 -2.514587,0.02356 -4.765814,-0.03781 -5.002726,-0.136362 z m 5.031534,-0.473493 c 0.56143,-0.410527 0.242951,-1.180568 -0.454886,-1.099856 -0.808052,0.09346 -0.827386,1.34077 -0.02112,1.362861 0.06167,0.0017 0.275875,-0.116662 0.47601,-0.263005 z m 3.926091,-8.963012 v -7.222765 h -4.21328 -4.21328 v 7.222765 7.222766 h 4.21328 4.21328 z"
     style="fill:#ff4a27;fill-opacity:1;stroke-width:0.200632" />
  <ellipse
     ry="29.94758"
     rx="29.947578"
     cy="40.182255"
     cx="40.790474"
     id="path874"
     style="fill:none;fill-opacity:0;stroke:#ff0000;stroke-width:0.805;stroke-miterlimit:4;stroke-dasharray:none" />
</svg>
