<?xml version="1.0" encoding="UTF-8"?>
<svg width="82" height="82" version="1.1" viewBox="0 0 82 82" xmlns="http://www.w3.org/2000/svg" xmlns:cc="http://creativecommons.org/ns#" xmlns:dc="http://purl.org/dc/elements/1.1/" xmlns:rdf="http://www.w3.org/1999/02/22-rdf-syntax-ns#">
 <metadata>
  <rdf:RDF>
   <cc:Work rdf:about="">
    <dc:format>image/svg+xml</dc:format>
    <dc:type rdf:resource="http://purl.org/dc/dcmitype/StillImage"/>
    <dc:title/>
   </cc:Work>
  </rdf:RDF>
 </metadata>
 <path d="m38.218 80.855c-5.4482-0.5299-10.195-1.8836-14.788-4.2171-11.327-5.7548-19.152-16.331-21.403-28.928-0.48085-2.6912-0.66225-7.7576-0.37824-10.564 0.51374-5.0755 1.776-9.468 4.0219-13.995 4.3539-8.7769 11.684-15.581 20.78-19.29 10.569-4.3089 22.682-3.8373 32.885 1.2802 4.084 2.0485 6.7142 3.9276 10.105 7.2192 3.5773 3.4725 6.2337 7.2019 8.3998 11.793 0.92367 1.9576 2.3425 6.1465 2.7854 8.2234 1.5868 7.4407 1.0371 15.302-1.568 22.424-3.7615 10.284-11.842 18.737-22.028 23.046-3.0853 1.3051-7.2315 2.4141-10.636 2.8448-1.8302 0.23153-6.514 0.32532-8.1755 0.16371zm6.455-27.348v-0.91814l-1.2529-0.0725c-1.423-0.0824-1.9165-0.38538-2.1797-1.3385-0.24292-0.87954 0.0893-1.6094 0.92406-2.0303 0.63296-0.3191 0.92039-0.35184 3.0892-0.35184h2.3913v-2.3456h-22.68v-17.201h26.903v3.5966h2.0188l0.0464-2.5822c0.0255-1.4202 0.0288-2.6341 7e-3 -2.6974-0.0215-0.06336-7.0249-0.09832-15.563-0.0777l-15.524 0.0375-0.04019 10.635-0.04019 10.635 5.4364 9.4e-4c3.2255 4.7e-4 5.6709 0.066 6.0129 0.16095 1.178 0.3271 1.7047 1.569 1.1337 2.673-0.31921 0.61712-1.071 0.91822-2.2917 0.91787l-0.98261-3.2e-4 0.106 1.877h12.485v-0.91814zm15.199-1.0608c0.27058-0.2448 0.28577-0.72033 0.28107-8.796-4e-3 -6.851-0.046-8.5912-0.21277-8.8108-0.19029-0.25062-0.63017-0.27365-5.226-0.27365-5.0084 0-5.0187 6.25e-4 -5.2617 0.34754-0.21305 0.30409-0.24349 1.3989-0.24349 8.7569 0 8.2008 8e-3 8.4171 0.31282 8.7221 0.29945 0.29937 0.52138 0.31275 5.1884 0.31275 4.3173 0 4.9084-0.0296 5.1616-0.2588zm-5.7616-0.76841c-0.14604-0.3805 0.15294-0.77108 0.59028-0.77108 0.31127 0 0.37399 0.0787 0.37399 0.46912 0 0.39576-0.0674 0.47687-0.43102 0.51868-0.2935 0.0337-0.46364-0.0354-0.53325-0.21672zm-3.4935-8.7461v-6.9586h8.1335v13.917h-8.1335zm4.2264 1.1337c0.0945-0.36552 0.20232-0.7864 0.23968-0.93529 0.0373-0.14889 0.1083-0.41277 0.15764-0.5864 0.068-0.23924 0.016-0.31568-0.21463-0.31568-0.24389 0-0.35472 0.20049-0.55798 1.0095-0.31252 1.2438-0.31669 1.4925-0.0251 1.4925 0.13773 0 0.29688-0.26421 0.40034-0.66459zm-0.78533 0.12026c0-0.28913-0.10545-0.41441-0.41398-0.49182l-0.41398-0.10388 0.41398-0.21684c0.23398-0.12257 0.41398-0.35065 0.41398-0.5246 0-0.38603-0.0855-0.38406-1.1592 0.0267-1.1587 0.44329-1.1727 0.78628-0.053 1.2977 1.056 0.48231 1.2122 0.48395 1.2122 0.0127zm2.4199 6e-3c1.1783-0.52097 1.1779-0.88541-2e-3 -1.3265-1.069-0.39987-1.1672-0.40124-1.1672-0.0162 0 0.17502 0.18105 0.40259 0.41978 0.52764 0.41219 0.21592 0.4136 0.22186 0.0782 0.32828-0.18787 0.0596-0.34158 0.16826-0.34158 0.24143 0 0.0732-0.0427 0.24435-0.0949 0.3804-0.13022 0.33921 0.0974 0.31146 1.1072-0.13498zm-22.988-0.71228v-0.39093l-7.7424-0.0836v0.94916l7.7424-0.0836zm13.066 0.0753c0.82141-0.42466 0.76978-1.5915-0.0877-1.9821-0.83062-0.37836-1.7773 0.43873-1.5513 1.3389 0.0554 0.22047 0.30868 0.49011 0.59144 0.62953 0.60488 0.29826 0.49962 0.29689 1.0476 0.0136zm-7.6697-0.23172c0.97873-0.97847-0.49182-2.4632-1.5729-1.5881-0.43965 0.35592-0.4749 1.1402-0.0713 1.5861 0.37593 0.41528 1.2297 0.41633 1.6442 2e-3zm-5.3468-1.7592 0.0495-0.43002h-7.8414v0.9437l7.7424-0.0836zm6.2852-1.2901c0-0.1949-0.30414-0.23456-1.7988-0.23456-1.4946 0-1.7988 0.03966-1.7988 0.23456 0 0.1949 0.30413 0.23456 1.7988 0.23456 1.4946 0 1.7988-0.03966 1.7988-0.23456zm7.9771 0c0-0.1949-0.30413-0.23456-1.7988-0.23456-1.4946 0-1.7988 0.03966-1.7988 0.23456 0 0.1949 0.30414 0.23456 1.7988 0.23456 1.4946 0 1.7988-0.03966 1.7988-0.23456zm-14.234-0.62549v-0.39093h-7.8207v0.78186h7.8207zm6.2565-0.31787c0-0.20366-0.26255-0.23304-1.7469-0.19547-1.2258 0.03102-1.7663 0.10252-1.8118 0.23968-0.0494 0.14886 0.36715 0.19547 1.7469 0.19547 1.5234 0 1.8118-0.03815 1.8118-0.23968zm7.9771 0.0051c0-0.1949-0.30413-0.23456-1.7988-0.23456-1.4946 0-1.7988 0.03966-1.7988 0.23456s0.30414 0.23456 1.7988 0.23456c1.4946 0 1.7988-0.03966 1.7988-0.23456zm-7.9771-0.78186c0-0.1949-0.30414-0.23456-1.7988-0.23456-1.4946 0-1.7988 0.03966-1.7988 0.23456s0.30413 0.23456 1.7988 0.23456c1.4946 0 1.7988-0.03966 1.7988-0.23456zm7.9771 0c0-0.1949-0.30413-0.23456-1.7988-0.23456-1.4946 0-1.7988 0.03966-1.7988 0.23456s0.30414 0.23456 1.7988 0.23456c1.4946 0 1.7988-0.03966 1.7988-0.23456zm-14.262-0.82096-0.0495-0.43002-3.6447-0.03109c-2.0046-0.0171-3.7466 8e-3 -3.8712 0.05582-0.12461 0.0478-0.22656 0.25531-0.22656 0.46112v0.3742h7.8414zm6.2852-0.11728c0-0.1949-0.30414-0.23456-1.7988-0.23456-1.4946 0-1.7988 0.03966-1.7988 0.23456s0.30413 0.23456 1.7988 0.23456c1.4946 0 1.7988-0.03966 1.7988-0.23456zm7.9771 0c0-0.1949-0.30413-0.23456-1.7988-0.23456-1.4946 0-1.7988 0.03966-1.7988 0.23456s0.30414 0.23456 1.7988 0.23456c1.4946 0 1.7988-0.03966 1.7988-0.23456zm0.31283-2.111v-0.46942h-22.367v0.93824h22.367zm-18.457-2.0328v-0.62549h-3.9103v1.085l1.9161 0.04919c1.0538 0.02705 1.9337 0.0644 1.9552 0.083 0.0215 0.0186 0.0391-0.24766 0.0391-0.59168zm21.585-2.4238v-1.0167h-25.495v2.0328h25.495z" fill="#ff4a27" stroke-width=".15639"/>
</svg>
